M48
;GenerationSoftware,Autodesk,EAGLE,9.6.2*%
;CreationDate,2022-10-10T09:36:18Z*%
FMAT,2
ICI,OFF
METRIC,TZ,000.000
T2C0.813
T1C1.020
%
G90
M71
T1
X143230Y45000
X145770Y45000
X148310Y45000
X150850Y45000
X140690Y45000
X138150Y45000
X153390Y45000
X155930Y45000
T2
X21000Y26270
X21000Y23730
X63000Y26270
X63000Y23730
X105000Y26270
X105000Y23730
X147000Y26270
X147000Y23730
X189000Y26270
X189000Y23730
X231000Y26270
X231000Y23730
X273000Y26270
X273000Y23730
M30