G04 EAGLE Gerber RS-274X export*
G75*
%MOMM*%
%FSLAX34Y34*%
%LPD*%
%INSilk bottom*%
%IPPOS*%
%AMOC8*
5,1,8,0,0,1.08239X$1,22.5*%
G01*
%ADD10C,0.000000*%
%ADD11C,0.152400*%
%ADD12C,0.127000*%
%ADD13C,0.101600*%


D10*
X100000Y0D02*
X2840000Y0D01*
X2842416Y29D01*
X2844831Y117D01*
X2847243Y263D01*
X2849651Y467D01*
X2852054Y729D01*
X2854449Y1049D01*
X2856836Y1427D01*
X2859213Y1863D01*
X2861578Y2356D01*
X2863932Y2906D01*
X2866271Y3512D01*
X2868595Y4175D01*
X2870902Y4894D01*
X2873191Y5669D01*
X2875460Y6498D01*
X2877709Y7383D01*
X2879936Y8321D01*
X2882140Y9313D01*
X2884319Y10357D01*
X2886472Y11454D01*
X2888598Y12603D01*
X2890696Y13803D01*
X2892764Y15053D01*
X2894801Y16353D01*
X2896806Y17702D01*
X2898779Y19098D01*
X2900716Y20542D01*
X2902619Y22033D01*
X2904484Y23568D01*
X2906312Y25149D01*
X2908102Y26773D01*
X2909851Y28440D01*
X2911560Y30149D01*
X2913227Y31898D01*
X2914851Y33688D01*
X2916432Y35516D01*
X2917967Y37381D01*
X2919458Y39284D01*
X2920902Y41221D01*
X2922298Y43194D01*
X2923647Y45199D01*
X2924947Y47236D01*
X2926197Y49304D01*
X2927397Y51402D01*
X2928546Y53528D01*
X2929643Y55681D01*
X2930687Y57860D01*
X2931679Y60064D01*
X2932617Y62291D01*
X2933502Y64540D01*
X2934331Y66809D01*
X2935106Y69098D01*
X2935825Y71405D01*
X2936488Y73729D01*
X2937094Y76068D01*
X2937644Y78422D01*
X2938137Y80787D01*
X2938573Y83164D01*
X2938951Y85551D01*
X2939271Y87946D01*
X2939533Y90349D01*
X2939737Y92757D01*
X2939883Y95169D01*
X2939971Y97584D01*
X2940000Y100000D01*
X2940000Y400000D01*
X2939971Y402416D01*
X2939883Y404831D01*
X2939737Y407243D01*
X2939533Y409651D01*
X2939271Y412054D01*
X2938951Y414449D01*
X2938573Y416836D01*
X2938137Y419213D01*
X2937644Y421578D01*
X2937094Y423932D01*
X2936488Y426271D01*
X2935825Y428595D01*
X2935106Y430902D01*
X2934331Y433191D01*
X2933502Y435460D01*
X2932617Y437709D01*
X2931679Y439936D01*
X2930687Y442140D01*
X2929643Y444319D01*
X2928546Y446472D01*
X2927397Y448598D01*
X2926197Y450696D01*
X2924947Y452764D01*
X2923647Y454801D01*
X2922298Y456806D01*
X2920902Y458779D01*
X2919458Y460716D01*
X2917967Y462619D01*
X2916432Y464484D01*
X2914851Y466312D01*
X2913227Y468102D01*
X2911560Y469851D01*
X2909851Y471560D01*
X2908102Y473227D01*
X2906312Y474851D01*
X2904484Y476432D01*
X2902619Y477967D01*
X2900716Y479458D01*
X2898779Y480902D01*
X2896806Y482298D01*
X2894801Y483647D01*
X2892764Y484947D01*
X2890696Y486197D01*
X2888598Y487397D01*
X2886472Y488546D01*
X2884319Y489643D01*
X2882140Y490687D01*
X2879936Y491679D01*
X2877709Y492617D01*
X2875460Y493502D01*
X2873191Y494331D01*
X2870902Y495106D01*
X2868595Y495825D01*
X2866271Y496488D01*
X2863932Y497094D01*
X2861578Y497644D01*
X2859213Y498137D01*
X2856836Y498573D01*
X2854449Y498951D01*
X2852054Y499271D01*
X2849651Y499533D01*
X2847243Y499737D01*
X2844831Y499883D01*
X2842416Y499971D01*
X2840000Y500000D01*
X100000Y500000D01*
X97584Y499971D01*
X95169Y499883D01*
X92757Y499737D01*
X90349Y499533D01*
X87946Y499271D01*
X85551Y498951D01*
X83164Y498573D01*
X80787Y498137D01*
X78422Y497644D01*
X76068Y497094D01*
X73729Y496488D01*
X71405Y495825D01*
X69098Y495106D01*
X66809Y494331D01*
X64540Y493502D01*
X62291Y492617D01*
X60064Y491679D01*
X57860Y490687D01*
X55681Y489643D01*
X53528Y488546D01*
X51402Y487397D01*
X49304Y486197D01*
X47236Y484947D01*
X45199Y483647D01*
X43194Y482298D01*
X41221Y480902D01*
X39284Y479458D01*
X37381Y477967D01*
X35516Y476432D01*
X33688Y474851D01*
X31898Y473227D01*
X30149Y471560D01*
X28440Y469851D01*
X26773Y468102D01*
X25149Y466312D01*
X23568Y464484D01*
X22033Y462619D01*
X20542Y460716D01*
X19098Y458779D01*
X17702Y456806D01*
X16353Y454801D01*
X15053Y452764D01*
X13803Y450696D01*
X12603Y448598D01*
X11454Y446472D01*
X10357Y444319D01*
X9313Y442140D01*
X8321Y439936D01*
X7383Y437709D01*
X6498Y435460D01*
X5669Y433191D01*
X4894Y430902D01*
X4175Y428595D01*
X3512Y426271D01*
X2906Y423932D01*
X2356Y421578D01*
X1863Y419213D01*
X1427Y416836D01*
X1049Y414449D01*
X729Y412054D01*
X467Y409651D01*
X263Y407243D01*
X117Y404831D01*
X29Y402416D01*
X0Y400000D01*
X0Y100000D01*
X29Y97584D01*
X117Y95169D01*
X263Y92757D01*
X467Y90349D01*
X729Y87946D01*
X1049Y85551D01*
X1427Y83164D01*
X1863Y80787D01*
X2356Y78422D01*
X2906Y76068D01*
X3512Y73729D01*
X4175Y71405D01*
X4894Y69098D01*
X5669Y66809D01*
X6498Y64540D01*
X7383Y62291D01*
X8321Y60064D01*
X9313Y57860D01*
X10357Y55681D01*
X11454Y53528D01*
X12603Y51402D01*
X13803Y49304D01*
X15053Y47236D01*
X16353Y45199D01*
X17702Y43194D01*
X19098Y41221D01*
X20542Y39284D01*
X22033Y37381D01*
X23568Y35516D01*
X25149Y33688D01*
X26773Y31898D01*
X28440Y30149D01*
X30149Y28440D01*
X31898Y26773D01*
X33688Y25149D01*
X35516Y23568D01*
X37381Y22033D01*
X39284Y20542D01*
X41221Y19098D01*
X43194Y17702D01*
X45199Y16353D01*
X47236Y15053D01*
X49304Y13803D01*
X51402Y12603D01*
X53528Y11454D01*
X55681Y10357D01*
X57860Y9313D01*
X60064Y8321D01*
X62291Y7383D01*
X64540Y6498D01*
X66809Y5669D01*
X69098Y4894D01*
X71405Y4175D01*
X73729Y3512D01*
X76068Y2906D01*
X78422Y2356D01*
X80787Y1863D01*
X83164Y1427D01*
X85551Y1049D01*
X87946Y729D01*
X90349Y467D01*
X92757Y263D01*
X95169Y117D01*
X97584Y29D01*
X100000Y0D01*
D11*
X1567559Y471731D02*
X1567559Y478448D01*
X1567559Y471731D02*
X1567561Y471645D01*
X1567567Y471559D01*
X1567576Y471473D01*
X1567590Y471388D01*
X1567607Y471304D01*
X1567628Y471220D01*
X1567653Y471138D01*
X1567681Y471057D01*
X1567713Y470977D01*
X1567749Y470898D01*
X1567788Y470822D01*
X1567831Y470747D01*
X1567876Y470674D01*
X1567925Y470603D01*
X1567978Y470535D01*
X1568033Y470468D01*
X1568091Y470405D01*
X1568152Y470344D01*
X1568215Y470286D01*
X1568282Y470231D01*
X1568350Y470178D01*
X1568421Y470129D01*
X1568494Y470084D01*
X1568569Y470041D01*
X1568645Y470002D01*
X1568724Y469966D01*
X1568804Y469934D01*
X1568885Y469906D01*
X1568967Y469881D01*
X1569051Y469860D01*
X1569135Y469843D01*
X1569220Y469829D01*
X1569306Y469820D01*
X1569392Y469814D01*
X1569478Y469812D01*
X1570438Y469812D01*
X1562962Y476529D02*
X1560563Y478448D01*
X1560563Y469812D01*
X1562962Y469812D02*
X1558164Y469812D01*
D12*
X200333Y214699D02*
X200333Y203269D01*
X195253Y203269D01*
X190427Y203269D02*
X185347Y203269D01*
X190427Y203269D02*
X190427Y214699D01*
X185347Y214699D01*
X186617Y209619D02*
X190427Y209619D01*
X180546Y214699D02*
X180546Y203269D01*
X180546Y214699D02*
X177371Y214699D01*
X177260Y214697D01*
X177150Y214691D01*
X177039Y214682D01*
X176929Y214668D01*
X176820Y214651D01*
X176711Y214630D01*
X176603Y214605D01*
X176496Y214576D01*
X176390Y214544D01*
X176285Y214508D01*
X176182Y214468D01*
X176080Y214425D01*
X175979Y214378D01*
X175880Y214327D01*
X175784Y214274D01*
X175689Y214217D01*
X175596Y214156D01*
X175505Y214093D01*
X175416Y214026D01*
X175330Y213956D01*
X175247Y213883D01*
X175165Y213808D01*
X175087Y213730D01*
X175012Y213648D01*
X174939Y213565D01*
X174869Y213479D01*
X174802Y213390D01*
X174739Y213299D01*
X174678Y213206D01*
X174621Y213112D01*
X174568Y213015D01*
X174517Y212916D01*
X174470Y212815D01*
X174427Y212713D01*
X174387Y212610D01*
X174351Y212505D01*
X174319Y212399D01*
X174290Y212292D01*
X174265Y212184D01*
X174244Y212075D01*
X174227Y211966D01*
X174213Y211856D01*
X174204Y211745D01*
X174198Y211635D01*
X174196Y211524D01*
X174196Y206444D01*
X174198Y206333D01*
X174204Y206223D01*
X174213Y206112D01*
X174227Y206002D01*
X174244Y205893D01*
X174265Y205784D01*
X174290Y205676D01*
X174319Y205569D01*
X174351Y205463D01*
X174387Y205358D01*
X174427Y205255D01*
X174470Y205153D01*
X174517Y205052D01*
X174568Y204953D01*
X174621Y204857D01*
X174678Y204762D01*
X174739Y204669D01*
X174802Y204578D01*
X174869Y204489D01*
X174939Y204403D01*
X175012Y204320D01*
X175087Y204238D01*
X175165Y204160D01*
X175247Y204085D01*
X175330Y204012D01*
X175416Y203942D01*
X175505Y203875D01*
X175596Y203812D01*
X175689Y203751D01*
X175784Y203694D01*
X175880Y203641D01*
X175979Y203590D01*
X176080Y203543D01*
X176182Y203500D01*
X176285Y203460D01*
X176390Y203424D01*
X176496Y203392D01*
X176603Y203363D01*
X176711Y203338D01*
X176820Y203317D01*
X176929Y203300D01*
X177039Y203286D01*
X177150Y203277D01*
X177260Y203271D01*
X177371Y203269D01*
X180546Y203269D01*
X168735Y212159D02*
X165560Y214699D01*
X165560Y203269D01*
X168735Y203269D02*
X162385Y203269D01*
X620333Y202601D02*
X620333Y214031D01*
X620333Y202601D02*
X615253Y202601D01*
X610427Y202601D02*
X605347Y202601D01*
X610427Y202601D02*
X610427Y214031D01*
X605347Y214031D01*
X606617Y208951D02*
X610427Y208951D01*
X600546Y214031D02*
X600546Y202601D01*
X600546Y214031D02*
X597371Y214031D01*
X597260Y214029D01*
X597150Y214023D01*
X597039Y214014D01*
X596929Y214000D01*
X596820Y213983D01*
X596711Y213962D01*
X596603Y213937D01*
X596496Y213908D01*
X596390Y213876D01*
X596285Y213840D01*
X596182Y213800D01*
X596080Y213757D01*
X595979Y213710D01*
X595880Y213659D01*
X595784Y213606D01*
X595689Y213549D01*
X595596Y213488D01*
X595505Y213425D01*
X595416Y213358D01*
X595330Y213288D01*
X595247Y213215D01*
X595165Y213140D01*
X595087Y213062D01*
X595012Y212980D01*
X594939Y212897D01*
X594869Y212811D01*
X594802Y212722D01*
X594739Y212631D01*
X594678Y212538D01*
X594621Y212444D01*
X594568Y212347D01*
X594517Y212248D01*
X594470Y212147D01*
X594427Y212045D01*
X594387Y211942D01*
X594351Y211837D01*
X594319Y211731D01*
X594290Y211624D01*
X594265Y211516D01*
X594244Y211407D01*
X594227Y211298D01*
X594213Y211188D01*
X594204Y211077D01*
X594198Y210967D01*
X594196Y210856D01*
X594196Y205776D01*
X594198Y205665D01*
X594204Y205555D01*
X594213Y205444D01*
X594227Y205334D01*
X594244Y205225D01*
X594265Y205116D01*
X594290Y205008D01*
X594319Y204901D01*
X594351Y204795D01*
X594387Y204690D01*
X594427Y204587D01*
X594470Y204485D01*
X594517Y204384D01*
X594568Y204285D01*
X594621Y204189D01*
X594678Y204094D01*
X594739Y204001D01*
X594802Y203910D01*
X594869Y203821D01*
X594939Y203735D01*
X595012Y203652D01*
X595087Y203570D01*
X595165Y203492D01*
X595247Y203417D01*
X595330Y203344D01*
X595416Y203274D01*
X595505Y203207D01*
X595596Y203144D01*
X595689Y203083D01*
X595784Y203026D01*
X595880Y202973D01*
X595979Y202922D01*
X596080Y202875D01*
X596182Y202832D01*
X596285Y202792D01*
X596390Y202756D01*
X596496Y202724D01*
X596603Y202695D01*
X596711Y202670D01*
X596820Y202649D01*
X596929Y202632D01*
X597039Y202618D01*
X597150Y202609D01*
X597260Y202603D01*
X597371Y202601D01*
X600546Y202601D01*
X585243Y214032D02*
X585139Y214030D01*
X585034Y214024D01*
X584930Y214015D01*
X584827Y214002D01*
X584724Y213984D01*
X584622Y213964D01*
X584520Y213939D01*
X584420Y213911D01*
X584320Y213879D01*
X584222Y213843D01*
X584125Y213804D01*
X584030Y213762D01*
X583936Y213716D01*
X583844Y213666D01*
X583754Y213614D01*
X583666Y213558D01*
X583580Y213498D01*
X583496Y213436D01*
X583415Y213371D01*
X583336Y213303D01*
X583259Y213231D01*
X583186Y213158D01*
X583114Y213081D01*
X583046Y213002D01*
X582981Y212921D01*
X582919Y212837D01*
X582859Y212751D01*
X582803Y212663D01*
X582751Y212573D01*
X582701Y212481D01*
X582655Y212387D01*
X582613Y212292D01*
X582574Y212195D01*
X582538Y212097D01*
X582506Y211997D01*
X582478Y211897D01*
X582453Y211795D01*
X582433Y211693D01*
X582415Y211590D01*
X582402Y211487D01*
X582393Y211383D01*
X582387Y211278D01*
X582385Y211174D01*
X585243Y214031D02*
X585361Y214029D01*
X585480Y214023D01*
X585598Y214014D01*
X585715Y214001D01*
X585832Y213983D01*
X585949Y213963D01*
X586065Y213938D01*
X586180Y213910D01*
X586293Y213877D01*
X586406Y213842D01*
X586518Y213802D01*
X586628Y213760D01*
X586737Y213713D01*
X586845Y213663D01*
X586950Y213610D01*
X587054Y213553D01*
X587156Y213493D01*
X587256Y213430D01*
X587354Y213363D01*
X587450Y213294D01*
X587543Y213221D01*
X587634Y213145D01*
X587723Y213067D01*
X587809Y212985D01*
X587892Y212901D01*
X587973Y212815D01*
X588050Y212725D01*
X588125Y212634D01*
X588197Y212540D01*
X588266Y212443D01*
X588331Y212345D01*
X588394Y212244D01*
X588453Y212141D01*
X588509Y212037D01*
X588561Y211931D01*
X588610Y211823D01*
X588655Y211714D01*
X588697Y211603D01*
X588735Y211491D01*
X583337Y208952D02*
X583261Y209027D01*
X583186Y209106D01*
X583115Y209187D01*
X583046Y209271D01*
X582981Y209357D01*
X582919Y209445D01*
X582859Y209535D01*
X582803Y209627D01*
X582750Y209722D01*
X582701Y209818D01*
X582655Y209916D01*
X582612Y210015D01*
X582573Y210116D01*
X582538Y210218D01*
X582506Y210321D01*
X582478Y210425D01*
X582453Y210530D01*
X582432Y210637D01*
X582415Y210743D01*
X582402Y210850D01*
X582393Y210958D01*
X582387Y211066D01*
X582385Y211174D01*
X583338Y208951D02*
X588735Y202601D01*
X582385Y202601D01*
X1040333Y202601D02*
X1040333Y214031D01*
X1040333Y202601D02*
X1035253Y202601D01*
X1030427Y202601D02*
X1025347Y202601D01*
X1030427Y202601D02*
X1030427Y214031D01*
X1025347Y214031D01*
X1026617Y208951D02*
X1030427Y208951D01*
X1020546Y214031D02*
X1020546Y202601D01*
X1020546Y214031D02*
X1017371Y214031D01*
X1017260Y214029D01*
X1017150Y214023D01*
X1017039Y214014D01*
X1016929Y214000D01*
X1016820Y213983D01*
X1016711Y213962D01*
X1016603Y213937D01*
X1016496Y213908D01*
X1016390Y213876D01*
X1016285Y213840D01*
X1016182Y213800D01*
X1016080Y213757D01*
X1015979Y213710D01*
X1015880Y213659D01*
X1015784Y213606D01*
X1015689Y213549D01*
X1015596Y213488D01*
X1015505Y213425D01*
X1015416Y213358D01*
X1015330Y213288D01*
X1015247Y213215D01*
X1015165Y213140D01*
X1015087Y213062D01*
X1015012Y212980D01*
X1014939Y212897D01*
X1014869Y212811D01*
X1014802Y212722D01*
X1014739Y212631D01*
X1014678Y212538D01*
X1014621Y212444D01*
X1014568Y212347D01*
X1014517Y212248D01*
X1014470Y212147D01*
X1014427Y212045D01*
X1014387Y211942D01*
X1014351Y211837D01*
X1014319Y211731D01*
X1014290Y211624D01*
X1014265Y211516D01*
X1014244Y211407D01*
X1014227Y211298D01*
X1014213Y211188D01*
X1014204Y211077D01*
X1014198Y210967D01*
X1014196Y210856D01*
X1014196Y205776D01*
X1014198Y205665D01*
X1014204Y205555D01*
X1014213Y205444D01*
X1014227Y205334D01*
X1014244Y205225D01*
X1014265Y205116D01*
X1014290Y205008D01*
X1014319Y204901D01*
X1014351Y204795D01*
X1014387Y204690D01*
X1014427Y204587D01*
X1014470Y204485D01*
X1014517Y204384D01*
X1014568Y204285D01*
X1014621Y204189D01*
X1014678Y204094D01*
X1014739Y204001D01*
X1014802Y203910D01*
X1014869Y203821D01*
X1014939Y203735D01*
X1015012Y203652D01*
X1015087Y203570D01*
X1015165Y203492D01*
X1015247Y203417D01*
X1015330Y203344D01*
X1015416Y203274D01*
X1015505Y203207D01*
X1015596Y203144D01*
X1015689Y203083D01*
X1015784Y203026D01*
X1015880Y202973D01*
X1015979Y202922D01*
X1016080Y202875D01*
X1016182Y202832D01*
X1016285Y202792D01*
X1016390Y202756D01*
X1016496Y202724D01*
X1016603Y202695D01*
X1016711Y202670D01*
X1016820Y202649D01*
X1016929Y202632D01*
X1017039Y202618D01*
X1017150Y202609D01*
X1017260Y202603D01*
X1017371Y202601D01*
X1020546Y202601D01*
X1008735Y202601D02*
X1005560Y202601D01*
X1005449Y202603D01*
X1005339Y202609D01*
X1005228Y202618D01*
X1005118Y202632D01*
X1005009Y202649D01*
X1004900Y202670D01*
X1004792Y202695D01*
X1004685Y202724D01*
X1004579Y202756D01*
X1004474Y202792D01*
X1004371Y202832D01*
X1004269Y202875D01*
X1004168Y202922D01*
X1004069Y202973D01*
X1003973Y203026D01*
X1003878Y203083D01*
X1003785Y203144D01*
X1003694Y203207D01*
X1003605Y203274D01*
X1003519Y203344D01*
X1003436Y203417D01*
X1003354Y203492D01*
X1003276Y203570D01*
X1003201Y203652D01*
X1003128Y203735D01*
X1003058Y203821D01*
X1002991Y203910D01*
X1002928Y204001D01*
X1002867Y204094D01*
X1002810Y204189D01*
X1002757Y204285D01*
X1002706Y204384D01*
X1002659Y204485D01*
X1002616Y204587D01*
X1002576Y204690D01*
X1002540Y204795D01*
X1002508Y204901D01*
X1002479Y205008D01*
X1002454Y205116D01*
X1002433Y205225D01*
X1002416Y205334D01*
X1002402Y205444D01*
X1002393Y205555D01*
X1002387Y205665D01*
X1002385Y205776D01*
X1002387Y205887D01*
X1002393Y205997D01*
X1002402Y206108D01*
X1002416Y206218D01*
X1002433Y206327D01*
X1002454Y206436D01*
X1002479Y206544D01*
X1002508Y206651D01*
X1002540Y206757D01*
X1002576Y206862D01*
X1002616Y206965D01*
X1002659Y207067D01*
X1002706Y207168D01*
X1002757Y207267D01*
X1002810Y207364D01*
X1002867Y207458D01*
X1002928Y207551D01*
X1002991Y207642D01*
X1003058Y207731D01*
X1003128Y207817D01*
X1003201Y207900D01*
X1003276Y207982D01*
X1003354Y208060D01*
X1003436Y208135D01*
X1003519Y208208D01*
X1003605Y208278D01*
X1003694Y208345D01*
X1003785Y208408D01*
X1003878Y208469D01*
X1003973Y208526D01*
X1004069Y208579D01*
X1004168Y208630D01*
X1004269Y208677D01*
X1004371Y208720D01*
X1004474Y208760D01*
X1004579Y208796D01*
X1004685Y208828D01*
X1004792Y208857D01*
X1004900Y208882D01*
X1005009Y208903D01*
X1005118Y208920D01*
X1005228Y208934D01*
X1005339Y208943D01*
X1005449Y208949D01*
X1005560Y208951D01*
X1004925Y214031D02*
X1008735Y214031D01*
X1004925Y214031D02*
X1004825Y214029D01*
X1004726Y214023D01*
X1004626Y214013D01*
X1004528Y214000D01*
X1004429Y213982D01*
X1004332Y213961D01*
X1004236Y213936D01*
X1004140Y213907D01*
X1004046Y213874D01*
X1003953Y213838D01*
X1003862Y213798D01*
X1003772Y213754D01*
X1003684Y213707D01*
X1003598Y213657D01*
X1003514Y213603D01*
X1003432Y213546D01*
X1003353Y213486D01*
X1003275Y213422D01*
X1003201Y213356D01*
X1003129Y213287D01*
X1003060Y213215D01*
X1002994Y213141D01*
X1002930Y213063D01*
X1002870Y212984D01*
X1002813Y212902D01*
X1002759Y212818D01*
X1002709Y212732D01*
X1002662Y212644D01*
X1002618Y212554D01*
X1002578Y212463D01*
X1002542Y212370D01*
X1002509Y212276D01*
X1002480Y212180D01*
X1002455Y212084D01*
X1002434Y211987D01*
X1002416Y211888D01*
X1002403Y211790D01*
X1002393Y211690D01*
X1002387Y211591D01*
X1002385Y211491D01*
X1002387Y211391D01*
X1002393Y211292D01*
X1002403Y211192D01*
X1002416Y211094D01*
X1002434Y210995D01*
X1002455Y210898D01*
X1002480Y210802D01*
X1002509Y210706D01*
X1002542Y210612D01*
X1002578Y210519D01*
X1002618Y210428D01*
X1002662Y210338D01*
X1002709Y210250D01*
X1002759Y210164D01*
X1002813Y210080D01*
X1002870Y209998D01*
X1002930Y209919D01*
X1002994Y209841D01*
X1003060Y209767D01*
X1003129Y209695D01*
X1003201Y209626D01*
X1003275Y209560D01*
X1003353Y209496D01*
X1003432Y209436D01*
X1003514Y209379D01*
X1003598Y209325D01*
X1003684Y209275D01*
X1003772Y209228D01*
X1003862Y209184D01*
X1003953Y209144D01*
X1004046Y209108D01*
X1004140Y209075D01*
X1004236Y209046D01*
X1004332Y209021D01*
X1004429Y209000D01*
X1004528Y208982D01*
X1004626Y208969D01*
X1004726Y208959D01*
X1004825Y208953D01*
X1004925Y208951D01*
X1007465Y208951D01*
X1460333Y214031D02*
X1460333Y202601D01*
X1455253Y202601D01*
X1450427Y202601D02*
X1445347Y202601D01*
X1450427Y202601D02*
X1450427Y214031D01*
X1445347Y214031D01*
X1446617Y208951D02*
X1450427Y208951D01*
X1440546Y214031D02*
X1440546Y202601D01*
X1440546Y214031D02*
X1437371Y214031D01*
X1437260Y214029D01*
X1437150Y214023D01*
X1437039Y214014D01*
X1436929Y214000D01*
X1436820Y213983D01*
X1436711Y213962D01*
X1436603Y213937D01*
X1436496Y213908D01*
X1436390Y213876D01*
X1436285Y213840D01*
X1436182Y213800D01*
X1436080Y213757D01*
X1435979Y213710D01*
X1435880Y213659D01*
X1435784Y213606D01*
X1435689Y213549D01*
X1435596Y213488D01*
X1435505Y213425D01*
X1435416Y213358D01*
X1435330Y213288D01*
X1435247Y213215D01*
X1435165Y213140D01*
X1435087Y213062D01*
X1435012Y212980D01*
X1434939Y212897D01*
X1434869Y212811D01*
X1434802Y212722D01*
X1434739Y212631D01*
X1434678Y212538D01*
X1434621Y212444D01*
X1434568Y212347D01*
X1434517Y212248D01*
X1434470Y212147D01*
X1434427Y212045D01*
X1434387Y211942D01*
X1434351Y211837D01*
X1434319Y211731D01*
X1434290Y211624D01*
X1434265Y211516D01*
X1434244Y211407D01*
X1434227Y211298D01*
X1434213Y211188D01*
X1434204Y211077D01*
X1434198Y210967D01*
X1434196Y210856D01*
X1434196Y205776D01*
X1434198Y205665D01*
X1434204Y205555D01*
X1434213Y205444D01*
X1434227Y205334D01*
X1434244Y205225D01*
X1434265Y205116D01*
X1434290Y205008D01*
X1434319Y204901D01*
X1434351Y204795D01*
X1434387Y204690D01*
X1434427Y204587D01*
X1434470Y204485D01*
X1434517Y204384D01*
X1434568Y204285D01*
X1434621Y204189D01*
X1434678Y204094D01*
X1434739Y204001D01*
X1434802Y203910D01*
X1434869Y203821D01*
X1434939Y203735D01*
X1435012Y203652D01*
X1435087Y203570D01*
X1435165Y203492D01*
X1435247Y203417D01*
X1435330Y203344D01*
X1435416Y203274D01*
X1435505Y203207D01*
X1435596Y203144D01*
X1435689Y203083D01*
X1435784Y203026D01*
X1435880Y202973D01*
X1435979Y202922D01*
X1436080Y202875D01*
X1436182Y202832D01*
X1436285Y202792D01*
X1436390Y202756D01*
X1436496Y202724D01*
X1436603Y202695D01*
X1436711Y202670D01*
X1436820Y202649D01*
X1436929Y202632D01*
X1437039Y202618D01*
X1437150Y202609D01*
X1437260Y202603D01*
X1437371Y202601D01*
X1440546Y202601D01*
X1428735Y205141D02*
X1426195Y214031D01*
X1428735Y205141D02*
X1422385Y205141D01*
X1424290Y207681D02*
X1424290Y202601D01*
X1880333Y202601D02*
X1880333Y214031D01*
X1880333Y202601D02*
X1875253Y202601D01*
X1870427Y202601D02*
X1865347Y202601D01*
X1870427Y202601D02*
X1870427Y214031D01*
X1865347Y214031D01*
X1866617Y208951D02*
X1870427Y208951D01*
X1860546Y214031D02*
X1860546Y202601D01*
X1860546Y214031D02*
X1857371Y214031D01*
X1857260Y214029D01*
X1857150Y214023D01*
X1857039Y214014D01*
X1856929Y214000D01*
X1856820Y213983D01*
X1856711Y213962D01*
X1856603Y213937D01*
X1856496Y213908D01*
X1856390Y213876D01*
X1856285Y213840D01*
X1856182Y213800D01*
X1856080Y213757D01*
X1855979Y213710D01*
X1855880Y213659D01*
X1855784Y213606D01*
X1855689Y213549D01*
X1855596Y213488D01*
X1855505Y213425D01*
X1855416Y213358D01*
X1855330Y213288D01*
X1855247Y213215D01*
X1855165Y213140D01*
X1855087Y213062D01*
X1855012Y212980D01*
X1854939Y212897D01*
X1854869Y212811D01*
X1854802Y212722D01*
X1854739Y212631D01*
X1854678Y212538D01*
X1854621Y212444D01*
X1854568Y212347D01*
X1854517Y212248D01*
X1854470Y212147D01*
X1854427Y212045D01*
X1854387Y211942D01*
X1854351Y211837D01*
X1854319Y211731D01*
X1854290Y211624D01*
X1854265Y211516D01*
X1854244Y211407D01*
X1854227Y211298D01*
X1854213Y211188D01*
X1854204Y211077D01*
X1854198Y210967D01*
X1854196Y210856D01*
X1854196Y205776D01*
X1854198Y205665D01*
X1854204Y205555D01*
X1854213Y205444D01*
X1854227Y205334D01*
X1854244Y205225D01*
X1854265Y205116D01*
X1854290Y205008D01*
X1854319Y204901D01*
X1854351Y204795D01*
X1854387Y204690D01*
X1854427Y204587D01*
X1854470Y204485D01*
X1854517Y204384D01*
X1854568Y204285D01*
X1854621Y204189D01*
X1854678Y204094D01*
X1854739Y204001D01*
X1854802Y203910D01*
X1854869Y203821D01*
X1854939Y203735D01*
X1855012Y203652D01*
X1855087Y203570D01*
X1855165Y203492D01*
X1855247Y203417D01*
X1855330Y203344D01*
X1855416Y203274D01*
X1855505Y203207D01*
X1855596Y203144D01*
X1855689Y203083D01*
X1855784Y203026D01*
X1855880Y202973D01*
X1855979Y202922D01*
X1856080Y202875D01*
X1856182Y202832D01*
X1856285Y202792D01*
X1856390Y202756D01*
X1856496Y202724D01*
X1856603Y202695D01*
X1856711Y202670D01*
X1856820Y202649D01*
X1856929Y202632D01*
X1857039Y202618D01*
X1857150Y202609D01*
X1857260Y202603D01*
X1857371Y202601D01*
X1860546Y202601D01*
X1848735Y202601D02*
X1844925Y202601D01*
X1844825Y202603D01*
X1844726Y202609D01*
X1844626Y202619D01*
X1844528Y202632D01*
X1844429Y202650D01*
X1844332Y202671D01*
X1844236Y202696D01*
X1844140Y202725D01*
X1844046Y202758D01*
X1843953Y202794D01*
X1843862Y202834D01*
X1843772Y202878D01*
X1843684Y202925D01*
X1843598Y202975D01*
X1843514Y203029D01*
X1843432Y203086D01*
X1843353Y203146D01*
X1843275Y203210D01*
X1843201Y203276D01*
X1843129Y203345D01*
X1843060Y203417D01*
X1842994Y203491D01*
X1842930Y203569D01*
X1842870Y203648D01*
X1842813Y203730D01*
X1842759Y203814D01*
X1842709Y203900D01*
X1842662Y203988D01*
X1842618Y204078D01*
X1842578Y204169D01*
X1842542Y204262D01*
X1842509Y204356D01*
X1842480Y204452D01*
X1842455Y204548D01*
X1842434Y204645D01*
X1842416Y204744D01*
X1842403Y204842D01*
X1842393Y204942D01*
X1842387Y205041D01*
X1842385Y205141D01*
X1842385Y206411D01*
X1842387Y206511D01*
X1842393Y206610D01*
X1842403Y206710D01*
X1842416Y206808D01*
X1842434Y206907D01*
X1842455Y207004D01*
X1842480Y207100D01*
X1842509Y207196D01*
X1842542Y207290D01*
X1842578Y207383D01*
X1842618Y207474D01*
X1842662Y207564D01*
X1842709Y207652D01*
X1842759Y207738D01*
X1842813Y207822D01*
X1842870Y207904D01*
X1842930Y207983D01*
X1842994Y208061D01*
X1843060Y208135D01*
X1843129Y208207D01*
X1843201Y208276D01*
X1843275Y208342D01*
X1843353Y208406D01*
X1843432Y208466D01*
X1843514Y208523D01*
X1843598Y208577D01*
X1843684Y208627D01*
X1843772Y208674D01*
X1843862Y208718D01*
X1843953Y208758D01*
X1844046Y208794D01*
X1844140Y208827D01*
X1844236Y208856D01*
X1844332Y208881D01*
X1844429Y208902D01*
X1844528Y208920D01*
X1844626Y208933D01*
X1844726Y208943D01*
X1844825Y208949D01*
X1844925Y208951D01*
X1848735Y208951D01*
X1848735Y214031D01*
X1842385Y214031D01*
X2300333Y214031D02*
X2300333Y202601D01*
X2295253Y202601D01*
X2290427Y202601D02*
X2285347Y202601D01*
X2290427Y202601D02*
X2290427Y214031D01*
X2285347Y214031D01*
X2286617Y208951D02*
X2290427Y208951D01*
X2280546Y214031D02*
X2280546Y202601D01*
X2280546Y214031D02*
X2277371Y214031D01*
X2277260Y214029D01*
X2277150Y214023D01*
X2277039Y214014D01*
X2276929Y214000D01*
X2276820Y213983D01*
X2276711Y213962D01*
X2276603Y213937D01*
X2276496Y213908D01*
X2276390Y213876D01*
X2276285Y213840D01*
X2276182Y213800D01*
X2276080Y213757D01*
X2275979Y213710D01*
X2275880Y213659D01*
X2275784Y213606D01*
X2275689Y213549D01*
X2275596Y213488D01*
X2275505Y213425D01*
X2275416Y213358D01*
X2275330Y213288D01*
X2275247Y213215D01*
X2275165Y213140D01*
X2275087Y213062D01*
X2275012Y212980D01*
X2274939Y212897D01*
X2274869Y212811D01*
X2274802Y212722D01*
X2274739Y212631D01*
X2274678Y212538D01*
X2274621Y212444D01*
X2274568Y212347D01*
X2274517Y212248D01*
X2274470Y212147D01*
X2274427Y212045D01*
X2274387Y211942D01*
X2274351Y211837D01*
X2274319Y211731D01*
X2274290Y211624D01*
X2274265Y211516D01*
X2274244Y211407D01*
X2274227Y211298D01*
X2274213Y211188D01*
X2274204Y211077D01*
X2274198Y210967D01*
X2274196Y210856D01*
X2274196Y205776D01*
X2274198Y205665D01*
X2274204Y205555D01*
X2274213Y205444D01*
X2274227Y205334D01*
X2274244Y205225D01*
X2274265Y205116D01*
X2274290Y205008D01*
X2274319Y204901D01*
X2274351Y204795D01*
X2274387Y204690D01*
X2274427Y204587D01*
X2274470Y204485D01*
X2274517Y204384D01*
X2274568Y204285D01*
X2274621Y204189D01*
X2274678Y204094D01*
X2274739Y204001D01*
X2274802Y203910D01*
X2274869Y203821D01*
X2274939Y203735D01*
X2275012Y203652D01*
X2275087Y203570D01*
X2275165Y203492D01*
X2275247Y203417D01*
X2275330Y203344D01*
X2275416Y203274D01*
X2275505Y203207D01*
X2275596Y203144D01*
X2275689Y203083D01*
X2275784Y203026D01*
X2275880Y202973D01*
X2275979Y202922D01*
X2276080Y202875D01*
X2276182Y202832D01*
X2276285Y202792D01*
X2276390Y202756D01*
X2276496Y202724D01*
X2276603Y202695D01*
X2276711Y202670D01*
X2276820Y202649D01*
X2276929Y202632D01*
X2277039Y202618D01*
X2277150Y202609D01*
X2277260Y202603D01*
X2277371Y202601D01*
X2280546Y202601D01*
X2268735Y208951D02*
X2264925Y208951D01*
X2264825Y208949D01*
X2264726Y208943D01*
X2264626Y208933D01*
X2264528Y208920D01*
X2264429Y208902D01*
X2264332Y208881D01*
X2264236Y208856D01*
X2264140Y208827D01*
X2264046Y208794D01*
X2263953Y208758D01*
X2263862Y208718D01*
X2263772Y208674D01*
X2263684Y208627D01*
X2263598Y208577D01*
X2263514Y208523D01*
X2263432Y208466D01*
X2263353Y208406D01*
X2263275Y208342D01*
X2263201Y208276D01*
X2263129Y208207D01*
X2263060Y208135D01*
X2262994Y208061D01*
X2262930Y207983D01*
X2262870Y207904D01*
X2262813Y207822D01*
X2262759Y207738D01*
X2262709Y207652D01*
X2262662Y207564D01*
X2262618Y207474D01*
X2262578Y207383D01*
X2262542Y207290D01*
X2262509Y207196D01*
X2262480Y207100D01*
X2262455Y207004D01*
X2262434Y206907D01*
X2262416Y206808D01*
X2262403Y206710D01*
X2262393Y206610D01*
X2262387Y206511D01*
X2262385Y206411D01*
X2262385Y205776D01*
X2262387Y205665D01*
X2262393Y205555D01*
X2262402Y205444D01*
X2262416Y205334D01*
X2262433Y205225D01*
X2262454Y205116D01*
X2262479Y205008D01*
X2262508Y204901D01*
X2262540Y204795D01*
X2262576Y204690D01*
X2262616Y204587D01*
X2262659Y204485D01*
X2262706Y204384D01*
X2262757Y204285D01*
X2262810Y204189D01*
X2262867Y204094D01*
X2262928Y204001D01*
X2262991Y203910D01*
X2263058Y203821D01*
X2263128Y203735D01*
X2263201Y203652D01*
X2263276Y203570D01*
X2263354Y203492D01*
X2263436Y203417D01*
X2263519Y203344D01*
X2263605Y203274D01*
X2263694Y203207D01*
X2263785Y203144D01*
X2263878Y203083D01*
X2263973Y203026D01*
X2264069Y202973D01*
X2264168Y202922D01*
X2264269Y202875D01*
X2264371Y202832D01*
X2264474Y202792D01*
X2264579Y202756D01*
X2264685Y202724D01*
X2264792Y202695D01*
X2264900Y202670D01*
X2265009Y202649D01*
X2265118Y202632D01*
X2265228Y202618D01*
X2265339Y202609D01*
X2265449Y202603D01*
X2265560Y202601D01*
X2265671Y202603D01*
X2265781Y202609D01*
X2265892Y202618D01*
X2266002Y202632D01*
X2266111Y202649D01*
X2266220Y202670D01*
X2266328Y202695D01*
X2266435Y202724D01*
X2266541Y202756D01*
X2266646Y202792D01*
X2266749Y202832D01*
X2266851Y202875D01*
X2266952Y202922D01*
X2267051Y202973D01*
X2267148Y203026D01*
X2267242Y203083D01*
X2267335Y203144D01*
X2267426Y203207D01*
X2267515Y203274D01*
X2267601Y203344D01*
X2267684Y203417D01*
X2267766Y203492D01*
X2267844Y203570D01*
X2267919Y203652D01*
X2267992Y203735D01*
X2268062Y203821D01*
X2268129Y203910D01*
X2268192Y204001D01*
X2268253Y204094D01*
X2268310Y204188D01*
X2268363Y204285D01*
X2268414Y204384D01*
X2268461Y204485D01*
X2268504Y204587D01*
X2268544Y204690D01*
X2268580Y204795D01*
X2268612Y204901D01*
X2268641Y205008D01*
X2268666Y205116D01*
X2268687Y205225D01*
X2268704Y205334D01*
X2268718Y205444D01*
X2268727Y205555D01*
X2268733Y205665D01*
X2268735Y205776D01*
X2268735Y208951D01*
X2268733Y209091D01*
X2268727Y209231D01*
X2268718Y209371D01*
X2268704Y209510D01*
X2268687Y209649D01*
X2268666Y209787D01*
X2268641Y209925D01*
X2268612Y210062D01*
X2268580Y210198D01*
X2268543Y210333D01*
X2268503Y210467D01*
X2268460Y210600D01*
X2268412Y210732D01*
X2268362Y210863D01*
X2268307Y210992D01*
X2268249Y211119D01*
X2268188Y211245D01*
X2268123Y211369D01*
X2268054Y211491D01*
X2267983Y211611D01*
X2267908Y211729D01*
X2267830Y211846D01*
X2267748Y211960D01*
X2267664Y212071D01*
X2267576Y212180D01*
X2267486Y212287D01*
X2267392Y212392D01*
X2267296Y212493D01*
X2267197Y212592D01*
X2267096Y212688D01*
X2266991Y212782D01*
X2266884Y212872D01*
X2266775Y212960D01*
X2266664Y213044D01*
X2266550Y213126D01*
X2266433Y213204D01*
X2266315Y213279D01*
X2266195Y213350D01*
X2266073Y213419D01*
X2265949Y213484D01*
X2265823Y213545D01*
X2265696Y213603D01*
X2265567Y213658D01*
X2265436Y213708D01*
X2265304Y213756D01*
X2265171Y213799D01*
X2265037Y213839D01*
X2264902Y213876D01*
X2264766Y213908D01*
X2264629Y213937D01*
X2264491Y213962D01*
X2264353Y213983D01*
X2264214Y214000D01*
X2264075Y214014D01*
X2263935Y214023D01*
X2263795Y214029D01*
X2263655Y214031D01*
X2720333Y214031D02*
X2720333Y202601D01*
X2715253Y202601D01*
X2710427Y202601D02*
X2705347Y202601D01*
X2710427Y202601D02*
X2710427Y214031D01*
X2705347Y214031D01*
X2706617Y208951D02*
X2710427Y208951D01*
X2700546Y214031D02*
X2700546Y202601D01*
X2700546Y214031D02*
X2697371Y214031D01*
X2697260Y214029D01*
X2697150Y214023D01*
X2697039Y214014D01*
X2696929Y214000D01*
X2696820Y213983D01*
X2696711Y213962D01*
X2696603Y213937D01*
X2696496Y213908D01*
X2696390Y213876D01*
X2696285Y213840D01*
X2696182Y213800D01*
X2696080Y213757D01*
X2695979Y213710D01*
X2695880Y213659D01*
X2695784Y213606D01*
X2695689Y213549D01*
X2695596Y213488D01*
X2695505Y213425D01*
X2695416Y213358D01*
X2695330Y213288D01*
X2695247Y213215D01*
X2695165Y213140D01*
X2695087Y213062D01*
X2695012Y212980D01*
X2694939Y212897D01*
X2694869Y212811D01*
X2694802Y212722D01*
X2694739Y212631D01*
X2694678Y212538D01*
X2694621Y212444D01*
X2694568Y212347D01*
X2694517Y212248D01*
X2694470Y212147D01*
X2694427Y212045D01*
X2694387Y211942D01*
X2694351Y211837D01*
X2694319Y211731D01*
X2694290Y211624D01*
X2694265Y211516D01*
X2694244Y211407D01*
X2694227Y211298D01*
X2694213Y211188D01*
X2694204Y211077D01*
X2694198Y210967D01*
X2694196Y210856D01*
X2694196Y205776D01*
X2694198Y205665D01*
X2694204Y205555D01*
X2694213Y205444D01*
X2694227Y205334D01*
X2694244Y205225D01*
X2694265Y205116D01*
X2694290Y205008D01*
X2694319Y204901D01*
X2694351Y204795D01*
X2694387Y204690D01*
X2694427Y204587D01*
X2694470Y204485D01*
X2694517Y204384D01*
X2694568Y204285D01*
X2694621Y204189D01*
X2694678Y204094D01*
X2694739Y204001D01*
X2694802Y203910D01*
X2694869Y203821D01*
X2694939Y203735D01*
X2695012Y203652D01*
X2695087Y203570D01*
X2695165Y203492D01*
X2695247Y203417D01*
X2695330Y203344D01*
X2695416Y203274D01*
X2695505Y203207D01*
X2695596Y203144D01*
X2695689Y203083D01*
X2695784Y203026D01*
X2695880Y202973D01*
X2695979Y202922D01*
X2696080Y202875D01*
X2696182Y202832D01*
X2696285Y202792D01*
X2696390Y202756D01*
X2696496Y202724D01*
X2696603Y202695D01*
X2696711Y202670D01*
X2696820Y202649D01*
X2696929Y202632D01*
X2697039Y202618D01*
X2697150Y202609D01*
X2697260Y202603D01*
X2697371Y202601D01*
X2700546Y202601D01*
X2688735Y212761D02*
X2688735Y214031D01*
X2682385Y214031D01*
X2685560Y202601D01*
D13*
X234892Y112808D02*
X223208Y112808D01*
X234892Y112808D02*
X234892Y116054D01*
X234890Y116167D01*
X234884Y116280D01*
X234874Y116393D01*
X234860Y116506D01*
X234843Y116618D01*
X234821Y116729D01*
X234796Y116839D01*
X234766Y116949D01*
X234733Y117057D01*
X234696Y117164D01*
X234656Y117270D01*
X234611Y117374D01*
X234563Y117477D01*
X234512Y117578D01*
X234457Y117677D01*
X234399Y117774D01*
X234337Y117869D01*
X234272Y117962D01*
X234204Y118052D01*
X234133Y118140D01*
X234058Y118226D01*
X233981Y118309D01*
X233901Y118389D01*
X233818Y118466D01*
X233732Y118541D01*
X233644Y118612D01*
X233554Y118680D01*
X233461Y118745D01*
X233366Y118807D01*
X233269Y118865D01*
X233170Y118920D01*
X233069Y118971D01*
X232966Y119019D01*
X232862Y119064D01*
X232756Y119104D01*
X232649Y119141D01*
X232541Y119174D01*
X232431Y119204D01*
X232321Y119229D01*
X232210Y119251D01*
X232098Y119268D01*
X231985Y119282D01*
X231872Y119292D01*
X231759Y119298D01*
X231646Y119300D01*
X231533Y119298D01*
X231420Y119292D01*
X231307Y119282D01*
X231194Y119268D01*
X231082Y119251D01*
X230971Y119229D01*
X230861Y119204D01*
X230751Y119174D01*
X230643Y119141D01*
X230536Y119104D01*
X230430Y119064D01*
X230326Y119019D01*
X230223Y118971D01*
X230122Y118920D01*
X230023Y118865D01*
X229926Y118807D01*
X229831Y118745D01*
X229738Y118680D01*
X229648Y118612D01*
X229560Y118541D01*
X229474Y118466D01*
X229391Y118389D01*
X229311Y118309D01*
X229234Y118226D01*
X229159Y118140D01*
X229088Y118052D01*
X229020Y117962D01*
X228955Y117869D01*
X228893Y117774D01*
X228835Y117677D01*
X228780Y117578D01*
X228729Y117477D01*
X228681Y117374D01*
X228636Y117270D01*
X228596Y117164D01*
X228559Y117057D01*
X228526Y116949D01*
X228496Y116839D01*
X228471Y116729D01*
X228449Y116618D01*
X228432Y116506D01*
X228418Y116393D01*
X228408Y116280D01*
X228402Y116167D01*
X228400Y116054D01*
X228401Y116054D02*
X228401Y112808D01*
X228401Y116703D02*
X223208Y119299D01*
X232296Y124164D02*
X234892Y127410D01*
X223208Y127410D01*
X223208Y130655D02*
X223208Y124164D01*
X643208Y112808D02*
X654892Y112808D01*
X654892Y116054D01*
X654890Y116167D01*
X654884Y116280D01*
X654874Y116393D01*
X654860Y116506D01*
X654843Y116618D01*
X654821Y116729D01*
X654796Y116839D01*
X654766Y116949D01*
X654733Y117057D01*
X654696Y117164D01*
X654656Y117270D01*
X654611Y117374D01*
X654563Y117477D01*
X654512Y117578D01*
X654457Y117677D01*
X654399Y117774D01*
X654337Y117869D01*
X654272Y117962D01*
X654204Y118052D01*
X654133Y118140D01*
X654058Y118226D01*
X653981Y118309D01*
X653901Y118389D01*
X653818Y118466D01*
X653732Y118541D01*
X653644Y118612D01*
X653554Y118680D01*
X653461Y118745D01*
X653366Y118807D01*
X653269Y118865D01*
X653170Y118920D01*
X653069Y118971D01*
X652966Y119019D01*
X652862Y119064D01*
X652756Y119104D01*
X652649Y119141D01*
X652541Y119174D01*
X652431Y119204D01*
X652321Y119229D01*
X652210Y119251D01*
X652098Y119268D01*
X651985Y119282D01*
X651872Y119292D01*
X651759Y119298D01*
X651646Y119300D01*
X651533Y119298D01*
X651420Y119292D01*
X651307Y119282D01*
X651194Y119268D01*
X651082Y119251D01*
X650971Y119229D01*
X650861Y119204D01*
X650751Y119174D01*
X650643Y119141D01*
X650536Y119104D01*
X650430Y119064D01*
X650326Y119019D01*
X650223Y118971D01*
X650122Y118920D01*
X650023Y118865D01*
X649926Y118807D01*
X649831Y118745D01*
X649738Y118680D01*
X649648Y118612D01*
X649560Y118541D01*
X649474Y118466D01*
X649391Y118389D01*
X649311Y118309D01*
X649234Y118226D01*
X649159Y118140D01*
X649088Y118052D01*
X649020Y117962D01*
X648955Y117869D01*
X648893Y117774D01*
X648835Y117677D01*
X648780Y117578D01*
X648729Y117477D01*
X648681Y117374D01*
X648636Y117270D01*
X648596Y117164D01*
X648559Y117057D01*
X648526Y116949D01*
X648496Y116839D01*
X648471Y116729D01*
X648449Y116618D01*
X648432Y116506D01*
X648418Y116393D01*
X648408Y116280D01*
X648402Y116167D01*
X648400Y116054D01*
X648401Y116054D02*
X648401Y112808D01*
X648401Y116703D02*
X643208Y119299D01*
X651971Y130655D02*
X652078Y130653D01*
X652184Y130647D01*
X652290Y130637D01*
X652396Y130624D01*
X652502Y130606D01*
X652606Y130585D01*
X652710Y130560D01*
X652813Y130531D01*
X652914Y130499D01*
X653014Y130462D01*
X653113Y130422D01*
X653211Y130379D01*
X653307Y130332D01*
X653401Y130281D01*
X653493Y130227D01*
X653583Y130170D01*
X653671Y130110D01*
X653756Y130046D01*
X653839Y129979D01*
X653920Y129909D01*
X653998Y129837D01*
X654074Y129761D01*
X654146Y129683D01*
X654216Y129602D01*
X654283Y129519D01*
X654347Y129434D01*
X654407Y129346D01*
X654464Y129256D01*
X654518Y129164D01*
X654569Y129070D01*
X654616Y128974D01*
X654659Y128876D01*
X654699Y128777D01*
X654736Y128677D01*
X654768Y128576D01*
X654797Y128473D01*
X654822Y128369D01*
X654843Y128265D01*
X654861Y128159D01*
X654874Y128053D01*
X654884Y127947D01*
X654890Y127841D01*
X654892Y127734D01*
X654890Y127613D01*
X654884Y127492D01*
X654874Y127372D01*
X654861Y127251D01*
X654843Y127132D01*
X654822Y127012D01*
X654797Y126894D01*
X654768Y126777D01*
X654735Y126660D01*
X654699Y126545D01*
X654658Y126431D01*
X654615Y126318D01*
X654567Y126206D01*
X654516Y126097D01*
X654461Y125989D01*
X654403Y125882D01*
X654342Y125778D01*
X654277Y125676D01*
X654209Y125576D01*
X654138Y125478D01*
X654064Y125382D01*
X653987Y125289D01*
X653906Y125199D01*
X653823Y125111D01*
X653737Y125026D01*
X653648Y124943D01*
X653557Y124864D01*
X653463Y124787D01*
X653367Y124714D01*
X653269Y124644D01*
X653168Y124577D01*
X653065Y124513D01*
X652960Y124453D01*
X652853Y124396D01*
X652745Y124342D01*
X652635Y124292D01*
X652523Y124246D01*
X652410Y124203D01*
X652295Y124164D01*
X649699Y129682D02*
X649776Y129761D01*
X649857Y129837D01*
X649940Y129910D01*
X650025Y129980D01*
X650113Y130047D01*
X650203Y130111D01*
X650295Y130171D01*
X650390Y130228D01*
X650486Y130282D01*
X650584Y130333D01*
X650684Y130380D01*
X650786Y130424D01*
X650889Y130464D01*
X650993Y130500D01*
X651099Y130532D01*
X651205Y130561D01*
X651313Y130586D01*
X651421Y130608D01*
X651531Y130625D01*
X651640Y130639D01*
X651750Y130648D01*
X651861Y130654D01*
X651971Y130656D01*
X649699Y129682D02*
X643208Y124164D01*
X643208Y130655D01*
X1063208Y112808D02*
X1074892Y112808D01*
X1074892Y116054D01*
X1074890Y116167D01*
X1074884Y116280D01*
X1074874Y116393D01*
X1074860Y116506D01*
X1074843Y116618D01*
X1074821Y116729D01*
X1074796Y116839D01*
X1074766Y116949D01*
X1074733Y117057D01*
X1074696Y117164D01*
X1074656Y117270D01*
X1074611Y117374D01*
X1074563Y117477D01*
X1074512Y117578D01*
X1074457Y117677D01*
X1074399Y117774D01*
X1074337Y117869D01*
X1074272Y117962D01*
X1074204Y118052D01*
X1074133Y118140D01*
X1074058Y118226D01*
X1073981Y118309D01*
X1073901Y118389D01*
X1073818Y118466D01*
X1073732Y118541D01*
X1073644Y118612D01*
X1073554Y118680D01*
X1073461Y118745D01*
X1073366Y118807D01*
X1073269Y118865D01*
X1073170Y118920D01*
X1073069Y118971D01*
X1072966Y119019D01*
X1072862Y119064D01*
X1072756Y119104D01*
X1072649Y119141D01*
X1072541Y119174D01*
X1072431Y119204D01*
X1072321Y119229D01*
X1072210Y119251D01*
X1072098Y119268D01*
X1071985Y119282D01*
X1071872Y119292D01*
X1071759Y119298D01*
X1071646Y119300D01*
X1071533Y119298D01*
X1071420Y119292D01*
X1071307Y119282D01*
X1071194Y119268D01*
X1071082Y119251D01*
X1070971Y119229D01*
X1070861Y119204D01*
X1070751Y119174D01*
X1070643Y119141D01*
X1070536Y119104D01*
X1070430Y119064D01*
X1070326Y119019D01*
X1070223Y118971D01*
X1070122Y118920D01*
X1070023Y118865D01*
X1069926Y118807D01*
X1069831Y118745D01*
X1069738Y118680D01*
X1069648Y118612D01*
X1069560Y118541D01*
X1069474Y118466D01*
X1069391Y118389D01*
X1069311Y118309D01*
X1069234Y118226D01*
X1069159Y118140D01*
X1069088Y118052D01*
X1069020Y117962D01*
X1068955Y117869D01*
X1068893Y117774D01*
X1068835Y117677D01*
X1068780Y117578D01*
X1068729Y117477D01*
X1068681Y117374D01*
X1068636Y117270D01*
X1068596Y117164D01*
X1068559Y117057D01*
X1068526Y116949D01*
X1068496Y116839D01*
X1068471Y116729D01*
X1068449Y116618D01*
X1068432Y116506D01*
X1068418Y116393D01*
X1068408Y116280D01*
X1068402Y116167D01*
X1068400Y116054D01*
X1068401Y116054D02*
X1068401Y112808D01*
X1068401Y116703D02*
X1063208Y119299D01*
X1063208Y124164D02*
X1063208Y127410D01*
X1063210Y127523D01*
X1063216Y127636D01*
X1063226Y127749D01*
X1063240Y127862D01*
X1063257Y127974D01*
X1063279Y128085D01*
X1063304Y128195D01*
X1063334Y128305D01*
X1063367Y128413D01*
X1063404Y128520D01*
X1063444Y128626D01*
X1063489Y128730D01*
X1063537Y128833D01*
X1063588Y128934D01*
X1063643Y129033D01*
X1063701Y129130D01*
X1063763Y129225D01*
X1063828Y129318D01*
X1063896Y129408D01*
X1063967Y129496D01*
X1064042Y129582D01*
X1064119Y129665D01*
X1064199Y129745D01*
X1064282Y129822D01*
X1064368Y129897D01*
X1064456Y129968D01*
X1064546Y130036D01*
X1064639Y130101D01*
X1064734Y130163D01*
X1064831Y130221D01*
X1064930Y130276D01*
X1065031Y130327D01*
X1065134Y130375D01*
X1065238Y130420D01*
X1065344Y130460D01*
X1065451Y130497D01*
X1065559Y130530D01*
X1065669Y130560D01*
X1065779Y130585D01*
X1065890Y130607D01*
X1066002Y130624D01*
X1066115Y130638D01*
X1066228Y130648D01*
X1066341Y130654D01*
X1066454Y130656D01*
X1066567Y130654D01*
X1066680Y130648D01*
X1066793Y130638D01*
X1066906Y130624D01*
X1067018Y130607D01*
X1067129Y130585D01*
X1067239Y130560D01*
X1067349Y130530D01*
X1067457Y130497D01*
X1067564Y130460D01*
X1067670Y130420D01*
X1067774Y130375D01*
X1067877Y130327D01*
X1067978Y130276D01*
X1068077Y130221D01*
X1068174Y130163D01*
X1068269Y130101D01*
X1068362Y130036D01*
X1068452Y129968D01*
X1068540Y129897D01*
X1068626Y129822D01*
X1068709Y129745D01*
X1068789Y129665D01*
X1068866Y129582D01*
X1068941Y129496D01*
X1069012Y129408D01*
X1069080Y129318D01*
X1069145Y129225D01*
X1069207Y129130D01*
X1069265Y129033D01*
X1069320Y128934D01*
X1069371Y128833D01*
X1069419Y128730D01*
X1069464Y128626D01*
X1069504Y128520D01*
X1069541Y128413D01*
X1069574Y128305D01*
X1069604Y128195D01*
X1069629Y128085D01*
X1069651Y127974D01*
X1069668Y127862D01*
X1069682Y127749D01*
X1069692Y127636D01*
X1069698Y127523D01*
X1069700Y127410D01*
X1074892Y128059D02*
X1074892Y124164D01*
X1074892Y128059D02*
X1074890Y128160D01*
X1074884Y128260D01*
X1074874Y128360D01*
X1074861Y128460D01*
X1074843Y128559D01*
X1074822Y128658D01*
X1074797Y128755D01*
X1074768Y128852D01*
X1074735Y128947D01*
X1074699Y129041D01*
X1074659Y129133D01*
X1074616Y129224D01*
X1074569Y129313D01*
X1074519Y129400D01*
X1074465Y129486D01*
X1074408Y129569D01*
X1074348Y129649D01*
X1074285Y129728D01*
X1074218Y129804D01*
X1074149Y129877D01*
X1074077Y129947D01*
X1074003Y130015D01*
X1073926Y130080D01*
X1073846Y130141D01*
X1073764Y130200D01*
X1073680Y130255D01*
X1073594Y130307D01*
X1073506Y130356D01*
X1073416Y130401D01*
X1073324Y130443D01*
X1073231Y130481D01*
X1073136Y130515D01*
X1073041Y130546D01*
X1072944Y130573D01*
X1072846Y130596D01*
X1072747Y130616D01*
X1072647Y130631D01*
X1072547Y130643D01*
X1072447Y130651D01*
X1072346Y130655D01*
X1072246Y130655D01*
X1072145Y130651D01*
X1072045Y130643D01*
X1071945Y130631D01*
X1071845Y130616D01*
X1071746Y130596D01*
X1071648Y130573D01*
X1071551Y130546D01*
X1071456Y130515D01*
X1071361Y130481D01*
X1071268Y130443D01*
X1071176Y130401D01*
X1071086Y130356D01*
X1070998Y130307D01*
X1070912Y130255D01*
X1070828Y130200D01*
X1070746Y130141D01*
X1070666Y130080D01*
X1070589Y130015D01*
X1070515Y129947D01*
X1070443Y129877D01*
X1070374Y129804D01*
X1070307Y129728D01*
X1070244Y129649D01*
X1070184Y129569D01*
X1070127Y129486D01*
X1070073Y129400D01*
X1070023Y129313D01*
X1069976Y129224D01*
X1069933Y129133D01*
X1069893Y129041D01*
X1069857Y128947D01*
X1069824Y128852D01*
X1069795Y128755D01*
X1069770Y128658D01*
X1069749Y128559D01*
X1069731Y128460D01*
X1069718Y128360D01*
X1069708Y128260D01*
X1069702Y128160D01*
X1069700Y128059D01*
X1069699Y128059D02*
X1069699Y125463D01*
X1483208Y112808D02*
X1494892Y112808D01*
X1494892Y116054D01*
X1494890Y116167D01*
X1494884Y116280D01*
X1494874Y116393D01*
X1494860Y116506D01*
X1494843Y116618D01*
X1494821Y116729D01*
X1494796Y116839D01*
X1494766Y116949D01*
X1494733Y117057D01*
X1494696Y117164D01*
X1494656Y117270D01*
X1494611Y117374D01*
X1494563Y117477D01*
X1494512Y117578D01*
X1494457Y117677D01*
X1494399Y117774D01*
X1494337Y117869D01*
X1494272Y117962D01*
X1494204Y118052D01*
X1494133Y118140D01*
X1494058Y118226D01*
X1493981Y118309D01*
X1493901Y118389D01*
X1493818Y118466D01*
X1493732Y118541D01*
X1493644Y118612D01*
X1493554Y118680D01*
X1493461Y118745D01*
X1493366Y118807D01*
X1493269Y118865D01*
X1493170Y118920D01*
X1493069Y118971D01*
X1492966Y119019D01*
X1492862Y119064D01*
X1492756Y119104D01*
X1492649Y119141D01*
X1492541Y119174D01*
X1492431Y119204D01*
X1492321Y119229D01*
X1492210Y119251D01*
X1492098Y119268D01*
X1491985Y119282D01*
X1491872Y119292D01*
X1491759Y119298D01*
X1491646Y119300D01*
X1491533Y119298D01*
X1491420Y119292D01*
X1491307Y119282D01*
X1491194Y119268D01*
X1491082Y119251D01*
X1490971Y119229D01*
X1490861Y119204D01*
X1490751Y119174D01*
X1490643Y119141D01*
X1490536Y119104D01*
X1490430Y119064D01*
X1490326Y119019D01*
X1490223Y118971D01*
X1490122Y118920D01*
X1490023Y118865D01*
X1489926Y118807D01*
X1489831Y118745D01*
X1489738Y118680D01*
X1489648Y118612D01*
X1489560Y118541D01*
X1489474Y118466D01*
X1489391Y118389D01*
X1489311Y118309D01*
X1489234Y118226D01*
X1489159Y118140D01*
X1489088Y118052D01*
X1489020Y117962D01*
X1488955Y117869D01*
X1488893Y117774D01*
X1488835Y117677D01*
X1488780Y117578D01*
X1488729Y117477D01*
X1488681Y117374D01*
X1488636Y117270D01*
X1488596Y117164D01*
X1488559Y117057D01*
X1488526Y116949D01*
X1488496Y116839D01*
X1488471Y116729D01*
X1488449Y116618D01*
X1488432Y116506D01*
X1488418Y116393D01*
X1488408Y116280D01*
X1488402Y116167D01*
X1488400Y116054D01*
X1488401Y116054D02*
X1488401Y112808D01*
X1488401Y116703D02*
X1483208Y119299D01*
X1485804Y124164D02*
X1494892Y126761D01*
X1485804Y124164D02*
X1485804Y130655D01*
X1488401Y128708D02*
X1483208Y128708D01*
X1903208Y112808D02*
X1914892Y112808D01*
X1914892Y116054D01*
X1914890Y116167D01*
X1914884Y116280D01*
X1914874Y116393D01*
X1914860Y116506D01*
X1914843Y116618D01*
X1914821Y116729D01*
X1914796Y116839D01*
X1914766Y116949D01*
X1914733Y117057D01*
X1914696Y117164D01*
X1914656Y117270D01*
X1914611Y117374D01*
X1914563Y117477D01*
X1914512Y117578D01*
X1914457Y117677D01*
X1914399Y117774D01*
X1914337Y117869D01*
X1914272Y117962D01*
X1914204Y118052D01*
X1914133Y118140D01*
X1914058Y118226D01*
X1913981Y118309D01*
X1913901Y118389D01*
X1913818Y118466D01*
X1913732Y118541D01*
X1913644Y118612D01*
X1913554Y118680D01*
X1913461Y118745D01*
X1913366Y118807D01*
X1913269Y118865D01*
X1913170Y118920D01*
X1913069Y118971D01*
X1912966Y119019D01*
X1912862Y119064D01*
X1912756Y119104D01*
X1912649Y119141D01*
X1912541Y119174D01*
X1912431Y119204D01*
X1912321Y119229D01*
X1912210Y119251D01*
X1912098Y119268D01*
X1911985Y119282D01*
X1911872Y119292D01*
X1911759Y119298D01*
X1911646Y119300D01*
X1911533Y119298D01*
X1911420Y119292D01*
X1911307Y119282D01*
X1911194Y119268D01*
X1911082Y119251D01*
X1910971Y119229D01*
X1910861Y119204D01*
X1910751Y119174D01*
X1910643Y119141D01*
X1910536Y119104D01*
X1910430Y119064D01*
X1910326Y119019D01*
X1910223Y118971D01*
X1910122Y118920D01*
X1910023Y118865D01*
X1909926Y118807D01*
X1909831Y118745D01*
X1909738Y118680D01*
X1909648Y118612D01*
X1909560Y118541D01*
X1909474Y118466D01*
X1909391Y118389D01*
X1909311Y118309D01*
X1909234Y118226D01*
X1909159Y118140D01*
X1909088Y118052D01*
X1909020Y117962D01*
X1908955Y117869D01*
X1908893Y117774D01*
X1908835Y117677D01*
X1908780Y117578D01*
X1908729Y117477D01*
X1908681Y117374D01*
X1908636Y117270D01*
X1908596Y117164D01*
X1908559Y117057D01*
X1908526Y116949D01*
X1908496Y116839D01*
X1908471Y116729D01*
X1908449Y116618D01*
X1908432Y116506D01*
X1908418Y116393D01*
X1908408Y116280D01*
X1908402Y116167D01*
X1908400Y116054D01*
X1908401Y116054D02*
X1908401Y112808D01*
X1908401Y116703D02*
X1903208Y119299D01*
X1903208Y124164D02*
X1903208Y128059D01*
X1903210Y128158D01*
X1903216Y128258D01*
X1903225Y128357D01*
X1903238Y128455D01*
X1903255Y128553D01*
X1903276Y128651D01*
X1903301Y128747D01*
X1903329Y128842D01*
X1903361Y128936D01*
X1903396Y129029D01*
X1903435Y129121D01*
X1903478Y129211D01*
X1903523Y129299D01*
X1903573Y129386D01*
X1903625Y129470D01*
X1903681Y129553D01*
X1903739Y129633D01*
X1903801Y129711D01*
X1903866Y129786D01*
X1903934Y129859D01*
X1904004Y129929D01*
X1904077Y129997D01*
X1904152Y130062D01*
X1904230Y130124D01*
X1904310Y130182D01*
X1904393Y130238D01*
X1904477Y130290D01*
X1904564Y130340D01*
X1904652Y130385D01*
X1904742Y130428D01*
X1904834Y130467D01*
X1904927Y130502D01*
X1905021Y130534D01*
X1905116Y130562D01*
X1905212Y130587D01*
X1905310Y130608D01*
X1905408Y130625D01*
X1905506Y130638D01*
X1905605Y130647D01*
X1905705Y130653D01*
X1905804Y130655D01*
X1907103Y130655D01*
X1907202Y130653D01*
X1907302Y130647D01*
X1907401Y130638D01*
X1907499Y130625D01*
X1907597Y130608D01*
X1907695Y130587D01*
X1907791Y130562D01*
X1907886Y130534D01*
X1907980Y130502D01*
X1908073Y130467D01*
X1908165Y130428D01*
X1908255Y130385D01*
X1908343Y130340D01*
X1908430Y130290D01*
X1908514Y130238D01*
X1908597Y130182D01*
X1908677Y130124D01*
X1908755Y130062D01*
X1908830Y129997D01*
X1908903Y129929D01*
X1908973Y129859D01*
X1909041Y129786D01*
X1909106Y129711D01*
X1909168Y129633D01*
X1909226Y129553D01*
X1909282Y129470D01*
X1909334Y129386D01*
X1909384Y129299D01*
X1909429Y129211D01*
X1909472Y129121D01*
X1909511Y129029D01*
X1909546Y128936D01*
X1909578Y128842D01*
X1909606Y128747D01*
X1909631Y128651D01*
X1909652Y128553D01*
X1909669Y128455D01*
X1909682Y128357D01*
X1909691Y128258D01*
X1909697Y128158D01*
X1909699Y128059D01*
X1909699Y124164D01*
X1914892Y124164D01*
X1914892Y130655D01*
X2323208Y112808D02*
X2334892Y112808D01*
X2334892Y116054D01*
X2334890Y116167D01*
X2334884Y116280D01*
X2334874Y116393D01*
X2334860Y116506D01*
X2334843Y116618D01*
X2334821Y116729D01*
X2334796Y116839D01*
X2334766Y116949D01*
X2334733Y117057D01*
X2334696Y117164D01*
X2334656Y117270D01*
X2334611Y117374D01*
X2334563Y117477D01*
X2334512Y117578D01*
X2334457Y117677D01*
X2334399Y117774D01*
X2334337Y117869D01*
X2334272Y117962D01*
X2334204Y118052D01*
X2334133Y118140D01*
X2334058Y118226D01*
X2333981Y118309D01*
X2333901Y118389D01*
X2333818Y118466D01*
X2333732Y118541D01*
X2333644Y118612D01*
X2333554Y118680D01*
X2333461Y118745D01*
X2333366Y118807D01*
X2333269Y118865D01*
X2333170Y118920D01*
X2333069Y118971D01*
X2332966Y119019D01*
X2332862Y119064D01*
X2332756Y119104D01*
X2332649Y119141D01*
X2332541Y119174D01*
X2332431Y119204D01*
X2332321Y119229D01*
X2332210Y119251D01*
X2332098Y119268D01*
X2331985Y119282D01*
X2331872Y119292D01*
X2331759Y119298D01*
X2331646Y119300D01*
X2331533Y119298D01*
X2331420Y119292D01*
X2331307Y119282D01*
X2331194Y119268D01*
X2331082Y119251D01*
X2330971Y119229D01*
X2330861Y119204D01*
X2330751Y119174D01*
X2330643Y119141D01*
X2330536Y119104D01*
X2330430Y119064D01*
X2330326Y119019D01*
X2330223Y118971D01*
X2330122Y118920D01*
X2330023Y118865D01*
X2329926Y118807D01*
X2329831Y118745D01*
X2329738Y118680D01*
X2329648Y118612D01*
X2329560Y118541D01*
X2329474Y118466D01*
X2329391Y118389D01*
X2329311Y118309D01*
X2329234Y118226D01*
X2329159Y118140D01*
X2329088Y118052D01*
X2329020Y117962D01*
X2328955Y117869D01*
X2328893Y117774D01*
X2328835Y117677D01*
X2328780Y117578D01*
X2328729Y117477D01*
X2328681Y117374D01*
X2328636Y117270D01*
X2328596Y117164D01*
X2328559Y117057D01*
X2328526Y116949D01*
X2328496Y116839D01*
X2328471Y116729D01*
X2328449Y116618D01*
X2328432Y116506D01*
X2328418Y116393D01*
X2328408Y116280D01*
X2328402Y116167D01*
X2328400Y116054D01*
X2328401Y116054D02*
X2328401Y112808D01*
X2328401Y116703D02*
X2323208Y119299D01*
X2329699Y124164D02*
X2329699Y128059D01*
X2329697Y128158D01*
X2329691Y128258D01*
X2329682Y128357D01*
X2329669Y128455D01*
X2329652Y128553D01*
X2329631Y128651D01*
X2329606Y128747D01*
X2329578Y128842D01*
X2329546Y128936D01*
X2329511Y129029D01*
X2329472Y129121D01*
X2329429Y129211D01*
X2329384Y129299D01*
X2329334Y129386D01*
X2329282Y129470D01*
X2329226Y129553D01*
X2329168Y129633D01*
X2329106Y129711D01*
X2329041Y129786D01*
X2328973Y129859D01*
X2328903Y129929D01*
X2328830Y129997D01*
X2328755Y130062D01*
X2328677Y130124D01*
X2328597Y130182D01*
X2328514Y130238D01*
X2328430Y130290D01*
X2328343Y130340D01*
X2328255Y130385D01*
X2328165Y130428D01*
X2328073Y130467D01*
X2327980Y130502D01*
X2327886Y130534D01*
X2327791Y130562D01*
X2327695Y130587D01*
X2327597Y130608D01*
X2327499Y130625D01*
X2327401Y130638D01*
X2327302Y130647D01*
X2327202Y130653D01*
X2327103Y130655D01*
X2326454Y130655D01*
X2326454Y130656D02*
X2326341Y130654D01*
X2326228Y130648D01*
X2326115Y130638D01*
X2326002Y130624D01*
X2325890Y130607D01*
X2325779Y130585D01*
X2325669Y130560D01*
X2325559Y130530D01*
X2325451Y130497D01*
X2325344Y130460D01*
X2325238Y130420D01*
X2325134Y130375D01*
X2325031Y130327D01*
X2324930Y130276D01*
X2324831Y130221D01*
X2324734Y130163D01*
X2324639Y130101D01*
X2324546Y130036D01*
X2324456Y129968D01*
X2324368Y129897D01*
X2324282Y129822D01*
X2324199Y129745D01*
X2324119Y129665D01*
X2324042Y129582D01*
X2323967Y129496D01*
X2323896Y129408D01*
X2323828Y129318D01*
X2323763Y129225D01*
X2323701Y129130D01*
X2323643Y129033D01*
X2323588Y128934D01*
X2323537Y128833D01*
X2323489Y128730D01*
X2323444Y128626D01*
X2323404Y128520D01*
X2323367Y128413D01*
X2323334Y128305D01*
X2323304Y128195D01*
X2323279Y128085D01*
X2323257Y127974D01*
X2323240Y127862D01*
X2323226Y127749D01*
X2323216Y127636D01*
X2323210Y127523D01*
X2323208Y127410D01*
X2323210Y127297D01*
X2323216Y127184D01*
X2323226Y127071D01*
X2323240Y126958D01*
X2323257Y126846D01*
X2323279Y126735D01*
X2323304Y126625D01*
X2323334Y126515D01*
X2323367Y126407D01*
X2323404Y126300D01*
X2323444Y126194D01*
X2323489Y126090D01*
X2323537Y125987D01*
X2323588Y125886D01*
X2323643Y125787D01*
X2323701Y125690D01*
X2323763Y125595D01*
X2323828Y125502D01*
X2323896Y125412D01*
X2323967Y125324D01*
X2324042Y125238D01*
X2324119Y125155D01*
X2324199Y125075D01*
X2324282Y124998D01*
X2324368Y124923D01*
X2324456Y124852D01*
X2324546Y124784D01*
X2324639Y124719D01*
X2324734Y124657D01*
X2324831Y124599D01*
X2324930Y124544D01*
X2325031Y124493D01*
X2325134Y124445D01*
X2325238Y124400D01*
X2325344Y124360D01*
X2325451Y124323D01*
X2325559Y124290D01*
X2325669Y124260D01*
X2325779Y124235D01*
X2325890Y124213D01*
X2326002Y124196D01*
X2326115Y124182D01*
X2326228Y124172D01*
X2326341Y124166D01*
X2326454Y124164D01*
X2329699Y124164D01*
X2329842Y124166D01*
X2329985Y124172D01*
X2330128Y124182D01*
X2330270Y124196D01*
X2330412Y124213D01*
X2330554Y124235D01*
X2330695Y124260D01*
X2330835Y124290D01*
X2330974Y124323D01*
X2331112Y124360D01*
X2331249Y124401D01*
X2331385Y124445D01*
X2331520Y124494D01*
X2331653Y124546D01*
X2331785Y124601D01*
X2331915Y124661D01*
X2332044Y124724D01*
X2332171Y124790D01*
X2332295Y124860D01*
X2332418Y124933D01*
X2332539Y125010D01*
X2332658Y125090D01*
X2332774Y125173D01*
X2332889Y125259D01*
X2333000Y125348D01*
X2333110Y125441D01*
X2333216Y125536D01*
X2333320Y125635D01*
X2333421Y125736D01*
X2333520Y125840D01*
X2333615Y125946D01*
X2333708Y126056D01*
X2333797Y126167D01*
X2333883Y126282D01*
X2333966Y126398D01*
X2334046Y126517D01*
X2334123Y126638D01*
X2334196Y126760D01*
X2334266Y126885D01*
X2334332Y127012D01*
X2334395Y127141D01*
X2334455Y127271D01*
X2334510Y127403D01*
X2334562Y127536D01*
X2334611Y127671D01*
X2334655Y127807D01*
X2334696Y127944D01*
X2334733Y128082D01*
X2334766Y128221D01*
X2334796Y128361D01*
X2334821Y128502D01*
X2334843Y128644D01*
X2334860Y128786D01*
X2334874Y128928D01*
X2334884Y129071D01*
X2334890Y129214D01*
X2334892Y129357D01*
X2743208Y112808D02*
X2754892Y112808D01*
X2754892Y116054D01*
X2754890Y116167D01*
X2754884Y116280D01*
X2754874Y116393D01*
X2754860Y116506D01*
X2754843Y116618D01*
X2754821Y116729D01*
X2754796Y116839D01*
X2754766Y116949D01*
X2754733Y117057D01*
X2754696Y117164D01*
X2754656Y117270D01*
X2754611Y117374D01*
X2754563Y117477D01*
X2754512Y117578D01*
X2754457Y117677D01*
X2754399Y117774D01*
X2754337Y117869D01*
X2754272Y117962D01*
X2754204Y118052D01*
X2754133Y118140D01*
X2754058Y118226D01*
X2753981Y118309D01*
X2753901Y118389D01*
X2753818Y118466D01*
X2753732Y118541D01*
X2753644Y118612D01*
X2753554Y118680D01*
X2753461Y118745D01*
X2753366Y118807D01*
X2753269Y118865D01*
X2753170Y118920D01*
X2753069Y118971D01*
X2752966Y119019D01*
X2752862Y119064D01*
X2752756Y119104D01*
X2752649Y119141D01*
X2752541Y119174D01*
X2752431Y119204D01*
X2752321Y119229D01*
X2752210Y119251D01*
X2752098Y119268D01*
X2751985Y119282D01*
X2751872Y119292D01*
X2751759Y119298D01*
X2751646Y119300D01*
X2751533Y119298D01*
X2751420Y119292D01*
X2751307Y119282D01*
X2751194Y119268D01*
X2751082Y119251D01*
X2750971Y119229D01*
X2750861Y119204D01*
X2750751Y119174D01*
X2750643Y119141D01*
X2750536Y119104D01*
X2750430Y119064D01*
X2750326Y119019D01*
X2750223Y118971D01*
X2750122Y118920D01*
X2750023Y118865D01*
X2749926Y118807D01*
X2749831Y118745D01*
X2749738Y118680D01*
X2749648Y118612D01*
X2749560Y118541D01*
X2749474Y118466D01*
X2749391Y118389D01*
X2749311Y118309D01*
X2749234Y118226D01*
X2749159Y118140D01*
X2749088Y118052D01*
X2749020Y117962D01*
X2748955Y117869D01*
X2748893Y117774D01*
X2748835Y117677D01*
X2748780Y117578D01*
X2748729Y117477D01*
X2748681Y117374D01*
X2748636Y117270D01*
X2748596Y117164D01*
X2748559Y117057D01*
X2748526Y116949D01*
X2748496Y116839D01*
X2748471Y116729D01*
X2748449Y116618D01*
X2748432Y116506D01*
X2748418Y116393D01*
X2748408Y116280D01*
X2748402Y116167D01*
X2748400Y116054D01*
X2748401Y116054D02*
X2748401Y112808D01*
X2748401Y116703D02*
X2743208Y119299D01*
X2753594Y124164D02*
X2754892Y124164D01*
X2754892Y130655D01*
X2743208Y127410D01*
M02*
