G04 EAGLE Gerber RS-274X export*
G75*
%MOMM*%
%FSLAX34Y34*%
%LPD*%
%INBottom layer*%
%IPPOS*%
%AMOC8*
5,1,8,0,0,1.08239X$1,22.5*%
G01*
%ADD10C,0.000000*%
%ADD11C,1.530000*%
%ADD12R,1.530000X1.530000*%
%ADD13P,1.429621X8X292.500000*%
%ADD14R,1.803000X1.600000*%
%ADD15C,0.254000*%

G36*
X89274Y481265D02*
X89274Y481265D01*
X89243Y481268D01*
X89083Y481250D01*
X78828Y479442D01*
X78799Y479433D01*
X78769Y479430D01*
X78615Y479384D01*
X65355Y474558D01*
X65328Y474544D01*
X65299Y474536D01*
X65154Y474465D01*
X52934Y467410D01*
X52910Y467391D01*
X52883Y467378D01*
X52753Y467283D01*
X41944Y458213D01*
X41923Y458190D01*
X41899Y458173D01*
X41787Y458056D01*
X32717Y447247D01*
X32701Y447221D01*
X32680Y447200D01*
X32590Y447066D01*
X25535Y434846D01*
X25523Y434818D01*
X25506Y434793D01*
X25442Y434645D01*
X20616Y421385D01*
X20609Y421356D01*
X20596Y421328D01*
X20558Y421172D01*
X18750Y410917D01*
X18749Y410886D01*
X18741Y410857D01*
X18731Y410696D01*
X18731Y89304D01*
X18735Y89274D01*
X18732Y89243D01*
X18750Y89083D01*
X20558Y78828D01*
X20567Y78799D01*
X20570Y78769D01*
X20616Y78615D01*
X25442Y65355D01*
X25456Y65328D01*
X25464Y65299D01*
X25535Y65154D01*
X32590Y52934D01*
X32609Y52910D01*
X32622Y52883D01*
X32717Y52753D01*
X41787Y41944D01*
X41810Y41923D01*
X41827Y41899D01*
X41944Y41787D01*
X52753Y32717D01*
X52779Y32701D01*
X52800Y32680D01*
X52934Y32590D01*
X65154Y25535D01*
X65182Y25523D01*
X65207Y25506D01*
X65355Y25442D01*
X78614Y20616D01*
X78644Y20609D01*
X78672Y20596D01*
X78828Y20558D01*
X89083Y18750D01*
X89114Y18749D01*
X89143Y18741D01*
X89304Y18731D01*
X2850696Y18731D01*
X2850726Y18735D01*
X2850757Y18732D01*
X2850917Y18750D01*
X2861172Y20558D01*
X2861201Y20567D01*
X2861231Y20570D01*
X2861385Y20616D01*
X2874645Y25442D01*
X2874672Y25456D01*
X2874701Y25464D01*
X2874846Y25535D01*
X2887066Y32590D01*
X2887090Y32609D01*
X2887117Y32622D01*
X2887247Y32717D01*
X2898056Y41787D01*
X2898077Y41810D01*
X2898101Y41827D01*
X2898213Y41944D01*
X2907283Y52753D01*
X2907299Y52779D01*
X2907320Y52800D01*
X2907410Y52934D01*
X2914465Y65154D01*
X2914477Y65182D01*
X2914494Y65207D01*
X2914558Y65355D01*
X2919384Y78614D01*
X2919391Y78644D01*
X2919404Y78672D01*
X2919442Y78828D01*
X2921250Y89083D01*
X2921251Y89114D01*
X2921259Y89143D01*
X2921269Y89304D01*
X2921269Y410696D01*
X2921265Y410726D01*
X2921268Y410757D01*
X2921250Y410917D01*
X2919442Y421172D01*
X2919433Y421201D01*
X2919430Y421231D01*
X2919384Y421385D01*
X2914558Y434645D01*
X2914544Y434672D01*
X2914536Y434701D01*
X2914465Y434846D01*
X2907410Y447066D01*
X2907391Y447090D01*
X2907378Y447117D01*
X2907283Y447247D01*
X2898213Y458056D01*
X2898190Y458077D01*
X2898173Y458101D01*
X2898056Y458213D01*
X2887247Y467283D01*
X2887221Y467299D01*
X2887200Y467320D01*
X2887066Y467410D01*
X2874846Y474465D01*
X2874818Y474477D01*
X2874793Y474494D01*
X2874645Y474558D01*
X2861385Y479384D01*
X2861356Y479391D01*
X2861328Y479404D01*
X2861172Y479442D01*
X2850917Y481250D01*
X2850886Y481251D01*
X2850857Y481259D01*
X2850696Y481269D01*
X89304Y481269D01*
X89274Y481265D01*
G37*
%LPC*%
G36*
X209999Y110779D02*
X209999Y110779D01*
X209999Y112050D01*
X209984Y112168D01*
X209977Y112287D01*
X209964Y112325D01*
X209959Y112365D01*
X209915Y112476D01*
X209879Y112589D01*
X209857Y112624D01*
X209842Y112661D01*
X209772Y112757D01*
X209709Y112858D01*
X209679Y112886D01*
X209655Y112918D01*
X209564Y112994D01*
X209477Y113076D01*
X209442Y113095D01*
X209410Y113121D01*
X209303Y113172D01*
X209199Y113229D01*
X209159Y113240D01*
X209123Y113257D01*
X209006Y113279D01*
X208891Y113309D01*
X208830Y113313D01*
X208810Y113317D01*
X208790Y113315D01*
X208730Y113319D01*
X197726Y113319D01*
X197661Y113351D01*
X190913Y116146D01*
X185911Y121148D01*
X183204Y127683D01*
X183204Y150757D01*
X185911Y157292D01*
X190578Y161958D01*
X190638Y162037D01*
X190706Y162109D01*
X190735Y162162D01*
X190772Y162210D01*
X190812Y162300D01*
X190860Y162387D01*
X190875Y162446D01*
X190899Y162501D01*
X190914Y162599D01*
X190939Y162695D01*
X190945Y162795D01*
X190949Y162815D01*
X190947Y162828D01*
X190949Y162856D01*
X190949Y221340D01*
X190937Y221438D01*
X190934Y221537D01*
X190917Y221595D01*
X190909Y221655D01*
X190873Y221747D01*
X190845Y221842D01*
X190815Y221895D01*
X190792Y221951D01*
X190734Y222031D01*
X190684Y222116D01*
X190618Y222192D01*
X190606Y222208D01*
X190596Y222216D01*
X190578Y222237D01*
X185615Y227200D01*
X185615Y247400D01*
X187317Y249103D01*
X187390Y249197D01*
X187469Y249286D01*
X187487Y249322D01*
X187512Y249354D01*
X187560Y249463D01*
X187614Y249569D01*
X187622Y249608D01*
X187639Y249646D01*
X187657Y249763D01*
X187683Y249879D01*
X187682Y249920D01*
X187688Y249960D01*
X187677Y250078D01*
X187674Y250197D01*
X187662Y250236D01*
X187659Y250276D01*
X187618Y250388D01*
X187585Y250503D01*
X187565Y250538D01*
X187551Y250576D01*
X187484Y250674D01*
X187424Y250777D01*
X187384Y250822D01*
X187372Y250839D01*
X187357Y250852D01*
X187317Y250898D01*
X185615Y252600D01*
X185615Y272800D01*
X199900Y287085D01*
X206917Y287085D01*
X207015Y287097D01*
X207114Y287100D01*
X207173Y287117D01*
X207233Y287125D01*
X207325Y287161D01*
X207420Y287189D01*
X207472Y287219D01*
X207528Y287242D01*
X207608Y287300D01*
X207694Y287350D01*
X207769Y287416D01*
X207786Y287428D01*
X207794Y287438D01*
X207815Y287456D01*
X290971Y370613D01*
X296509Y376150D01*
X303511Y379051D01*
X1283083Y379051D01*
X1283181Y379063D01*
X1283280Y379066D01*
X1283339Y379083D01*
X1283399Y379091D01*
X1283491Y379127D01*
X1283586Y379155D01*
X1283638Y379185D01*
X1283694Y379208D01*
X1283774Y379266D01*
X1283860Y379316D01*
X1283935Y379382D01*
X1283952Y379394D01*
X1283960Y379404D01*
X1283981Y379422D01*
X1353289Y448731D01*
X1368516Y448731D01*
X1368634Y448746D01*
X1368753Y448753D01*
X1368791Y448766D01*
X1368832Y448771D01*
X1368942Y448814D01*
X1369055Y448851D01*
X1369090Y448873D01*
X1369127Y448888D01*
X1369223Y448958D01*
X1369324Y449021D01*
X1369352Y449051D01*
X1369385Y449074D01*
X1369461Y449166D01*
X1369542Y449253D01*
X1369562Y449288D01*
X1369587Y449319D01*
X1369638Y449427D01*
X1369696Y449531D01*
X1369706Y449571D01*
X1369723Y449607D01*
X1369745Y449724D01*
X1369775Y449839D01*
X1369779Y449900D01*
X1369783Y449920D01*
X1369781Y449940D01*
X1369785Y450000D01*
X1369785Y459334D01*
X1372166Y461715D01*
X1390834Y461715D01*
X1393215Y459334D01*
X1393215Y453954D01*
X1393223Y453885D01*
X1393222Y453815D01*
X1393243Y453727D01*
X1393255Y453638D01*
X1393280Y453573D01*
X1393297Y453506D01*
X1393339Y453426D01*
X1393372Y453343D01*
X1393413Y453286D01*
X1393445Y453224D01*
X1393506Y453158D01*
X1393558Y453085D01*
X1393612Y453041D01*
X1393659Y452989D01*
X1393734Y452940D01*
X1393803Y452882D01*
X1393867Y452853D01*
X1393925Y452814D01*
X1394010Y452785D01*
X1394091Y452747D01*
X1394160Y452734D01*
X1394226Y452711D01*
X1394315Y452704D01*
X1394403Y452687D01*
X1394473Y452691D01*
X1394543Y452686D01*
X1394631Y452701D01*
X1394721Y452707D01*
X1394787Y452728D01*
X1394856Y452740D01*
X1394938Y452777D01*
X1395023Y452805D01*
X1395082Y452842D01*
X1395146Y452871D01*
X1395216Y452927D01*
X1395292Y452975D01*
X1395340Y453026D01*
X1395394Y453069D01*
X1395449Y453141D01*
X1395510Y453207D01*
X1395544Y453268D01*
X1395586Y453324D01*
X1395657Y453468D01*
X1396969Y456636D01*
X1400264Y459931D01*
X1404570Y461715D01*
X1409230Y461715D01*
X1413536Y459931D01*
X1416831Y456636D01*
X1418427Y452783D01*
X1418496Y452662D01*
X1418561Y452539D01*
X1418575Y452524D01*
X1418585Y452506D01*
X1418682Y452406D01*
X1418775Y452304D01*
X1418792Y452292D01*
X1418806Y452278D01*
X1418925Y452205D01*
X1419041Y452129D01*
X1419060Y452122D01*
X1419077Y452112D01*
X1419210Y452071D01*
X1419342Y452026D01*
X1419362Y452024D01*
X1419381Y452018D01*
X1419520Y452011D01*
X1419659Y452000D01*
X1419679Y452004D01*
X1419699Y452003D01*
X1419835Y452031D01*
X1419972Y452055D01*
X1419991Y452063D01*
X1420010Y452067D01*
X1420136Y452128D01*
X1420262Y452185D01*
X1420278Y452198D01*
X1420296Y452207D01*
X1420402Y452297D01*
X1420510Y452384D01*
X1420523Y452400D01*
X1420538Y452413D01*
X1420618Y452527D01*
X1420702Y452638D01*
X1420714Y452663D01*
X1420721Y452673D01*
X1420728Y452692D01*
X1420773Y452783D01*
X1422369Y456636D01*
X1425664Y459931D01*
X1429970Y461715D01*
X1434630Y461715D01*
X1438936Y459931D01*
X1442231Y456636D01*
X1443827Y452783D01*
X1443896Y452662D01*
X1443961Y452539D01*
X1443975Y452524D01*
X1443985Y452506D01*
X1444082Y452406D01*
X1444175Y452304D01*
X1444192Y452292D01*
X1444206Y452278D01*
X1444324Y452205D01*
X1444441Y452129D01*
X1444460Y452122D01*
X1444477Y452112D01*
X1444610Y452071D01*
X1444742Y452026D01*
X1444762Y452024D01*
X1444781Y452018D01*
X1444920Y452011D01*
X1445059Y452000D01*
X1445079Y452004D01*
X1445099Y452003D01*
X1445235Y452031D01*
X1445372Y452055D01*
X1445390Y452063D01*
X1445410Y452067D01*
X1445536Y452128D01*
X1445662Y452185D01*
X1445678Y452198D01*
X1445696Y452207D01*
X1445802Y452298D01*
X1445910Y452384D01*
X1445923Y452400D01*
X1445938Y452413D01*
X1446018Y452527D01*
X1446102Y452638D01*
X1446114Y452663D01*
X1446121Y452673D01*
X1446128Y452692D01*
X1446173Y452783D01*
X1447769Y456636D01*
X1451064Y459931D01*
X1455370Y461715D01*
X1460030Y461715D01*
X1464336Y459931D01*
X1467631Y456636D01*
X1469227Y452783D01*
X1469296Y452662D01*
X1469361Y452539D01*
X1469375Y452524D01*
X1469385Y452506D01*
X1469482Y452406D01*
X1469575Y452304D01*
X1469592Y452292D01*
X1469606Y452278D01*
X1469724Y452205D01*
X1469841Y452129D01*
X1469860Y452122D01*
X1469877Y452112D01*
X1470010Y452071D01*
X1470142Y452026D01*
X1470162Y452024D01*
X1470181Y452018D01*
X1470320Y452011D01*
X1470459Y452000D01*
X1470479Y452004D01*
X1470499Y452003D01*
X1470635Y452031D01*
X1470772Y452055D01*
X1470790Y452063D01*
X1470810Y452067D01*
X1470936Y452128D01*
X1471062Y452185D01*
X1471078Y452198D01*
X1471096Y452207D01*
X1471202Y452298D01*
X1471310Y452384D01*
X1471323Y452400D01*
X1471338Y452413D01*
X1471418Y452527D01*
X1471502Y452638D01*
X1471514Y452663D01*
X1471521Y452673D01*
X1471528Y452692D01*
X1471573Y452783D01*
X1473169Y456636D01*
X1476464Y459931D01*
X1480770Y461715D01*
X1485430Y461715D01*
X1489736Y459931D01*
X1493031Y456636D01*
X1494627Y452783D01*
X1494696Y452662D01*
X1494761Y452539D01*
X1494775Y452524D01*
X1494785Y452506D01*
X1494882Y452406D01*
X1494975Y452304D01*
X1494992Y452292D01*
X1495006Y452278D01*
X1495124Y452205D01*
X1495241Y452129D01*
X1495260Y452122D01*
X1495277Y452112D01*
X1495410Y452071D01*
X1495542Y452026D01*
X1495562Y452024D01*
X1495581Y452018D01*
X1495720Y452011D01*
X1495859Y452000D01*
X1495879Y452004D01*
X1495899Y452003D01*
X1496035Y452031D01*
X1496172Y452055D01*
X1496190Y452063D01*
X1496210Y452067D01*
X1496336Y452128D01*
X1496462Y452185D01*
X1496478Y452198D01*
X1496496Y452207D01*
X1496602Y452298D01*
X1496710Y452384D01*
X1496723Y452400D01*
X1496738Y452413D01*
X1496818Y452527D01*
X1496902Y452638D01*
X1496914Y452663D01*
X1496921Y452673D01*
X1496928Y452692D01*
X1496973Y452783D01*
X1498569Y456636D01*
X1501864Y459931D01*
X1506170Y461715D01*
X1510830Y461715D01*
X1515136Y459931D01*
X1518431Y456636D01*
X1520027Y452783D01*
X1520096Y452662D01*
X1520161Y452539D01*
X1520175Y452524D01*
X1520185Y452506D01*
X1520282Y452406D01*
X1520375Y452304D01*
X1520392Y452292D01*
X1520406Y452278D01*
X1520524Y452205D01*
X1520641Y452129D01*
X1520660Y452122D01*
X1520677Y452112D01*
X1520810Y452071D01*
X1520942Y452026D01*
X1520962Y452024D01*
X1520981Y452018D01*
X1521120Y452011D01*
X1521259Y452000D01*
X1521279Y452004D01*
X1521299Y452003D01*
X1521435Y452031D01*
X1521572Y452055D01*
X1521590Y452063D01*
X1521610Y452067D01*
X1521736Y452128D01*
X1521862Y452185D01*
X1521878Y452198D01*
X1521896Y452207D01*
X1522002Y452298D01*
X1522110Y452384D01*
X1522123Y452400D01*
X1522138Y452413D01*
X1522218Y452527D01*
X1522302Y452638D01*
X1522314Y452663D01*
X1522321Y452673D01*
X1522328Y452692D01*
X1522373Y452783D01*
X1523969Y456636D01*
X1527264Y459931D01*
X1531570Y461715D01*
X1536230Y461715D01*
X1540536Y459931D01*
X1543831Y456636D01*
X1545615Y452330D01*
X1545615Y450000D01*
X1545630Y449882D01*
X1545637Y449763D01*
X1545650Y449725D01*
X1545655Y449684D01*
X1545698Y449574D01*
X1545735Y449461D01*
X1545757Y449426D01*
X1545772Y449389D01*
X1545841Y449293D01*
X1545905Y449192D01*
X1545935Y449164D01*
X1545958Y449131D01*
X1546050Y449056D01*
X1546137Y448974D01*
X1546172Y448954D01*
X1546203Y448929D01*
X1546311Y448878D01*
X1546415Y448820D01*
X1546455Y448810D01*
X1546491Y448793D01*
X1546608Y448771D01*
X1546723Y448741D01*
X1546783Y448737D01*
X1546803Y448733D01*
X1546824Y448735D01*
X1546884Y448731D01*
X1558030Y448731D01*
X1558148Y448746D01*
X1558267Y448753D01*
X1558305Y448766D01*
X1558345Y448771D01*
X1558456Y448814D01*
X1558569Y448851D01*
X1558603Y448873D01*
X1558641Y448888D01*
X1558737Y448958D01*
X1558838Y449021D01*
X1558866Y449051D01*
X1558898Y449074D01*
X1558974Y449166D01*
X1559056Y449253D01*
X1559075Y449288D01*
X1559101Y449319D01*
X1559152Y449427D01*
X1559209Y449531D01*
X1559220Y449571D01*
X1559237Y449607D01*
X1559259Y449724D01*
X1559289Y449839D01*
X1559293Y449900D01*
X1559297Y449920D01*
X1559295Y449940D01*
X1559299Y450000D01*
X1559299Y450001D01*
X1559301Y450001D01*
X1559301Y450000D01*
X1559316Y449882D01*
X1559323Y449763D01*
X1559336Y449725D01*
X1559341Y449684D01*
X1559385Y449574D01*
X1559421Y449461D01*
X1559443Y449426D01*
X1559458Y449389D01*
X1559528Y449293D01*
X1559591Y449192D01*
X1559621Y449164D01*
X1559645Y449131D01*
X1559736Y449056D01*
X1559823Y448974D01*
X1559858Y448954D01*
X1559890Y448929D01*
X1559997Y448878D01*
X1560102Y448820D01*
X1560141Y448810D01*
X1560177Y448793D01*
X1560294Y448771D01*
X1560409Y448741D01*
X1560470Y448737D01*
X1560490Y448733D01*
X1560510Y448735D01*
X1560570Y448731D01*
X1562111Y448731D01*
X1563009Y447833D01*
X1563088Y447772D01*
X1563160Y447704D01*
X1563213Y447675D01*
X1563261Y447638D01*
X1563352Y447598D01*
X1563438Y447550D01*
X1563497Y447535D01*
X1563552Y447511D01*
X1563650Y447496D01*
X1563746Y447471D01*
X1563846Y447465D01*
X1563867Y447461D01*
X1563879Y447463D01*
X1563907Y447461D01*
X1569190Y447461D01*
X1568744Y446088D01*
X1568016Y444659D01*
X1567882Y444474D01*
X1567872Y444457D01*
X1567859Y444442D01*
X1567796Y444318D01*
X1567729Y444196D01*
X1567724Y444177D01*
X1567715Y444159D01*
X1567684Y444023D01*
X1567649Y443888D01*
X1567649Y443868D01*
X1567645Y443849D01*
X1567649Y443709D01*
X1567649Y443570D01*
X1567654Y443551D01*
X1567655Y443531D01*
X1567694Y443397D01*
X1567728Y443262D01*
X1567738Y443244D01*
X1567743Y443225D01*
X1567814Y443105D01*
X1567881Y442983D01*
X1567895Y442969D01*
X1567905Y442952D01*
X1568011Y442831D01*
X1631419Y379422D01*
X1631498Y379362D01*
X1631570Y379294D01*
X1631623Y379265D01*
X1631671Y379228D01*
X1631762Y379188D01*
X1631848Y379140D01*
X1631907Y379125D01*
X1631962Y379101D01*
X1632060Y379086D01*
X1632156Y379061D01*
X1632256Y379055D01*
X1632277Y379051D01*
X1632289Y379053D01*
X1632317Y379051D01*
X2636489Y379051D01*
X2643491Y376150D01*
X2732185Y287456D01*
X2732264Y287396D01*
X2732336Y287328D01*
X2732389Y287299D01*
X2732437Y287262D01*
X2732528Y287222D01*
X2732614Y287174D01*
X2732673Y287159D01*
X2732728Y287135D01*
X2732826Y287120D01*
X2732922Y287095D01*
X2733022Y287089D01*
X2733043Y287085D01*
X2733055Y287087D01*
X2733083Y287085D01*
X2740100Y287085D01*
X2754385Y272800D01*
X2754385Y252600D01*
X2752683Y250898D01*
X2752610Y250803D01*
X2752531Y250714D01*
X2752513Y250678D01*
X2752488Y250646D01*
X2752440Y250537D01*
X2752386Y250431D01*
X2752378Y250392D01*
X2752361Y250354D01*
X2752343Y250237D01*
X2752317Y250121D01*
X2752318Y250080D01*
X2752312Y250040D01*
X2752323Y249922D01*
X2752326Y249803D01*
X2752338Y249764D01*
X2752341Y249724D01*
X2752382Y249611D01*
X2752415Y249497D01*
X2752435Y249463D01*
X2752449Y249424D01*
X2752516Y249326D01*
X2752576Y249223D01*
X2752616Y249178D01*
X2752628Y249161D01*
X2752643Y249148D01*
X2752683Y249103D01*
X2754385Y247400D01*
X2754385Y227200D01*
X2749422Y222237D01*
X2749362Y222159D01*
X2749294Y222087D01*
X2749265Y222034D01*
X2749228Y221986D01*
X2749188Y221895D01*
X2749140Y221808D01*
X2749125Y221750D01*
X2749101Y221694D01*
X2749086Y221596D01*
X2749061Y221500D01*
X2749055Y221400D01*
X2749051Y221380D01*
X2749053Y221368D01*
X2749051Y221340D01*
X2749051Y162856D01*
X2749063Y162758D01*
X2749066Y162659D01*
X2749083Y162600D01*
X2749091Y162540D01*
X2749127Y162448D01*
X2749155Y162353D01*
X2749185Y162301D01*
X2749208Y162245D01*
X2749266Y162164D01*
X2749316Y162079D01*
X2749382Y162004D01*
X2749394Y161987D01*
X2749404Y161979D01*
X2749422Y161958D01*
X2754089Y157292D01*
X2756796Y150757D01*
X2756796Y127683D01*
X2754089Y121148D01*
X2749087Y116146D01*
X2742339Y113351D01*
X2742314Y113337D01*
X2742286Y113328D01*
X2742272Y113319D01*
X2731270Y113319D01*
X2731152Y113304D01*
X2731033Y113297D01*
X2730995Y113284D01*
X2730955Y113279D01*
X2730844Y113235D01*
X2730731Y113199D01*
X2730696Y113177D01*
X2730659Y113162D01*
X2730563Y113092D01*
X2730462Y113029D01*
X2730434Y112999D01*
X2730402Y112975D01*
X2730326Y112884D01*
X2730244Y112797D01*
X2730225Y112762D01*
X2730199Y112730D01*
X2730148Y112623D01*
X2730091Y112519D01*
X2730080Y112479D01*
X2730063Y112443D01*
X2730041Y112326D01*
X2730011Y112211D01*
X2730007Y112150D01*
X2730003Y112130D01*
X2730005Y112110D01*
X2730001Y112050D01*
X2730001Y110779D01*
X2729999Y110779D01*
X2729999Y112050D01*
X2729984Y112168D01*
X2729977Y112287D01*
X2729964Y112325D01*
X2729959Y112365D01*
X2729915Y112476D01*
X2729879Y112589D01*
X2729857Y112624D01*
X2729842Y112661D01*
X2729772Y112757D01*
X2729709Y112858D01*
X2729679Y112886D01*
X2729655Y112918D01*
X2729564Y112994D01*
X2729477Y113076D01*
X2729442Y113095D01*
X2729410Y113121D01*
X2729303Y113172D01*
X2729199Y113229D01*
X2729159Y113240D01*
X2729123Y113257D01*
X2729006Y113279D01*
X2728891Y113309D01*
X2728830Y113313D01*
X2728810Y113317D01*
X2728790Y113315D01*
X2728730Y113319D01*
X2717726Y113319D01*
X2717661Y113351D01*
X2710913Y116146D01*
X2705911Y121148D01*
X2703204Y127683D01*
X2703204Y150757D01*
X2705911Y157292D01*
X2710578Y161958D01*
X2710638Y162037D01*
X2710706Y162109D01*
X2710735Y162162D01*
X2710772Y162210D01*
X2710812Y162300D01*
X2710860Y162387D01*
X2710875Y162446D01*
X2710899Y162501D01*
X2710914Y162599D01*
X2710939Y162695D01*
X2710945Y162795D01*
X2710949Y162815D01*
X2710947Y162828D01*
X2710949Y162856D01*
X2710949Y221340D01*
X2710937Y221438D01*
X2710934Y221537D01*
X2710917Y221595D01*
X2710909Y221655D01*
X2710873Y221747D01*
X2710845Y221843D01*
X2710815Y221895D01*
X2710792Y221951D01*
X2710734Y222031D01*
X2710684Y222116D01*
X2710618Y222192D01*
X2710606Y222208D01*
X2710596Y222216D01*
X2710578Y222237D01*
X2705615Y227200D01*
X2705615Y247400D01*
X2707317Y249103D01*
X2707390Y249197D01*
X2707469Y249286D01*
X2707487Y249322D01*
X2707512Y249354D01*
X2707560Y249463D01*
X2707614Y249569D01*
X2707622Y249608D01*
X2707639Y249646D01*
X2707657Y249763D01*
X2707683Y249879D01*
X2707682Y249920D01*
X2707688Y249960D01*
X2707677Y250078D01*
X2707674Y250197D01*
X2707662Y250236D01*
X2707659Y250276D01*
X2707618Y250388D01*
X2707585Y250503D01*
X2707565Y250538D01*
X2707551Y250576D01*
X2707484Y250674D01*
X2707424Y250777D01*
X2707384Y250822D01*
X2707372Y250839D01*
X2707357Y250852D01*
X2707317Y250898D01*
X2705615Y252600D01*
X2705615Y259617D01*
X2705603Y259715D01*
X2705600Y259814D01*
X2705583Y259873D01*
X2705575Y259933D01*
X2705539Y260025D01*
X2705511Y260120D01*
X2705481Y260172D01*
X2705458Y260228D01*
X2705400Y260308D01*
X2705350Y260394D01*
X2705284Y260469D01*
X2705272Y260486D01*
X2705262Y260494D01*
X2705244Y260515D01*
X2625181Y340578D01*
X2625102Y340638D01*
X2625030Y340706D01*
X2624977Y340735D01*
X2624929Y340772D01*
X2624838Y340812D01*
X2624752Y340860D01*
X2624693Y340875D01*
X2624638Y340899D01*
X2624540Y340914D01*
X2624444Y340939D01*
X2624344Y340945D01*
X2624323Y340949D01*
X2624311Y340947D01*
X2624283Y340949D01*
X2258287Y340949D01*
X2258218Y340941D01*
X2258148Y340942D01*
X2258060Y340921D01*
X2257971Y340909D01*
X2257907Y340884D01*
X2257839Y340867D01*
X2257759Y340825D01*
X2257676Y340792D01*
X2257619Y340751D01*
X2257558Y340719D01*
X2257491Y340658D01*
X2257418Y340606D01*
X2257374Y340552D01*
X2257322Y340505D01*
X2257273Y340430D01*
X2257216Y340361D01*
X2257186Y340297D01*
X2257147Y340239D01*
X2257118Y340154D01*
X2257080Y340073D01*
X2257067Y340004D01*
X2257044Y339938D01*
X2257037Y339849D01*
X2257020Y339761D01*
X2257025Y339691D01*
X2257019Y339621D01*
X2257034Y339533D01*
X2257040Y339443D01*
X2257061Y339377D01*
X2257073Y339308D01*
X2257110Y339226D01*
X2257138Y339141D01*
X2257175Y339082D01*
X2257204Y339018D01*
X2257260Y338948D01*
X2257308Y338872D01*
X2257359Y338824D01*
X2257403Y338770D01*
X2257474Y338715D01*
X2257540Y338654D01*
X2257601Y338620D01*
X2257657Y338578D01*
X2257801Y338507D01*
X2263491Y336150D01*
X2312185Y287456D01*
X2312264Y287396D01*
X2312336Y287328D01*
X2312389Y287299D01*
X2312437Y287262D01*
X2312528Y287222D01*
X2312614Y287174D01*
X2312673Y287159D01*
X2312728Y287135D01*
X2312826Y287120D01*
X2312922Y287095D01*
X2313022Y287089D01*
X2313043Y287085D01*
X2313055Y287087D01*
X2313083Y287085D01*
X2320100Y287085D01*
X2334385Y272800D01*
X2334385Y252600D01*
X2332683Y250898D01*
X2332610Y250803D01*
X2332531Y250714D01*
X2332513Y250678D01*
X2332488Y250646D01*
X2332440Y250537D01*
X2332386Y250431D01*
X2332378Y250392D01*
X2332361Y250354D01*
X2332343Y250237D01*
X2332317Y250121D01*
X2332318Y250080D01*
X2332312Y250040D01*
X2332323Y249922D01*
X2332326Y249803D01*
X2332338Y249764D01*
X2332341Y249724D01*
X2332382Y249611D01*
X2332415Y249497D01*
X2332435Y249463D01*
X2332449Y249424D01*
X2332516Y249326D01*
X2332576Y249223D01*
X2332616Y249178D01*
X2332628Y249161D01*
X2332643Y249148D01*
X2332683Y249103D01*
X2334385Y247400D01*
X2334385Y227200D01*
X2329422Y222237D01*
X2329362Y222159D01*
X2329294Y222087D01*
X2329265Y222034D01*
X2329228Y221986D01*
X2329188Y221895D01*
X2329140Y221808D01*
X2329125Y221750D01*
X2329101Y221694D01*
X2329086Y221596D01*
X2329061Y221500D01*
X2329055Y221400D01*
X2329051Y221380D01*
X2329053Y221368D01*
X2329051Y221340D01*
X2329051Y162856D01*
X2329063Y162758D01*
X2329066Y162659D01*
X2329083Y162600D01*
X2329091Y162540D01*
X2329127Y162448D01*
X2329155Y162353D01*
X2329185Y162301D01*
X2329208Y162245D01*
X2329266Y162165D01*
X2329316Y162079D01*
X2329382Y162004D01*
X2329394Y161987D01*
X2329404Y161979D01*
X2329422Y161958D01*
X2334089Y157292D01*
X2336796Y150757D01*
X2336796Y127683D01*
X2334089Y121148D01*
X2329087Y116146D01*
X2322339Y113351D01*
X2322314Y113337D01*
X2322286Y113327D01*
X2322272Y113319D01*
X2311270Y113319D01*
X2311152Y113304D01*
X2311033Y113297D01*
X2310995Y113284D01*
X2310955Y113279D01*
X2310844Y113235D01*
X2310731Y113199D01*
X2310696Y113177D01*
X2310659Y113162D01*
X2310563Y113092D01*
X2310462Y113029D01*
X2310434Y112999D01*
X2310402Y112975D01*
X2310326Y112884D01*
X2310244Y112797D01*
X2310225Y112762D01*
X2310199Y112730D01*
X2310148Y112623D01*
X2310091Y112519D01*
X2310080Y112479D01*
X2310063Y112443D01*
X2310041Y112326D01*
X2310011Y112211D01*
X2310007Y112150D01*
X2310003Y112130D01*
X2310005Y112110D01*
X2310001Y112050D01*
X2310001Y110779D01*
X2309999Y110779D01*
X2309999Y112050D01*
X2309984Y112168D01*
X2309977Y112287D01*
X2309964Y112325D01*
X2309959Y112365D01*
X2309915Y112476D01*
X2309879Y112589D01*
X2309857Y112624D01*
X2309842Y112661D01*
X2309772Y112757D01*
X2309709Y112858D01*
X2309679Y112886D01*
X2309655Y112918D01*
X2309564Y112994D01*
X2309477Y113076D01*
X2309442Y113095D01*
X2309410Y113121D01*
X2309303Y113172D01*
X2309199Y113229D01*
X2309159Y113240D01*
X2309123Y113257D01*
X2309006Y113279D01*
X2308891Y113309D01*
X2308830Y113313D01*
X2308810Y113317D01*
X2308790Y113315D01*
X2308730Y113319D01*
X2297726Y113319D01*
X2297661Y113351D01*
X2290913Y116146D01*
X2285911Y121148D01*
X2283204Y127683D01*
X2283204Y150757D01*
X2285911Y157292D01*
X2290578Y161958D01*
X2290638Y162037D01*
X2290706Y162109D01*
X2290735Y162162D01*
X2290772Y162210D01*
X2290812Y162301D01*
X2290860Y162387D01*
X2290875Y162446D01*
X2290899Y162501D01*
X2290914Y162599D01*
X2290939Y162695D01*
X2290945Y162795D01*
X2290949Y162815D01*
X2290947Y162828D01*
X2290949Y162856D01*
X2290949Y221340D01*
X2290937Y221438D01*
X2290934Y221537D01*
X2290917Y221595D01*
X2290909Y221655D01*
X2290873Y221747D01*
X2290845Y221843D01*
X2290815Y221895D01*
X2290792Y221951D01*
X2290734Y222031D01*
X2290684Y222116D01*
X2290618Y222192D01*
X2290606Y222208D01*
X2290596Y222216D01*
X2290578Y222237D01*
X2285615Y227200D01*
X2285615Y247400D01*
X2287317Y249103D01*
X2287390Y249197D01*
X2287469Y249286D01*
X2287487Y249322D01*
X2287512Y249354D01*
X2287560Y249463D01*
X2287614Y249569D01*
X2287622Y249608D01*
X2287639Y249646D01*
X2287657Y249763D01*
X2287683Y249879D01*
X2287682Y249920D01*
X2287688Y249960D01*
X2287677Y250078D01*
X2287674Y250197D01*
X2287662Y250236D01*
X2287659Y250276D01*
X2287618Y250388D01*
X2287585Y250503D01*
X2287565Y250538D01*
X2287551Y250576D01*
X2287484Y250674D01*
X2287424Y250777D01*
X2287384Y250822D01*
X2287372Y250839D01*
X2287357Y250852D01*
X2287317Y250898D01*
X2285615Y252600D01*
X2285615Y259617D01*
X2285603Y259715D01*
X2285600Y259814D01*
X2285583Y259873D01*
X2285575Y259933D01*
X2285539Y260025D01*
X2285511Y260120D01*
X2285481Y260172D01*
X2285458Y260228D01*
X2285400Y260308D01*
X2285350Y260394D01*
X2285284Y260469D01*
X2285272Y260486D01*
X2285262Y260494D01*
X2285244Y260515D01*
X2245181Y300578D01*
X2245102Y300638D01*
X2245030Y300706D01*
X2244977Y300735D01*
X2244929Y300772D01*
X2244838Y300812D01*
X2244752Y300860D01*
X2244693Y300875D01*
X2244638Y300899D01*
X2244540Y300914D01*
X2244444Y300939D01*
X2244344Y300945D01*
X2244323Y300949D01*
X2244311Y300947D01*
X2244283Y300949D01*
X1922540Y300949D01*
X1922422Y300934D01*
X1922303Y300927D01*
X1922265Y300914D01*
X1922224Y300909D01*
X1922114Y300866D01*
X1922001Y300829D01*
X1921966Y300807D01*
X1921929Y300792D01*
X1921833Y300723D01*
X1921732Y300659D01*
X1921704Y300629D01*
X1921671Y300606D01*
X1921595Y300514D01*
X1921514Y300427D01*
X1921494Y300392D01*
X1921469Y300361D01*
X1921418Y300253D01*
X1921360Y300149D01*
X1921350Y300109D01*
X1921333Y300073D01*
X1921311Y299956D01*
X1921281Y299841D01*
X1921277Y299781D01*
X1921273Y299761D01*
X1921275Y299740D01*
X1921271Y299680D01*
X1921271Y269474D01*
X1920526Y268729D01*
X1915654Y268729D01*
X1915536Y268714D01*
X1915417Y268707D01*
X1915379Y268694D01*
X1915338Y268689D01*
X1915228Y268646D01*
X1915115Y268609D01*
X1915080Y268587D01*
X1915043Y268572D01*
X1914947Y268503D01*
X1914846Y268439D01*
X1914818Y268409D01*
X1914785Y268386D01*
X1914709Y268294D01*
X1914628Y268207D01*
X1914608Y268172D01*
X1914583Y268141D01*
X1914532Y268033D01*
X1914474Y267929D01*
X1914464Y267889D01*
X1914447Y267853D01*
X1914425Y267736D01*
X1914395Y267621D01*
X1914391Y267561D01*
X1914387Y267541D01*
X1914389Y267520D01*
X1914385Y267460D01*
X1914385Y252600D01*
X1912683Y250897D01*
X1912610Y250803D01*
X1912531Y250714D01*
X1912513Y250678D01*
X1912488Y250646D01*
X1912440Y250537D01*
X1912386Y250431D01*
X1912378Y250392D01*
X1912361Y250354D01*
X1912343Y250237D01*
X1912317Y250121D01*
X1912318Y250080D01*
X1912312Y250040D01*
X1912323Y249922D01*
X1912326Y249803D01*
X1912338Y249764D01*
X1912341Y249724D01*
X1912382Y249612D01*
X1912415Y249497D01*
X1912435Y249462D01*
X1912449Y249424D01*
X1912516Y249326D01*
X1912576Y249223D01*
X1912616Y249178D01*
X1912628Y249161D01*
X1912643Y249148D01*
X1912683Y249102D01*
X1914385Y247400D01*
X1914385Y227200D01*
X1909422Y222237D01*
X1909362Y222159D01*
X1909294Y222087D01*
X1909265Y222034D01*
X1909228Y221986D01*
X1909188Y221895D01*
X1909140Y221808D01*
X1909125Y221750D01*
X1909101Y221694D01*
X1909086Y221596D01*
X1909061Y221500D01*
X1909055Y221400D01*
X1909051Y221380D01*
X1909053Y221368D01*
X1909051Y221340D01*
X1909051Y162856D01*
X1909063Y162758D01*
X1909066Y162659D01*
X1909083Y162600D01*
X1909091Y162540D01*
X1909127Y162448D01*
X1909155Y162353D01*
X1909185Y162301D01*
X1909208Y162245D01*
X1909266Y162165D01*
X1909316Y162079D01*
X1909382Y162004D01*
X1909394Y161987D01*
X1909404Y161979D01*
X1909422Y161958D01*
X1914089Y157292D01*
X1916796Y150757D01*
X1916796Y127683D01*
X1914089Y121148D01*
X1909087Y116146D01*
X1902339Y113351D01*
X1902314Y113337D01*
X1902286Y113327D01*
X1902272Y113319D01*
X1891270Y113319D01*
X1891152Y113304D01*
X1891033Y113297D01*
X1890995Y113284D01*
X1890955Y113279D01*
X1890844Y113235D01*
X1890731Y113199D01*
X1890696Y113177D01*
X1890659Y113162D01*
X1890563Y113092D01*
X1890462Y113029D01*
X1890434Y112999D01*
X1890402Y112975D01*
X1890326Y112884D01*
X1890244Y112797D01*
X1890225Y112762D01*
X1890199Y112730D01*
X1890148Y112623D01*
X1890091Y112519D01*
X1890080Y112479D01*
X1890063Y112443D01*
X1890041Y112326D01*
X1890011Y112211D01*
X1890007Y112150D01*
X1890003Y112130D01*
X1890005Y112110D01*
X1890001Y112050D01*
X1890001Y110779D01*
X1889999Y110779D01*
X1889999Y112050D01*
X1889984Y112168D01*
X1889977Y112287D01*
X1889964Y112325D01*
X1889959Y112365D01*
X1889915Y112476D01*
X1889879Y112589D01*
X1889857Y112624D01*
X1889842Y112661D01*
X1889772Y112757D01*
X1889709Y112858D01*
X1889679Y112886D01*
X1889655Y112918D01*
X1889564Y112994D01*
X1889477Y113076D01*
X1889442Y113095D01*
X1889410Y113121D01*
X1889303Y113172D01*
X1889199Y113229D01*
X1889159Y113240D01*
X1889123Y113257D01*
X1889006Y113279D01*
X1888891Y113309D01*
X1888830Y113313D01*
X1888810Y113317D01*
X1888790Y113315D01*
X1888730Y113319D01*
X1877726Y113319D01*
X1877661Y113351D01*
X1870913Y116146D01*
X1865911Y121148D01*
X1863204Y127683D01*
X1863204Y150757D01*
X1865911Y157292D01*
X1870578Y161958D01*
X1870638Y162037D01*
X1870706Y162109D01*
X1870735Y162162D01*
X1870772Y162210D01*
X1870812Y162301D01*
X1870860Y162387D01*
X1870875Y162446D01*
X1870899Y162501D01*
X1870914Y162599D01*
X1870939Y162695D01*
X1870945Y162795D01*
X1870949Y162815D01*
X1870947Y162828D01*
X1870949Y162856D01*
X1870949Y221340D01*
X1870937Y221438D01*
X1870934Y221537D01*
X1870917Y221595D01*
X1870909Y221655D01*
X1870873Y221747D01*
X1870845Y221843D01*
X1870815Y221895D01*
X1870792Y221951D01*
X1870734Y222031D01*
X1870684Y222116D01*
X1870618Y222192D01*
X1870606Y222208D01*
X1870596Y222216D01*
X1870578Y222237D01*
X1865615Y227200D01*
X1865615Y242380D01*
X1865600Y242498D01*
X1865593Y242617D01*
X1865580Y242655D01*
X1865575Y242696D01*
X1865532Y242806D01*
X1865495Y242919D01*
X1865473Y242954D01*
X1865458Y242991D01*
X1865389Y243087D01*
X1865325Y243188D01*
X1865295Y243216D01*
X1865272Y243249D01*
X1865180Y243325D01*
X1865093Y243406D01*
X1865058Y243426D01*
X1865027Y243451D01*
X1864919Y243502D01*
X1864815Y243560D01*
X1864775Y243570D01*
X1864739Y243587D01*
X1864622Y243609D01*
X1864507Y243639D01*
X1864447Y243643D01*
X1864427Y243647D01*
X1864406Y243645D01*
X1864346Y243649D01*
X1666611Y243649D01*
X1659609Y246550D01*
X1481961Y424198D01*
X1481882Y424258D01*
X1481810Y424326D01*
X1481757Y424355D01*
X1481709Y424392D01*
X1481618Y424432D01*
X1481532Y424480D01*
X1481473Y424495D01*
X1481418Y424519D01*
X1481320Y424534D01*
X1481224Y424559D01*
X1481124Y424565D01*
X1481103Y424569D01*
X1481091Y424567D01*
X1481063Y424569D01*
X1479752Y424569D01*
X1478348Y424945D01*
X1478224Y424962D01*
X1478100Y424986D01*
X1478067Y424984D01*
X1478033Y424989D01*
X1477908Y424974D01*
X1477783Y424966D01*
X1477751Y424956D01*
X1477717Y424952D01*
X1477600Y424907D01*
X1477481Y424868D01*
X1477452Y424850D01*
X1477421Y424838D01*
X1477318Y424765D01*
X1477212Y424698D01*
X1477189Y424673D01*
X1477161Y424654D01*
X1477080Y424558D01*
X1476994Y424466D01*
X1476978Y424437D01*
X1476956Y424411D01*
X1476901Y424298D01*
X1476840Y424188D01*
X1476832Y424155D01*
X1476817Y424125D01*
X1476792Y424002D01*
X1476761Y423880D01*
X1476758Y423831D01*
X1476754Y423813D01*
X1476755Y423792D01*
X1476751Y423719D01*
X1476751Y288354D01*
X1476766Y288236D01*
X1476773Y288117D01*
X1476786Y288079D01*
X1476791Y288038D01*
X1476834Y287928D01*
X1476871Y287815D01*
X1476893Y287780D01*
X1476908Y287743D01*
X1476977Y287647D01*
X1477041Y287546D01*
X1477071Y287518D01*
X1477094Y287485D01*
X1477186Y287409D01*
X1477273Y287328D01*
X1477308Y287308D01*
X1477339Y287283D01*
X1477447Y287232D01*
X1477551Y287174D01*
X1477591Y287164D01*
X1477627Y287147D01*
X1477744Y287125D01*
X1477859Y287095D01*
X1477919Y287091D01*
X1477939Y287087D01*
X1477960Y287089D01*
X1478020Y287085D01*
X1480100Y287085D01*
X1494385Y272800D01*
X1494385Y252600D01*
X1492683Y250898D01*
X1492610Y250803D01*
X1492531Y250714D01*
X1492513Y250678D01*
X1492488Y250646D01*
X1492440Y250537D01*
X1492386Y250431D01*
X1492378Y250392D01*
X1492361Y250354D01*
X1492343Y250237D01*
X1492317Y250121D01*
X1492318Y250080D01*
X1492312Y250040D01*
X1492323Y249922D01*
X1492326Y249803D01*
X1492338Y249764D01*
X1492341Y249724D01*
X1492382Y249611D01*
X1492415Y249497D01*
X1492435Y249463D01*
X1492449Y249424D01*
X1492516Y249326D01*
X1492576Y249223D01*
X1492616Y249178D01*
X1492628Y249161D01*
X1492643Y249148D01*
X1492683Y249103D01*
X1494385Y247400D01*
X1494385Y227200D01*
X1489422Y222237D01*
X1489362Y222159D01*
X1489294Y222087D01*
X1489265Y222034D01*
X1489228Y221986D01*
X1489188Y221895D01*
X1489140Y221808D01*
X1489125Y221750D01*
X1489101Y221694D01*
X1489086Y221596D01*
X1489061Y221500D01*
X1489055Y221400D01*
X1489051Y221380D01*
X1489053Y221368D01*
X1489051Y221340D01*
X1489051Y162856D01*
X1489063Y162758D01*
X1489066Y162659D01*
X1489083Y162600D01*
X1489091Y162540D01*
X1489127Y162448D01*
X1489155Y162353D01*
X1489185Y162301D01*
X1489208Y162245D01*
X1489266Y162165D01*
X1489316Y162079D01*
X1489382Y162004D01*
X1489394Y161987D01*
X1489404Y161979D01*
X1489422Y161958D01*
X1494089Y157292D01*
X1496796Y150757D01*
X1496796Y127683D01*
X1494089Y121148D01*
X1489087Y116146D01*
X1482339Y113351D01*
X1482314Y113337D01*
X1482286Y113328D01*
X1482272Y113319D01*
X1471270Y113319D01*
X1471152Y113304D01*
X1471033Y113297D01*
X1470995Y113284D01*
X1470955Y113279D01*
X1470844Y113235D01*
X1470731Y113199D01*
X1470696Y113177D01*
X1470659Y113162D01*
X1470563Y113092D01*
X1470462Y113029D01*
X1470434Y112999D01*
X1470402Y112975D01*
X1470326Y112884D01*
X1470244Y112797D01*
X1470225Y112762D01*
X1470199Y112730D01*
X1470148Y112623D01*
X1470091Y112519D01*
X1470080Y112479D01*
X1470063Y112443D01*
X1470041Y112326D01*
X1470011Y112211D01*
X1470007Y112150D01*
X1470003Y112130D01*
X1470005Y112110D01*
X1470001Y112050D01*
X1470001Y110779D01*
X1469999Y110779D01*
X1469999Y112050D01*
X1469984Y112168D01*
X1469977Y112287D01*
X1469964Y112325D01*
X1469959Y112365D01*
X1469915Y112476D01*
X1469879Y112589D01*
X1469857Y112624D01*
X1469842Y112661D01*
X1469772Y112757D01*
X1469709Y112858D01*
X1469679Y112886D01*
X1469655Y112918D01*
X1469564Y112994D01*
X1469477Y113076D01*
X1469442Y113095D01*
X1469410Y113121D01*
X1469303Y113172D01*
X1469199Y113229D01*
X1469159Y113240D01*
X1469123Y113257D01*
X1469006Y113279D01*
X1468891Y113309D01*
X1468830Y113313D01*
X1468810Y113317D01*
X1468790Y113315D01*
X1468730Y113319D01*
X1457726Y113319D01*
X1457661Y113351D01*
X1450913Y116146D01*
X1445911Y121148D01*
X1443204Y127683D01*
X1443204Y150757D01*
X1445911Y157292D01*
X1450578Y161958D01*
X1450638Y162037D01*
X1450706Y162109D01*
X1450735Y162162D01*
X1450772Y162210D01*
X1450812Y162301D01*
X1450860Y162387D01*
X1450875Y162446D01*
X1450899Y162501D01*
X1450914Y162599D01*
X1450939Y162695D01*
X1450945Y162795D01*
X1450949Y162815D01*
X1450947Y162828D01*
X1450949Y162856D01*
X1450949Y221340D01*
X1450937Y221438D01*
X1450934Y221537D01*
X1450917Y221595D01*
X1450909Y221655D01*
X1450873Y221747D01*
X1450845Y221842D01*
X1450815Y221895D01*
X1450792Y221951D01*
X1450734Y222031D01*
X1450684Y222116D01*
X1450618Y222192D01*
X1450606Y222208D01*
X1450596Y222216D01*
X1450578Y222237D01*
X1445615Y227200D01*
X1445615Y247400D01*
X1447317Y249103D01*
X1447390Y249197D01*
X1447469Y249286D01*
X1447487Y249322D01*
X1447512Y249354D01*
X1447560Y249463D01*
X1447614Y249569D01*
X1447622Y249608D01*
X1447639Y249646D01*
X1447657Y249763D01*
X1447683Y249879D01*
X1447682Y249920D01*
X1447688Y249960D01*
X1447677Y250078D01*
X1447674Y250197D01*
X1447662Y250236D01*
X1447659Y250276D01*
X1447618Y250388D01*
X1447585Y250503D01*
X1447565Y250538D01*
X1447551Y250576D01*
X1447484Y250674D01*
X1447424Y250777D01*
X1447384Y250822D01*
X1447372Y250839D01*
X1447357Y250852D01*
X1447317Y250898D01*
X1445615Y252600D01*
X1445615Y259617D01*
X1445603Y259715D01*
X1445600Y259814D01*
X1445583Y259873D01*
X1445575Y259933D01*
X1445539Y260025D01*
X1445511Y260120D01*
X1445481Y260172D01*
X1445458Y260228D01*
X1445400Y260308D01*
X1445350Y260394D01*
X1445284Y260469D01*
X1445272Y260486D01*
X1445262Y260494D01*
X1445244Y260515D01*
X1441550Y264209D01*
X1438649Y271211D01*
X1438649Y423719D01*
X1438634Y423844D01*
X1438624Y423969D01*
X1438614Y424001D01*
X1438609Y424035D01*
X1438563Y424152D01*
X1438523Y424271D01*
X1438505Y424299D01*
X1438492Y424331D01*
X1438418Y424432D01*
X1438350Y424538D01*
X1438325Y424561D01*
X1438306Y424588D01*
X1438209Y424668D01*
X1438116Y424753D01*
X1438087Y424769D01*
X1438061Y424791D01*
X1437947Y424844D01*
X1437836Y424904D01*
X1437803Y424912D01*
X1437773Y424926D01*
X1437649Y424950D01*
X1437527Y424980D01*
X1437494Y424980D01*
X1437461Y424986D01*
X1437335Y424978D01*
X1437209Y424977D01*
X1437161Y424967D01*
X1437143Y424966D01*
X1437123Y424960D01*
X1437052Y424945D01*
X1435648Y424569D01*
X1434337Y424569D01*
X1434239Y424557D01*
X1434140Y424554D01*
X1434081Y424537D01*
X1434021Y424529D01*
X1433929Y424493D01*
X1433834Y424465D01*
X1433782Y424435D01*
X1433726Y424412D01*
X1433646Y424354D01*
X1433560Y424304D01*
X1433485Y424238D01*
X1433468Y424226D01*
X1433460Y424216D01*
X1433439Y424198D01*
X1255791Y246550D01*
X1248789Y243649D01*
X1075654Y243649D01*
X1075536Y243634D01*
X1075417Y243627D01*
X1075379Y243614D01*
X1075338Y243609D01*
X1075228Y243566D01*
X1075115Y243529D01*
X1075080Y243507D01*
X1075043Y243492D01*
X1074947Y243423D01*
X1074846Y243359D01*
X1074818Y243329D01*
X1074785Y243306D01*
X1074709Y243214D01*
X1074628Y243127D01*
X1074608Y243092D01*
X1074583Y243061D01*
X1074532Y242953D01*
X1074474Y242849D01*
X1074464Y242809D01*
X1074447Y242773D01*
X1074425Y242656D01*
X1074395Y242541D01*
X1074391Y242481D01*
X1074387Y242461D01*
X1074389Y242440D01*
X1074385Y242380D01*
X1074385Y227200D01*
X1069422Y222237D01*
X1069362Y222159D01*
X1069294Y222087D01*
X1069265Y222034D01*
X1069228Y221986D01*
X1069188Y221895D01*
X1069140Y221808D01*
X1069125Y221750D01*
X1069101Y221694D01*
X1069086Y221596D01*
X1069061Y221500D01*
X1069055Y221400D01*
X1069051Y221380D01*
X1069053Y221368D01*
X1069051Y221340D01*
X1069051Y162856D01*
X1069063Y162758D01*
X1069066Y162659D01*
X1069083Y162600D01*
X1069091Y162540D01*
X1069127Y162448D01*
X1069155Y162353D01*
X1069185Y162301D01*
X1069208Y162245D01*
X1069266Y162165D01*
X1069316Y162079D01*
X1069382Y162004D01*
X1069394Y161987D01*
X1069404Y161979D01*
X1069422Y161958D01*
X1074089Y157292D01*
X1076796Y150757D01*
X1076796Y127683D01*
X1074089Y121148D01*
X1069087Y116146D01*
X1062339Y113351D01*
X1062314Y113337D01*
X1062286Y113328D01*
X1062272Y113319D01*
X1051270Y113319D01*
X1051152Y113304D01*
X1051033Y113297D01*
X1050995Y113284D01*
X1050955Y113279D01*
X1050844Y113235D01*
X1050731Y113199D01*
X1050696Y113177D01*
X1050659Y113162D01*
X1050563Y113092D01*
X1050462Y113029D01*
X1050434Y112999D01*
X1050402Y112975D01*
X1050326Y112884D01*
X1050244Y112797D01*
X1050225Y112762D01*
X1050199Y112730D01*
X1050148Y112623D01*
X1050091Y112519D01*
X1050080Y112479D01*
X1050063Y112443D01*
X1050041Y112326D01*
X1050011Y112211D01*
X1050007Y112150D01*
X1050003Y112130D01*
X1050005Y112110D01*
X1050001Y112050D01*
X1050001Y110779D01*
X1049999Y110779D01*
X1049999Y112050D01*
X1049984Y112168D01*
X1049977Y112287D01*
X1049964Y112325D01*
X1049959Y112365D01*
X1049915Y112476D01*
X1049879Y112589D01*
X1049857Y112624D01*
X1049842Y112661D01*
X1049772Y112757D01*
X1049709Y112858D01*
X1049679Y112886D01*
X1049655Y112918D01*
X1049564Y112994D01*
X1049477Y113076D01*
X1049442Y113095D01*
X1049410Y113121D01*
X1049303Y113172D01*
X1049199Y113229D01*
X1049159Y113240D01*
X1049123Y113257D01*
X1049006Y113279D01*
X1048891Y113309D01*
X1048830Y113313D01*
X1048810Y113317D01*
X1048790Y113315D01*
X1048730Y113319D01*
X1037726Y113319D01*
X1037661Y113351D01*
X1030913Y116146D01*
X1025911Y121148D01*
X1023204Y127683D01*
X1023204Y150757D01*
X1025911Y157292D01*
X1030578Y161958D01*
X1030638Y162037D01*
X1030706Y162109D01*
X1030735Y162162D01*
X1030772Y162210D01*
X1030812Y162301D01*
X1030860Y162387D01*
X1030875Y162446D01*
X1030899Y162501D01*
X1030914Y162599D01*
X1030939Y162695D01*
X1030945Y162795D01*
X1030949Y162815D01*
X1030947Y162828D01*
X1030949Y162856D01*
X1030949Y221340D01*
X1030937Y221438D01*
X1030934Y221537D01*
X1030917Y221595D01*
X1030909Y221655D01*
X1030873Y221747D01*
X1030845Y221842D01*
X1030815Y221895D01*
X1030792Y221951D01*
X1030734Y222031D01*
X1030684Y222116D01*
X1030618Y222192D01*
X1030606Y222208D01*
X1030596Y222216D01*
X1030578Y222237D01*
X1025615Y227200D01*
X1025615Y247400D01*
X1027317Y249103D01*
X1027390Y249197D01*
X1027469Y249286D01*
X1027487Y249322D01*
X1027512Y249354D01*
X1027560Y249463D01*
X1027614Y249569D01*
X1027622Y249608D01*
X1027639Y249646D01*
X1027657Y249763D01*
X1027683Y249879D01*
X1027682Y249920D01*
X1027688Y249960D01*
X1027677Y250078D01*
X1027674Y250197D01*
X1027662Y250236D01*
X1027659Y250276D01*
X1027618Y250388D01*
X1027585Y250503D01*
X1027565Y250538D01*
X1027551Y250576D01*
X1027484Y250674D01*
X1027424Y250777D01*
X1027384Y250822D01*
X1027372Y250839D01*
X1027357Y250852D01*
X1027317Y250898D01*
X1025615Y252600D01*
X1025615Y267460D01*
X1025600Y267578D01*
X1025593Y267697D01*
X1025580Y267735D01*
X1025575Y267776D01*
X1025532Y267886D01*
X1025495Y267999D01*
X1025473Y268034D01*
X1025458Y268071D01*
X1025389Y268167D01*
X1025325Y268268D01*
X1025295Y268296D01*
X1025272Y268329D01*
X1025180Y268405D01*
X1025093Y268486D01*
X1025058Y268506D01*
X1025027Y268531D01*
X1024919Y268582D01*
X1024815Y268640D01*
X1024775Y268650D01*
X1024739Y268667D01*
X1024622Y268689D01*
X1024507Y268719D01*
X1024447Y268723D01*
X1024427Y268727D01*
X1024406Y268725D01*
X1024346Y268729D01*
X1019474Y268729D01*
X1018729Y269474D01*
X1018729Y299680D01*
X1018714Y299798D01*
X1018707Y299917D01*
X1018694Y299955D01*
X1018689Y299996D01*
X1018646Y300106D01*
X1018609Y300219D01*
X1018587Y300254D01*
X1018572Y300291D01*
X1018503Y300387D01*
X1018439Y300488D01*
X1018409Y300516D01*
X1018386Y300549D01*
X1018294Y300625D01*
X1018207Y300706D01*
X1018172Y300726D01*
X1018141Y300751D01*
X1018033Y300802D01*
X1017929Y300860D01*
X1017889Y300870D01*
X1017853Y300887D01*
X1017736Y300909D01*
X1017621Y300939D01*
X1017561Y300943D01*
X1017541Y300947D01*
X1017520Y300945D01*
X1017460Y300949D01*
X695717Y300949D01*
X695619Y300937D01*
X695520Y300934D01*
X695461Y300917D01*
X695401Y300909D01*
X695309Y300873D01*
X695214Y300845D01*
X695162Y300815D01*
X695106Y300792D01*
X695026Y300734D01*
X694940Y300684D01*
X694865Y300618D01*
X694848Y300606D01*
X694840Y300596D01*
X694819Y300578D01*
X654756Y260515D01*
X654696Y260436D01*
X654628Y260364D01*
X654599Y260311D01*
X654562Y260263D01*
X654522Y260172D01*
X654474Y260086D01*
X654459Y260027D01*
X654435Y259972D01*
X654420Y259874D01*
X654395Y259778D01*
X654389Y259678D01*
X654385Y259657D01*
X654387Y259645D01*
X654385Y259617D01*
X654385Y252600D01*
X652683Y250898D01*
X652610Y250803D01*
X652531Y250714D01*
X652513Y250678D01*
X652488Y250646D01*
X652440Y250537D01*
X652386Y250431D01*
X652378Y250392D01*
X652361Y250354D01*
X652343Y250237D01*
X652317Y250121D01*
X652318Y250080D01*
X652312Y250040D01*
X652323Y249922D01*
X652326Y249803D01*
X652338Y249764D01*
X652341Y249724D01*
X652382Y249611D01*
X652415Y249497D01*
X652435Y249463D01*
X652449Y249424D01*
X652516Y249326D01*
X652576Y249223D01*
X652616Y249178D01*
X652628Y249161D01*
X652643Y249148D01*
X652683Y249103D01*
X654385Y247400D01*
X654385Y227200D01*
X649422Y222237D01*
X649362Y222159D01*
X649294Y222087D01*
X649265Y222034D01*
X649228Y221986D01*
X649188Y221895D01*
X649140Y221808D01*
X649125Y221750D01*
X649101Y221694D01*
X649086Y221596D01*
X649061Y221500D01*
X649055Y221400D01*
X649051Y221380D01*
X649053Y221368D01*
X649051Y221340D01*
X649051Y162856D01*
X649063Y162758D01*
X649066Y162659D01*
X649083Y162600D01*
X649091Y162540D01*
X649127Y162448D01*
X649155Y162353D01*
X649185Y162301D01*
X649208Y162245D01*
X649266Y162164D01*
X649316Y162079D01*
X649382Y162004D01*
X649394Y161987D01*
X649404Y161979D01*
X649422Y161958D01*
X654089Y157292D01*
X656796Y150757D01*
X656796Y127683D01*
X654089Y121148D01*
X649087Y116146D01*
X642339Y113351D01*
X642314Y113337D01*
X642286Y113328D01*
X642272Y113319D01*
X631270Y113319D01*
X631152Y113304D01*
X631033Y113297D01*
X630995Y113284D01*
X630955Y113279D01*
X630844Y113235D01*
X630731Y113199D01*
X630696Y113177D01*
X630659Y113162D01*
X630563Y113092D01*
X630462Y113029D01*
X630434Y112999D01*
X630402Y112975D01*
X630326Y112884D01*
X630244Y112797D01*
X630225Y112762D01*
X630199Y112730D01*
X630148Y112623D01*
X630091Y112519D01*
X630080Y112479D01*
X630063Y112443D01*
X630041Y112326D01*
X630011Y112211D01*
X630007Y112150D01*
X630003Y112130D01*
X630005Y112110D01*
X630001Y112050D01*
X630001Y110779D01*
X629999Y110779D01*
X629999Y112050D01*
X629984Y112168D01*
X629977Y112287D01*
X629964Y112325D01*
X629959Y112365D01*
X629915Y112476D01*
X629879Y112589D01*
X629857Y112624D01*
X629842Y112661D01*
X629772Y112757D01*
X629709Y112858D01*
X629679Y112886D01*
X629655Y112918D01*
X629564Y112994D01*
X629477Y113076D01*
X629442Y113095D01*
X629410Y113121D01*
X629303Y113172D01*
X629199Y113229D01*
X629159Y113240D01*
X629123Y113257D01*
X629006Y113279D01*
X628891Y113309D01*
X628830Y113313D01*
X628810Y113317D01*
X628790Y113315D01*
X628730Y113319D01*
X617726Y113319D01*
X617661Y113351D01*
X610913Y116146D01*
X605911Y121148D01*
X603204Y127683D01*
X603204Y150757D01*
X605911Y157292D01*
X610578Y161958D01*
X610638Y162037D01*
X610706Y162109D01*
X610735Y162162D01*
X610772Y162210D01*
X610812Y162300D01*
X610860Y162387D01*
X610875Y162446D01*
X610899Y162501D01*
X610914Y162599D01*
X610939Y162695D01*
X610945Y162795D01*
X610949Y162815D01*
X610947Y162828D01*
X610949Y162856D01*
X610949Y221340D01*
X610937Y221438D01*
X610934Y221537D01*
X610917Y221595D01*
X610909Y221655D01*
X610873Y221747D01*
X610845Y221842D01*
X610815Y221895D01*
X610792Y221951D01*
X610734Y222031D01*
X610684Y222116D01*
X610618Y222192D01*
X610606Y222208D01*
X610596Y222216D01*
X610578Y222237D01*
X605615Y227200D01*
X605615Y247400D01*
X607317Y249103D01*
X607390Y249197D01*
X607469Y249286D01*
X607487Y249322D01*
X607512Y249354D01*
X607560Y249463D01*
X607614Y249569D01*
X607622Y249608D01*
X607639Y249646D01*
X607657Y249763D01*
X607683Y249879D01*
X607682Y249920D01*
X607688Y249960D01*
X607677Y250078D01*
X607674Y250197D01*
X607662Y250236D01*
X607659Y250276D01*
X607618Y250388D01*
X607585Y250503D01*
X607565Y250538D01*
X607551Y250576D01*
X607484Y250674D01*
X607424Y250777D01*
X607384Y250822D01*
X607372Y250839D01*
X607357Y250852D01*
X607317Y250898D01*
X605615Y252600D01*
X605615Y272800D01*
X619900Y287085D01*
X626917Y287085D01*
X627015Y287097D01*
X627114Y287100D01*
X627173Y287117D01*
X627233Y287125D01*
X627325Y287161D01*
X627420Y287189D01*
X627472Y287219D01*
X627528Y287242D01*
X627608Y287300D01*
X627694Y287350D01*
X627769Y287416D01*
X627786Y287428D01*
X627794Y287438D01*
X627815Y287456D01*
X670971Y330613D01*
X676509Y336150D01*
X682199Y338507D01*
X682259Y338542D01*
X682324Y338568D01*
X682397Y338620D01*
X682475Y338665D01*
X682525Y338713D01*
X682582Y338754D01*
X682639Y338824D01*
X682704Y338886D01*
X682740Y338946D01*
X682785Y338999D01*
X682823Y339081D01*
X682870Y339157D01*
X682890Y339224D01*
X682920Y339287D01*
X682937Y339375D01*
X682963Y339461D01*
X682967Y339531D01*
X682980Y339600D01*
X682974Y339689D01*
X682979Y339779D01*
X682964Y339847D01*
X682960Y339917D01*
X682932Y340002D01*
X682914Y340090D01*
X682884Y340153D01*
X682862Y340219D01*
X682814Y340295D01*
X682775Y340376D01*
X682729Y340429D01*
X682692Y340488D01*
X682627Y340550D01*
X682568Y340618D01*
X682511Y340658D01*
X682460Y340706D01*
X682382Y340749D01*
X682308Y340801D01*
X682243Y340826D01*
X682182Y340860D01*
X682095Y340882D01*
X682011Y340914D01*
X681941Y340922D01*
X681874Y340939D01*
X681713Y340949D01*
X315717Y340949D01*
X315619Y340937D01*
X315520Y340934D01*
X315461Y340917D01*
X315401Y340909D01*
X315309Y340873D01*
X315214Y340845D01*
X315162Y340815D01*
X315106Y340792D01*
X315026Y340734D01*
X314940Y340684D01*
X314865Y340618D01*
X314848Y340606D01*
X314840Y340596D01*
X314819Y340578D01*
X234756Y260515D01*
X234696Y260436D01*
X234628Y260364D01*
X234599Y260311D01*
X234562Y260263D01*
X234522Y260172D01*
X234474Y260086D01*
X234459Y260027D01*
X234435Y259972D01*
X234420Y259874D01*
X234395Y259778D01*
X234389Y259678D01*
X234385Y259657D01*
X234387Y259645D01*
X234385Y259617D01*
X234385Y252600D01*
X232683Y250898D01*
X232610Y250803D01*
X232531Y250714D01*
X232513Y250678D01*
X232488Y250646D01*
X232440Y250537D01*
X232386Y250431D01*
X232378Y250392D01*
X232361Y250354D01*
X232343Y250237D01*
X232317Y250121D01*
X232318Y250080D01*
X232312Y250040D01*
X232323Y249922D01*
X232326Y249803D01*
X232338Y249764D01*
X232341Y249724D01*
X232382Y249611D01*
X232415Y249497D01*
X232435Y249463D01*
X232449Y249424D01*
X232516Y249326D01*
X232576Y249223D01*
X232616Y249178D01*
X232628Y249161D01*
X232643Y249148D01*
X232683Y249103D01*
X234385Y247400D01*
X234385Y227200D01*
X229422Y222237D01*
X229362Y222159D01*
X229294Y222087D01*
X229265Y222034D01*
X229228Y221986D01*
X229188Y221895D01*
X229140Y221808D01*
X229125Y221750D01*
X229101Y221694D01*
X229086Y221596D01*
X229061Y221500D01*
X229055Y221400D01*
X229051Y221380D01*
X229053Y221368D01*
X229051Y221340D01*
X229051Y162856D01*
X229063Y162758D01*
X229066Y162659D01*
X229083Y162600D01*
X229091Y162540D01*
X229127Y162448D01*
X229155Y162353D01*
X229185Y162301D01*
X229208Y162245D01*
X229266Y162164D01*
X229316Y162079D01*
X229382Y162004D01*
X229394Y161987D01*
X229404Y161979D01*
X229422Y161958D01*
X234089Y157292D01*
X236796Y150757D01*
X236796Y127683D01*
X234089Y121148D01*
X229087Y116146D01*
X222339Y113351D01*
X222314Y113337D01*
X222286Y113328D01*
X222272Y113319D01*
X211270Y113319D01*
X211152Y113304D01*
X211033Y113297D01*
X210995Y113284D01*
X210955Y113279D01*
X210844Y113235D01*
X210731Y113199D01*
X210696Y113177D01*
X210659Y113162D01*
X210563Y113092D01*
X210462Y113029D01*
X210434Y112999D01*
X210402Y112975D01*
X210326Y112884D01*
X210244Y112797D01*
X210225Y112762D01*
X210199Y112730D01*
X210148Y112623D01*
X210091Y112519D01*
X210080Y112479D01*
X210063Y112443D01*
X210041Y112326D01*
X210011Y112211D01*
X210007Y112150D01*
X210003Y112130D01*
X210005Y112110D01*
X210001Y112050D01*
X210001Y110779D01*
X209999Y110779D01*
G37*
%LPD*%
%LPC*%
G36*
X2732539Y108241D02*
X2732539Y108241D01*
X2741556Y108241D01*
X2741556Y102446D01*
X2741383Y101799D01*
X2741048Y101220D01*
X2740575Y100747D01*
X2739996Y100412D01*
X2739349Y100239D01*
X2732539Y100239D01*
X2732539Y108241D01*
G37*
%LPD*%
%LPC*%
G36*
X2312539Y108241D02*
X2312539Y108241D01*
X2321556Y108241D01*
X2321556Y102446D01*
X2321383Y101799D01*
X2321048Y101220D01*
X2320575Y100747D01*
X2319996Y100412D01*
X2319349Y100239D01*
X2312539Y100239D01*
X2312539Y108241D01*
G37*
%LPD*%
%LPC*%
G36*
X1892539Y108241D02*
X1892539Y108241D01*
X1901556Y108241D01*
X1901556Y102446D01*
X1901383Y101799D01*
X1901048Y101220D01*
X1900575Y100747D01*
X1899996Y100412D01*
X1899349Y100239D01*
X1892539Y100239D01*
X1892539Y108241D01*
G37*
%LPD*%
%LPC*%
G36*
X1472539Y108241D02*
X1472539Y108241D01*
X1481556Y108241D01*
X1481556Y102446D01*
X1481383Y101799D01*
X1481048Y101220D01*
X1480575Y100747D01*
X1479996Y100412D01*
X1479349Y100239D01*
X1472539Y100239D01*
X1472539Y108241D01*
G37*
%LPD*%
%LPC*%
G36*
X1052539Y108241D02*
X1052539Y108241D01*
X1061556Y108241D01*
X1061556Y102446D01*
X1061383Y101799D01*
X1061048Y101220D01*
X1060575Y100747D01*
X1059996Y100412D01*
X1059349Y100239D01*
X1052539Y100239D01*
X1052539Y108241D01*
G37*
%LPD*%
%LPC*%
G36*
X632539Y108241D02*
X632539Y108241D01*
X641556Y108241D01*
X641556Y102446D01*
X641383Y101799D01*
X641048Y101220D01*
X640575Y100747D01*
X639996Y100412D01*
X639349Y100239D01*
X632539Y100239D01*
X632539Y108241D01*
G37*
%LPD*%
%LPC*%
G36*
X212539Y108241D02*
X212539Y108241D01*
X221556Y108241D01*
X221556Y102446D01*
X221383Y101799D01*
X221048Y101220D01*
X220575Y100747D01*
X219996Y100412D01*
X219349Y100239D01*
X212539Y100239D01*
X212539Y108241D01*
G37*
%LPD*%
%LPC*%
G36*
X200651Y100239D02*
X200651Y100239D01*
X200004Y100412D01*
X199425Y100747D01*
X198952Y101220D01*
X198617Y101799D01*
X198444Y102446D01*
X198444Y108241D01*
X207461Y108241D01*
X207461Y100239D01*
X200651Y100239D01*
G37*
%LPD*%
%LPC*%
G36*
X2720651Y100239D02*
X2720651Y100239D01*
X2720004Y100412D01*
X2719425Y100747D01*
X2718952Y101220D01*
X2718617Y101799D01*
X2718444Y102446D01*
X2718444Y108241D01*
X2727461Y108241D01*
X2727461Y100239D01*
X2720651Y100239D01*
G37*
%LPD*%
%LPC*%
G36*
X2300651Y100239D02*
X2300651Y100239D01*
X2300004Y100412D01*
X2299425Y100747D01*
X2298952Y101220D01*
X2298617Y101799D01*
X2298444Y102446D01*
X2298444Y108241D01*
X2307461Y108241D01*
X2307461Y100239D01*
X2300651Y100239D01*
G37*
%LPD*%
%LPC*%
G36*
X1880651Y100239D02*
X1880651Y100239D01*
X1880004Y100412D01*
X1879425Y100747D01*
X1878952Y101220D01*
X1878617Y101799D01*
X1878444Y102446D01*
X1878444Y108241D01*
X1887461Y108241D01*
X1887461Y100239D01*
X1880651Y100239D01*
G37*
%LPD*%
%LPC*%
G36*
X1460651Y100239D02*
X1460651Y100239D01*
X1460004Y100412D01*
X1459425Y100747D01*
X1458952Y101220D01*
X1458617Y101799D01*
X1458444Y102446D01*
X1458444Y108241D01*
X1467461Y108241D01*
X1467461Y100239D01*
X1460651Y100239D01*
G37*
%LPD*%
%LPC*%
G36*
X1040651Y100239D02*
X1040651Y100239D01*
X1040004Y100412D01*
X1039425Y100747D01*
X1038952Y101220D01*
X1038617Y101799D01*
X1038444Y102446D01*
X1038444Y108241D01*
X1047461Y108241D01*
X1047461Y100239D01*
X1040651Y100239D01*
G37*
%LPD*%
%LPC*%
G36*
X620651Y100239D02*
X620651Y100239D01*
X620004Y100412D01*
X619425Y100747D01*
X618952Y101220D01*
X618617Y101799D01*
X618444Y102446D01*
X618444Y108241D01*
X627461Y108241D01*
X627461Y100239D01*
X620651Y100239D01*
G37*
%LPD*%
%LPC*%
G36*
X1563212Y459444D02*
X1563212Y459444D01*
X1564641Y458716D01*
X1565939Y457773D01*
X1567073Y456639D01*
X1568016Y455341D01*
X1568744Y453912D01*
X1569190Y452539D01*
X1561839Y452539D01*
X1561839Y459890D01*
X1563212Y459444D01*
G37*
%LPD*%
%LPC*%
G36*
X1549410Y452539D02*
X1549410Y452539D01*
X1549856Y453912D01*
X1550584Y455341D01*
X1551527Y456639D01*
X1552661Y457773D01*
X1553959Y458716D01*
X1555388Y459444D01*
X1556761Y459890D01*
X1556761Y452539D01*
X1549410Y452539D01*
G37*
%LPD*%
D10*
X100000Y0D02*
X2840000Y0D01*
X2842416Y29D01*
X2844831Y117D01*
X2847243Y263D01*
X2849651Y467D01*
X2852054Y729D01*
X2854449Y1049D01*
X2856836Y1427D01*
X2859213Y1863D01*
X2861578Y2356D01*
X2863932Y2906D01*
X2866271Y3512D01*
X2868595Y4175D01*
X2870902Y4894D01*
X2873191Y5669D01*
X2875460Y6498D01*
X2877709Y7383D01*
X2879936Y8321D01*
X2882140Y9313D01*
X2884319Y10357D01*
X2886472Y11454D01*
X2888598Y12603D01*
X2890696Y13803D01*
X2892764Y15053D01*
X2894801Y16353D01*
X2896806Y17702D01*
X2898779Y19098D01*
X2900716Y20542D01*
X2902619Y22033D01*
X2904484Y23568D01*
X2906312Y25149D01*
X2908102Y26773D01*
X2909851Y28440D01*
X2911560Y30149D01*
X2913227Y31898D01*
X2914851Y33688D01*
X2916432Y35516D01*
X2917967Y37381D01*
X2919458Y39284D01*
X2920902Y41221D01*
X2922298Y43194D01*
X2923647Y45199D01*
X2924947Y47236D01*
X2926197Y49304D01*
X2927397Y51402D01*
X2928546Y53528D01*
X2929643Y55681D01*
X2930687Y57860D01*
X2931679Y60064D01*
X2932617Y62291D01*
X2933502Y64540D01*
X2934331Y66809D01*
X2935106Y69098D01*
X2935825Y71405D01*
X2936488Y73729D01*
X2937094Y76068D01*
X2937644Y78422D01*
X2938137Y80787D01*
X2938573Y83164D01*
X2938951Y85551D01*
X2939271Y87946D01*
X2939533Y90349D01*
X2939737Y92757D01*
X2939883Y95169D01*
X2939971Y97584D01*
X2940000Y100000D01*
X2940000Y400000D01*
X2939971Y402416D01*
X2939883Y404831D01*
X2939737Y407243D01*
X2939533Y409651D01*
X2939271Y412054D01*
X2938951Y414449D01*
X2938573Y416836D01*
X2938137Y419213D01*
X2937644Y421578D01*
X2937094Y423932D01*
X2936488Y426271D01*
X2935825Y428595D01*
X2935106Y430902D01*
X2934331Y433191D01*
X2933502Y435460D01*
X2932617Y437709D01*
X2931679Y439936D01*
X2930687Y442140D01*
X2929643Y444319D01*
X2928546Y446472D01*
X2927397Y448598D01*
X2926197Y450696D01*
X2924947Y452764D01*
X2923647Y454801D01*
X2922298Y456806D01*
X2920902Y458779D01*
X2919458Y460716D01*
X2917967Y462619D01*
X2916432Y464484D01*
X2914851Y466312D01*
X2913227Y468102D01*
X2911560Y469851D01*
X2909851Y471560D01*
X2908102Y473227D01*
X2906312Y474851D01*
X2904484Y476432D01*
X2902619Y477967D01*
X2900716Y479458D01*
X2898779Y480902D01*
X2896806Y482298D01*
X2894801Y483647D01*
X2892764Y484947D01*
X2890696Y486197D01*
X2888598Y487397D01*
X2886472Y488546D01*
X2884319Y489643D01*
X2882140Y490687D01*
X2879936Y491679D01*
X2877709Y492617D01*
X2875460Y493502D01*
X2873191Y494331D01*
X2870902Y495106D01*
X2868595Y495825D01*
X2866271Y496488D01*
X2863932Y497094D01*
X2861578Y497644D01*
X2859213Y498137D01*
X2856836Y498573D01*
X2854449Y498951D01*
X2852054Y499271D01*
X2849651Y499533D01*
X2847243Y499737D01*
X2844831Y499883D01*
X2842416Y499971D01*
X2840000Y500000D01*
X100000Y500000D01*
X97584Y499971D01*
X95169Y499883D01*
X92757Y499737D01*
X90349Y499533D01*
X87946Y499271D01*
X85551Y498951D01*
X83164Y498573D01*
X80787Y498137D01*
X78422Y497644D01*
X76068Y497094D01*
X73729Y496488D01*
X71405Y495825D01*
X69098Y495106D01*
X66809Y494331D01*
X64540Y493502D01*
X62291Y492617D01*
X60064Y491679D01*
X57860Y490687D01*
X55681Y489643D01*
X53528Y488546D01*
X51402Y487397D01*
X49304Y486197D01*
X47236Y484947D01*
X45199Y483647D01*
X43194Y482298D01*
X41221Y480902D01*
X39284Y479458D01*
X37381Y477967D01*
X35516Y476432D01*
X33688Y474851D01*
X31898Y473227D01*
X30149Y471560D01*
X28440Y469851D01*
X26773Y468102D01*
X25149Y466312D01*
X23568Y464484D01*
X22033Y462619D01*
X20542Y460716D01*
X19098Y458779D01*
X17702Y456806D01*
X16353Y454801D01*
X15053Y452764D01*
X13803Y450696D01*
X12603Y448598D01*
X11454Y446472D01*
X10357Y444319D01*
X9313Y442140D01*
X8321Y439936D01*
X7383Y437709D01*
X6498Y435460D01*
X5669Y433191D01*
X4894Y430902D01*
X4175Y428595D01*
X3512Y426271D01*
X2906Y423932D01*
X2356Y421578D01*
X1863Y419213D01*
X1427Y416836D01*
X1049Y414449D01*
X729Y412054D01*
X467Y409651D01*
X263Y407243D01*
X117Y404831D01*
X29Y402416D01*
X0Y400000D01*
X0Y100000D01*
X29Y97584D01*
X117Y95169D01*
X263Y92757D01*
X467Y90349D01*
X729Y87946D01*
X1049Y85551D01*
X1427Y83164D01*
X1863Y80787D01*
X2356Y78422D01*
X2906Y76068D01*
X3512Y73729D01*
X4175Y71405D01*
X4894Y69098D01*
X5669Y66809D01*
X6498Y64540D01*
X7383Y62291D01*
X8321Y60064D01*
X9313Y57860D01*
X10357Y55681D01*
X11454Y53528D01*
X12603Y51402D01*
X13803Y49304D01*
X15053Y47236D01*
X16353Y45199D01*
X17702Y43194D01*
X19098Y41221D01*
X20542Y39284D01*
X22033Y37381D01*
X23568Y35516D01*
X25149Y33688D01*
X26773Y31898D01*
X28440Y30149D01*
X30149Y28440D01*
X31898Y26773D01*
X33688Y25149D01*
X35516Y23568D01*
X37381Y22033D01*
X39284Y20542D01*
X41221Y19098D01*
X43194Y17702D01*
X45199Y16353D01*
X47236Y15053D01*
X49304Y13803D01*
X51402Y12603D01*
X53528Y11454D01*
X55681Y10357D01*
X57860Y9313D01*
X60064Y8321D01*
X62291Y7383D01*
X64540Y6498D01*
X66809Y5669D01*
X69098Y4894D01*
X71405Y4175D01*
X73729Y3512D01*
X76068Y2906D01*
X78422Y2356D01*
X80787Y1863D01*
X83164Y1427D01*
X85551Y1049D01*
X87946Y729D01*
X90349Y467D01*
X92757Y263D01*
X95169Y117D01*
X97584Y29D01*
X100000Y0D01*
D11*
X1432300Y450000D03*
X1457700Y450000D03*
X1483100Y450000D03*
X1508500Y450000D03*
X1406900Y450000D03*
D12*
X1381500Y450000D03*
D11*
X1533900Y450000D03*
X1559300Y450000D03*
D13*
X210000Y262700D03*
X210000Y237300D03*
X630000Y262700D03*
X630000Y237300D03*
X1050000Y262700D03*
X1050000Y237300D03*
X1470000Y262700D03*
X1470000Y237300D03*
X1890000Y262700D03*
X1890000Y237300D03*
X2310000Y262700D03*
X2310000Y237300D03*
X2730000Y262700D03*
X2730000Y237300D03*
D14*
X210000Y139220D03*
X210000Y110780D03*
X630000Y139220D03*
X630000Y110780D03*
X1050000Y139220D03*
X1050000Y110780D03*
X1470000Y139220D03*
X1470000Y110780D03*
X1890000Y139220D03*
X1890000Y110780D03*
X2310000Y139220D03*
X2310000Y110780D03*
X2730000Y139220D03*
X2730000Y110780D03*
D15*
X210000Y139220D02*
X210000Y237300D01*
X630000Y237300D02*
X630000Y139220D01*
X1050000Y139220D02*
X1050000Y237300D01*
X1470000Y237300D02*
X1470000Y139220D01*
X1890000Y139220D02*
X1890000Y237300D01*
X2310000Y237300D02*
X2310000Y139220D01*
X2730000Y139220D02*
X2730000Y237300D01*
X1623900Y360000D02*
X1533900Y450000D01*
X2632700Y360000D02*
X2730000Y262700D01*
X2632700Y360000D02*
X1623900Y360000D01*
X1638500Y320000D02*
X1508500Y450000D01*
X2252700Y320000D02*
X2310000Y262700D01*
X2252700Y320000D02*
X1638500Y320000D01*
X1670400Y262700D02*
X1890000Y262700D01*
X1670400Y262700D02*
X1483100Y450000D01*
X1457700Y450000D02*
X1457700Y275000D01*
X1470000Y262700D01*
X1245000Y262700D02*
X1050000Y262700D01*
X1245000Y262700D02*
X1432300Y450000D01*
X1406900Y450000D02*
X1276900Y320000D01*
X687300Y320000D02*
X630000Y262700D01*
X687300Y320000D02*
X1276900Y320000D01*
X1291500Y360000D02*
X1381500Y450000D01*
X307300Y360000D02*
X210000Y262700D01*
X307300Y360000D02*
X1291500Y360000D01*
M02*
