G04 EAGLE Gerber RS-274X export*
G75*
%MOMM*%
%FSLAX34Y34*%
%LPD*%
%INSilk top*%
%IPPOS*%
%AMOC8*
5,1,8,0,0,1.08239X$1,22.5*%
G01*
%ADD10C,0.000000*%
%ADD11C,0.152400*%
%ADD12C,0.127000*%
%ADD13C,0.200000*%
%ADD14C,0.101600*%
%ADD15C,0.203200*%


D10*
X-30000Y800000D02*
X-30000Y20000D01*
X-29994Y19517D01*
X-29977Y19034D01*
X-29947Y18551D01*
X-29907Y18070D01*
X-29854Y17589D01*
X-29790Y17110D01*
X-29715Y16633D01*
X-29627Y16157D01*
X-29529Y15684D01*
X-29419Y15214D01*
X-29298Y14746D01*
X-29165Y14281D01*
X-29021Y13820D01*
X-28866Y13362D01*
X-28700Y12908D01*
X-28523Y12458D01*
X-28336Y12013D01*
X-28137Y11572D01*
X-27929Y11136D01*
X-27709Y10706D01*
X-27479Y10280D01*
X-27239Y9861D01*
X-26989Y9447D01*
X-26729Y9040D01*
X-26460Y8639D01*
X-26180Y8244D01*
X-25892Y7857D01*
X-25593Y7476D01*
X-25286Y7103D01*
X-24970Y6738D01*
X-24645Y6380D01*
X-24312Y6030D01*
X-23970Y5688D01*
X-23620Y5355D01*
X-23262Y5030D01*
X-22897Y4714D01*
X-22524Y4407D01*
X-22143Y4108D01*
X-21756Y3820D01*
X-21361Y3540D01*
X-20960Y3271D01*
X-20553Y3011D01*
X-20139Y2761D01*
X-19720Y2521D01*
X-19294Y2291D01*
X-18864Y2071D01*
X-18428Y1863D01*
X-17987Y1664D01*
X-17542Y1477D01*
X-17092Y1300D01*
X-16638Y1134D01*
X-16180Y979D01*
X-15719Y835D01*
X-15254Y702D01*
X-14786Y581D01*
X-14316Y471D01*
X-13843Y373D01*
X-13367Y285D01*
X-12890Y210D01*
X-12411Y146D01*
X-11930Y93D01*
X-11449Y53D01*
X-10966Y23D01*
X-10483Y6D01*
X-10000Y0D01*
X700000Y0D01*
X700483Y6D01*
X700966Y23D01*
X701449Y53D01*
X701930Y93D01*
X702411Y146D01*
X702890Y210D01*
X703367Y285D01*
X703843Y373D01*
X704316Y471D01*
X704786Y581D01*
X705254Y702D01*
X705719Y835D01*
X706180Y979D01*
X706638Y1134D01*
X707092Y1300D01*
X707542Y1477D01*
X707987Y1664D01*
X708428Y1863D01*
X708864Y2071D01*
X709294Y2291D01*
X709720Y2521D01*
X710139Y2761D01*
X710553Y3011D01*
X710960Y3271D01*
X711361Y3540D01*
X711756Y3820D01*
X712143Y4108D01*
X712524Y4407D01*
X712897Y4714D01*
X713262Y5030D01*
X713620Y5355D01*
X713970Y5688D01*
X714312Y6030D01*
X714645Y6380D01*
X714970Y6738D01*
X715286Y7103D01*
X715593Y7476D01*
X715892Y7857D01*
X716180Y8244D01*
X716460Y8639D01*
X716729Y9040D01*
X716989Y9447D01*
X717239Y9861D01*
X717479Y10280D01*
X717709Y10706D01*
X717929Y11136D01*
X718137Y11572D01*
X718336Y12013D01*
X718523Y12458D01*
X718700Y12908D01*
X718866Y13362D01*
X719021Y13820D01*
X719165Y14281D01*
X719298Y14746D01*
X719419Y15214D01*
X719529Y15684D01*
X719627Y16157D01*
X719715Y16633D01*
X719790Y17110D01*
X719854Y17589D01*
X719907Y18070D01*
X719947Y18551D01*
X719977Y19034D01*
X719994Y19517D01*
X720000Y20000D01*
X720000Y800000D01*
X719994Y800483D01*
X719977Y800966D01*
X719947Y801449D01*
X719907Y801930D01*
X719854Y802411D01*
X719790Y802890D01*
X719715Y803367D01*
X719627Y803843D01*
X719529Y804316D01*
X719419Y804786D01*
X719298Y805254D01*
X719165Y805719D01*
X719021Y806180D01*
X718866Y806638D01*
X718700Y807092D01*
X718523Y807542D01*
X718336Y807987D01*
X718137Y808428D01*
X717929Y808864D01*
X717709Y809294D01*
X717479Y809720D01*
X717239Y810139D01*
X716989Y810553D01*
X716729Y810960D01*
X716460Y811361D01*
X716180Y811756D01*
X715892Y812143D01*
X715593Y812524D01*
X715286Y812897D01*
X714970Y813262D01*
X714645Y813620D01*
X714312Y813970D01*
X713970Y814312D01*
X713620Y814645D01*
X713262Y814970D01*
X712897Y815286D01*
X712524Y815593D01*
X712143Y815892D01*
X711756Y816180D01*
X711361Y816460D01*
X710960Y816729D01*
X710553Y816989D01*
X710139Y817239D01*
X709720Y817479D01*
X709294Y817709D01*
X708864Y817929D01*
X708428Y818137D01*
X707987Y818336D01*
X707542Y818523D01*
X707092Y818700D01*
X706638Y818866D01*
X706180Y819021D01*
X705719Y819165D01*
X705254Y819298D01*
X704786Y819419D01*
X704316Y819529D01*
X703843Y819627D01*
X703367Y819715D01*
X702890Y819790D01*
X702411Y819854D01*
X701930Y819907D01*
X701449Y819947D01*
X700966Y819977D01*
X700483Y819994D01*
X700000Y820000D01*
X-10000Y820000D01*
X-10483Y819994D01*
X-10966Y819977D01*
X-11449Y819947D01*
X-11930Y819907D01*
X-12411Y819854D01*
X-12890Y819790D01*
X-13367Y819715D01*
X-13843Y819627D01*
X-14316Y819529D01*
X-14786Y819419D01*
X-15254Y819298D01*
X-15719Y819165D01*
X-16180Y819021D01*
X-16638Y818866D01*
X-17092Y818700D01*
X-17542Y818523D01*
X-17987Y818336D01*
X-18428Y818137D01*
X-18864Y817929D01*
X-19294Y817709D01*
X-19720Y817479D01*
X-20139Y817239D01*
X-20553Y816989D01*
X-20960Y816729D01*
X-21361Y816460D01*
X-21756Y816180D01*
X-22143Y815892D01*
X-22524Y815593D01*
X-22897Y815286D01*
X-23262Y814970D01*
X-23620Y814645D01*
X-23970Y814312D01*
X-24312Y813970D01*
X-24645Y813620D01*
X-24970Y813262D01*
X-25286Y812897D01*
X-25593Y812524D01*
X-25892Y812143D01*
X-26180Y811756D01*
X-26460Y811361D01*
X-26729Y810960D01*
X-26989Y810553D01*
X-27239Y810139D01*
X-27479Y809720D01*
X-27709Y809294D01*
X-27929Y808864D01*
X-28137Y808428D01*
X-28336Y807987D01*
X-28523Y807542D01*
X-28700Y807092D01*
X-28866Y806638D01*
X-29021Y806180D01*
X-29165Y805719D01*
X-29298Y805254D01*
X-29419Y804786D01*
X-29529Y804316D01*
X-29627Y803843D01*
X-29715Y803367D01*
X-29790Y802890D01*
X-29854Y802411D01*
X-29907Y801930D01*
X-29947Y801449D01*
X-29977Y800966D01*
X-29994Y800483D01*
X-30000Y800000D01*
D11*
X139700Y63300D02*
X139700Y38300D01*
X342900Y38300D01*
X342900Y63300D01*
X139700Y63300D01*
X143341Y72531D02*
X143341Y79248D01*
X143341Y72531D02*
X143339Y72445D01*
X143333Y72359D01*
X143324Y72273D01*
X143310Y72188D01*
X143293Y72104D01*
X143272Y72020D01*
X143247Y71938D01*
X143219Y71857D01*
X143187Y71777D01*
X143151Y71698D01*
X143112Y71622D01*
X143069Y71547D01*
X143024Y71474D01*
X142974Y71403D01*
X142922Y71335D01*
X142867Y71268D01*
X142809Y71205D01*
X142748Y71144D01*
X142685Y71086D01*
X142618Y71031D01*
X142550Y70978D01*
X142479Y70929D01*
X142406Y70884D01*
X142331Y70841D01*
X142255Y70802D01*
X142176Y70766D01*
X142096Y70734D01*
X142015Y70706D01*
X141932Y70681D01*
X141849Y70660D01*
X141765Y70643D01*
X141680Y70629D01*
X141594Y70620D01*
X141508Y70614D01*
X141422Y70612D01*
X140462Y70612D01*
X150577Y79248D02*
X150669Y79246D01*
X150760Y79240D01*
X150851Y79231D01*
X150942Y79217D01*
X151032Y79200D01*
X151121Y79178D01*
X151209Y79153D01*
X151296Y79125D01*
X151382Y79092D01*
X151466Y79056D01*
X151549Y79017D01*
X151630Y78974D01*
X151709Y78927D01*
X151786Y78878D01*
X151861Y78825D01*
X151933Y78769D01*
X152003Y78710D01*
X152071Y78648D01*
X152136Y78583D01*
X152198Y78515D01*
X152257Y78445D01*
X152313Y78373D01*
X152366Y78298D01*
X152415Y78221D01*
X152462Y78142D01*
X152505Y78061D01*
X152544Y77978D01*
X152580Y77894D01*
X152613Y77808D01*
X152641Y77721D01*
X152666Y77633D01*
X152688Y77544D01*
X152705Y77454D01*
X152719Y77363D01*
X152728Y77272D01*
X152734Y77181D01*
X152736Y77089D01*
X150577Y79248D02*
X150474Y79246D01*
X150372Y79240D01*
X150270Y79231D01*
X150168Y79218D01*
X150067Y79201D01*
X149966Y79180D01*
X149867Y79156D01*
X149768Y79127D01*
X149671Y79096D01*
X149574Y79060D01*
X149479Y79022D01*
X149386Y78979D01*
X149294Y78933D01*
X149204Y78884D01*
X149116Y78832D01*
X149029Y78776D01*
X148945Y78717D01*
X148864Y78656D01*
X148784Y78591D01*
X148707Y78523D01*
X148632Y78452D01*
X148561Y78379D01*
X148492Y78303D01*
X148425Y78225D01*
X148362Y78144D01*
X148302Y78061D01*
X148245Y77976D01*
X148191Y77889D01*
X148140Y77799D01*
X148093Y77708D01*
X148049Y77616D01*
X148008Y77521D01*
X147971Y77426D01*
X147938Y77329D01*
X152016Y75410D02*
X152083Y75476D01*
X152147Y75545D01*
X152208Y75616D01*
X152266Y75690D01*
X152321Y75766D01*
X152373Y75844D01*
X152422Y75924D01*
X152468Y76006D01*
X152510Y76090D01*
X152549Y76176D01*
X152584Y76263D01*
X152615Y76351D01*
X152643Y76441D01*
X152668Y76531D01*
X152689Y76623D01*
X152706Y76715D01*
X152719Y76808D01*
X152728Y76901D01*
X152734Y76995D01*
X152736Y77089D01*
X152016Y75410D02*
X147938Y70612D01*
X152736Y70612D01*
D12*
X5600Y28900D02*
X5600Y803900D01*
X5604Y804262D01*
X5618Y804625D01*
X5639Y804987D01*
X5670Y805348D01*
X5709Y805708D01*
X5757Y806067D01*
X5814Y806425D01*
X5879Y806782D01*
X5953Y807137D01*
X6036Y807490D01*
X6127Y807841D01*
X6226Y808189D01*
X6334Y808535D01*
X6450Y808879D01*
X6575Y809219D01*
X6707Y809556D01*
X6848Y809890D01*
X6997Y810221D01*
X7154Y810548D01*
X7318Y810871D01*
X7490Y811190D01*
X7670Y811504D01*
X7858Y811815D01*
X8053Y812120D01*
X8255Y812421D01*
X8465Y812717D01*
X8681Y813007D01*
X8905Y813293D01*
X9135Y813573D01*
X9372Y813847D01*
X9616Y814115D01*
X9866Y814378D01*
X10122Y814634D01*
X10385Y814884D01*
X10653Y815128D01*
X10927Y815365D01*
X11207Y815595D01*
X11493Y815819D01*
X11783Y816035D01*
X12079Y816245D01*
X12380Y816447D01*
X12685Y816642D01*
X12996Y816830D01*
X13310Y817010D01*
X13629Y817182D01*
X13952Y817346D01*
X14279Y817503D01*
X14610Y817652D01*
X14944Y817793D01*
X15281Y817925D01*
X15621Y818050D01*
X15965Y818166D01*
X16311Y818274D01*
X16659Y818373D01*
X17010Y818464D01*
X17363Y818547D01*
X17718Y818621D01*
X18075Y818686D01*
X18433Y818743D01*
X18792Y818791D01*
X19152Y818830D01*
X19513Y818861D01*
X19875Y818882D01*
X20238Y818896D01*
X20600Y818900D01*
X690600Y818900D01*
X690962Y818896D01*
X691325Y818882D01*
X691687Y818861D01*
X692048Y818830D01*
X692408Y818791D01*
X692767Y818743D01*
X693125Y818686D01*
X693482Y818621D01*
X693837Y818547D01*
X694190Y818464D01*
X694541Y818373D01*
X694889Y818274D01*
X695235Y818166D01*
X695579Y818050D01*
X695919Y817925D01*
X696256Y817793D01*
X696590Y817652D01*
X696921Y817503D01*
X697248Y817346D01*
X697571Y817182D01*
X697890Y817010D01*
X698204Y816830D01*
X698515Y816642D01*
X698820Y816447D01*
X699121Y816245D01*
X699417Y816035D01*
X699707Y815819D01*
X699993Y815595D01*
X700273Y815365D01*
X700547Y815128D01*
X700815Y814884D01*
X701078Y814634D01*
X701334Y814378D01*
X701584Y814115D01*
X701828Y813847D01*
X702065Y813573D01*
X702295Y813293D01*
X702519Y813007D01*
X702735Y812717D01*
X702945Y812421D01*
X703147Y812120D01*
X703342Y811815D01*
X703530Y811504D01*
X703710Y811190D01*
X703882Y810871D01*
X704046Y810548D01*
X704203Y810221D01*
X704352Y809890D01*
X704493Y809556D01*
X704625Y809219D01*
X704750Y808879D01*
X704866Y808535D01*
X704974Y808189D01*
X705073Y807841D01*
X705164Y807490D01*
X705247Y807137D01*
X705321Y806782D01*
X705386Y806425D01*
X705443Y806067D01*
X705491Y805708D01*
X705530Y805348D01*
X705561Y804987D01*
X705582Y804625D01*
X705596Y804262D01*
X705600Y803900D01*
X705600Y28900D01*
X705596Y28538D01*
X705582Y28175D01*
X705561Y27813D01*
X705530Y27452D01*
X705491Y27092D01*
X705443Y26733D01*
X705386Y26375D01*
X705321Y26018D01*
X705247Y25663D01*
X705164Y25310D01*
X705073Y24959D01*
X704974Y24611D01*
X704866Y24265D01*
X704750Y23921D01*
X704625Y23581D01*
X704493Y23244D01*
X704352Y22910D01*
X704203Y22579D01*
X704046Y22252D01*
X703882Y21929D01*
X703710Y21610D01*
X703530Y21296D01*
X703342Y20985D01*
X703147Y20680D01*
X702945Y20379D01*
X702735Y20083D01*
X702519Y19793D01*
X702295Y19507D01*
X702065Y19227D01*
X701828Y18953D01*
X701584Y18685D01*
X701334Y18422D01*
X701078Y18166D01*
X700815Y17916D01*
X700547Y17672D01*
X700273Y17435D01*
X699993Y17205D01*
X699707Y16981D01*
X699417Y16765D01*
X699121Y16555D01*
X698820Y16353D01*
X698515Y16158D01*
X698204Y15970D01*
X697890Y15790D01*
X697571Y15618D01*
X697248Y15454D01*
X696921Y15297D01*
X696590Y15148D01*
X696256Y15007D01*
X695919Y14875D01*
X695579Y14750D01*
X695235Y14634D01*
X694889Y14526D01*
X694541Y14427D01*
X694190Y14336D01*
X693837Y14253D01*
X693482Y14179D01*
X693125Y14114D01*
X692767Y14057D01*
X692408Y14009D01*
X692048Y13970D01*
X691687Y13939D01*
X691325Y13918D01*
X690962Y13904D01*
X690600Y13900D01*
X485600Y13900D01*
X465600Y-6100D01*
X135600Y-6100D01*
X115600Y13900D01*
X20600Y13900D01*
X20238Y13904D01*
X19875Y13918D01*
X19513Y13939D01*
X19152Y13970D01*
X18792Y14009D01*
X18433Y14057D01*
X18075Y14114D01*
X17718Y14179D01*
X17363Y14253D01*
X17010Y14336D01*
X16659Y14427D01*
X16311Y14526D01*
X15965Y14634D01*
X15621Y14750D01*
X15281Y14875D01*
X14944Y15007D01*
X14610Y15148D01*
X14279Y15297D01*
X13952Y15454D01*
X13629Y15618D01*
X13310Y15790D01*
X12996Y15970D01*
X12685Y16158D01*
X12380Y16353D01*
X12079Y16555D01*
X11783Y16765D01*
X11493Y16981D01*
X11207Y17205D01*
X10927Y17435D01*
X10653Y17672D01*
X10385Y17916D01*
X10122Y18166D01*
X9866Y18422D01*
X9616Y18685D01*
X9372Y18953D01*
X9135Y19227D01*
X8905Y19507D01*
X8681Y19793D01*
X8465Y20083D01*
X8255Y20379D01*
X8053Y20680D01*
X7858Y20985D01*
X7670Y21296D01*
X7490Y21610D01*
X7318Y21929D01*
X7154Y22252D01*
X6997Y22579D01*
X6848Y22910D01*
X6707Y23244D01*
X6575Y23581D01*
X6450Y23921D01*
X6334Y24265D01*
X6226Y24611D01*
X6127Y24959D01*
X6036Y25310D01*
X5953Y25663D01*
X5879Y26018D01*
X5814Y26375D01*
X5757Y26733D01*
X5709Y27092D01*
X5670Y27452D01*
X5639Y27813D01*
X5618Y28175D01*
X5604Y28538D01*
X5600Y28900D01*
X635400Y31600D02*
X635400Y514200D01*
X635400Y31600D02*
X685400Y31600D01*
X685400Y514200D01*
X635400Y514200D01*
X25800Y514200D02*
X25800Y31600D01*
X75800Y31600D01*
X75800Y514200D01*
X25800Y514200D01*
D13*
X19600Y501500D02*
X19602Y501563D01*
X19608Y501625D01*
X19618Y501687D01*
X19631Y501749D01*
X19649Y501809D01*
X19670Y501868D01*
X19695Y501926D01*
X19724Y501982D01*
X19756Y502036D01*
X19791Y502088D01*
X19829Y502137D01*
X19871Y502185D01*
X19915Y502229D01*
X19963Y502271D01*
X20012Y502309D01*
X20064Y502344D01*
X20118Y502376D01*
X20174Y502405D01*
X20232Y502430D01*
X20291Y502451D01*
X20351Y502469D01*
X20413Y502482D01*
X20475Y502492D01*
X20537Y502498D01*
X20600Y502500D01*
X20663Y502498D01*
X20725Y502492D01*
X20787Y502482D01*
X20849Y502469D01*
X20909Y502451D01*
X20968Y502430D01*
X21026Y502405D01*
X21082Y502376D01*
X21136Y502344D01*
X21188Y502309D01*
X21237Y502271D01*
X21285Y502229D01*
X21329Y502185D01*
X21371Y502137D01*
X21409Y502088D01*
X21444Y502036D01*
X21476Y501982D01*
X21505Y501926D01*
X21530Y501868D01*
X21551Y501809D01*
X21569Y501749D01*
X21582Y501687D01*
X21592Y501625D01*
X21598Y501563D01*
X21600Y501500D01*
X21598Y501437D01*
X21592Y501375D01*
X21582Y501313D01*
X21569Y501251D01*
X21551Y501191D01*
X21530Y501132D01*
X21505Y501074D01*
X21476Y501018D01*
X21444Y500964D01*
X21409Y500912D01*
X21371Y500863D01*
X21329Y500815D01*
X21285Y500771D01*
X21237Y500729D01*
X21188Y500691D01*
X21136Y500656D01*
X21082Y500624D01*
X21026Y500595D01*
X20968Y500570D01*
X20909Y500549D01*
X20849Y500531D01*
X20787Y500518D01*
X20725Y500508D01*
X20663Y500502D01*
X20600Y500500D01*
X20537Y500502D01*
X20475Y500508D01*
X20413Y500518D01*
X20351Y500531D01*
X20291Y500549D01*
X20232Y500570D01*
X20174Y500595D01*
X20118Y500624D01*
X20064Y500656D01*
X20012Y500691D01*
X19963Y500729D01*
X19915Y500771D01*
X19871Y500815D01*
X19829Y500863D01*
X19791Y500912D01*
X19756Y500964D01*
X19724Y501018D01*
X19695Y501074D01*
X19670Y501132D01*
X19649Y501191D01*
X19631Y501251D01*
X19618Y501313D01*
X19608Y501375D01*
X19602Y501437D01*
X19600Y501500D01*
X629200Y501500D02*
X629202Y501563D01*
X629208Y501625D01*
X629218Y501687D01*
X629231Y501749D01*
X629249Y501809D01*
X629270Y501868D01*
X629295Y501926D01*
X629324Y501982D01*
X629356Y502036D01*
X629391Y502088D01*
X629429Y502137D01*
X629471Y502185D01*
X629515Y502229D01*
X629563Y502271D01*
X629612Y502309D01*
X629664Y502344D01*
X629718Y502376D01*
X629774Y502405D01*
X629832Y502430D01*
X629891Y502451D01*
X629951Y502469D01*
X630013Y502482D01*
X630075Y502492D01*
X630137Y502498D01*
X630200Y502500D01*
X630263Y502498D01*
X630325Y502492D01*
X630387Y502482D01*
X630449Y502469D01*
X630509Y502451D01*
X630568Y502430D01*
X630626Y502405D01*
X630682Y502376D01*
X630736Y502344D01*
X630788Y502309D01*
X630837Y502271D01*
X630885Y502229D01*
X630929Y502185D01*
X630971Y502137D01*
X631009Y502088D01*
X631044Y502036D01*
X631076Y501982D01*
X631105Y501926D01*
X631130Y501868D01*
X631151Y501809D01*
X631169Y501749D01*
X631182Y501687D01*
X631192Y501625D01*
X631198Y501563D01*
X631200Y501500D01*
X631198Y501437D01*
X631192Y501375D01*
X631182Y501313D01*
X631169Y501251D01*
X631151Y501191D01*
X631130Y501132D01*
X631105Y501074D01*
X631076Y501018D01*
X631044Y500964D01*
X631009Y500912D01*
X630971Y500863D01*
X630929Y500815D01*
X630885Y500771D01*
X630837Y500729D01*
X630788Y500691D01*
X630736Y500656D01*
X630682Y500624D01*
X630626Y500595D01*
X630568Y500570D01*
X630509Y500549D01*
X630449Y500531D01*
X630387Y500518D01*
X630325Y500508D01*
X630263Y500502D01*
X630200Y500500D01*
X630137Y500502D01*
X630075Y500508D01*
X630013Y500518D01*
X629951Y500531D01*
X629891Y500549D01*
X629832Y500570D01*
X629774Y500595D01*
X629718Y500624D01*
X629664Y500656D01*
X629612Y500691D01*
X629563Y500729D01*
X629515Y500771D01*
X629471Y500815D01*
X629429Y500863D01*
X629391Y500912D01*
X629356Y500964D01*
X629324Y501018D01*
X629295Y501074D01*
X629270Y501132D01*
X629249Y501191D01*
X629231Y501251D01*
X629218Y501313D01*
X629208Y501375D01*
X629202Y501437D01*
X629200Y501500D01*
D14*
X6108Y830154D02*
X6108Y838592D01*
X6108Y830154D02*
X6110Y830041D01*
X6116Y829928D01*
X6126Y829815D01*
X6140Y829702D01*
X6157Y829590D01*
X6179Y829479D01*
X6204Y829369D01*
X6234Y829259D01*
X6267Y829151D01*
X6304Y829044D01*
X6344Y828938D01*
X6389Y828834D01*
X6437Y828731D01*
X6488Y828630D01*
X6543Y828531D01*
X6601Y828434D01*
X6663Y828339D01*
X6728Y828246D01*
X6796Y828156D01*
X6867Y828068D01*
X6942Y827982D01*
X7019Y827899D01*
X7099Y827819D01*
X7182Y827742D01*
X7268Y827667D01*
X7356Y827596D01*
X7446Y827528D01*
X7539Y827463D01*
X7634Y827401D01*
X7731Y827343D01*
X7830Y827288D01*
X7931Y827237D01*
X8034Y827189D01*
X8138Y827144D01*
X8244Y827104D01*
X8351Y827067D01*
X8459Y827034D01*
X8569Y827004D01*
X8679Y826979D01*
X8790Y826957D01*
X8902Y826940D01*
X9015Y826926D01*
X9128Y826916D01*
X9241Y826910D01*
X9354Y826908D01*
X9467Y826910D01*
X9580Y826916D01*
X9693Y826926D01*
X9806Y826940D01*
X9918Y826957D01*
X10029Y826979D01*
X10139Y827004D01*
X10249Y827034D01*
X10357Y827067D01*
X10464Y827104D01*
X10570Y827144D01*
X10674Y827189D01*
X10777Y827237D01*
X10878Y827288D01*
X10977Y827343D01*
X11074Y827401D01*
X11169Y827463D01*
X11262Y827528D01*
X11352Y827596D01*
X11440Y827667D01*
X11526Y827742D01*
X11609Y827819D01*
X11689Y827899D01*
X11766Y827982D01*
X11841Y828068D01*
X11912Y828156D01*
X11980Y828246D01*
X12045Y828339D01*
X12107Y828434D01*
X12165Y828531D01*
X12220Y828630D01*
X12271Y828731D01*
X12319Y828834D01*
X12364Y828938D01*
X12404Y829044D01*
X12441Y829151D01*
X12474Y829259D01*
X12504Y829369D01*
X12529Y829479D01*
X12551Y829590D01*
X12568Y829702D01*
X12582Y829815D01*
X12592Y829928D01*
X12598Y830041D01*
X12600Y830154D01*
X12599Y830154D02*
X12599Y838592D01*
X17919Y835996D02*
X21165Y838592D01*
X21165Y826908D01*
X24410Y826908D02*
X17919Y826908D01*
D10*
X555244Y50800D02*
X555249Y51199D01*
X555264Y51598D01*
X555288Y51996D01*
X555322Y52393D01*
X555366Y52790D01*
X555420Y53185D01*
X555483Y53579D01*
X555556Y53971D01*
X555639Y54362D01*
X555731Y54750D01*
X555833Y55136D01*
X555944Y55519D01*
X556064Y55899D01*
X556194Y56276D01*
X556333Y56650D01*
X556481Y57021D01*
X556639Y57388D01*
X556805Y57750D01*
X556980Y58109D01*
X557163Y58463D01*
X557356Y58813D01*
X557557Y59157D01*
X557766Y59497D01*
X557984Y59831D01*
X558209Y60160D01*
X558443Y60484D01*
X558685Y60801D01*
X558934Y61113D01*
X559191Y61418D01*
X559455Y61717D01*
X559727Y62009D01*
X560005Y62295D01*
X560291Y62573D01*
X560583Y62845D01*
X560882Y63109D01*
X561187Y63366D01*
X561499Y63615D01*
X561816Y63857D01*
X562140Y64091D01*
X562469Y64316D01*
X562803Y64534D01*
X563143Y64743D01*
X563487Y64944D01*
X563837Y65137D01*
X564191Y65320D01*
X564550Y65495D01*
X564912Y65661D01*
X565279Y65819D01*
X565650Y65967D01*
X566024Y66106D01*
X566401Y66236D01*
X566781Y66356D01*
X567164Y66467D01*
X567550Y66569D01*
X567938Y66661D01*
X568329Y66744D01*
X568721Y66817D01*
X569115Y66880D01*
X569510Y66934D01*
X569907Y66978D01*
X570304Y67012D01*
X570702Y67036D01*
X571101Y67051D01*
X571500Y67056D01*
X571899Y67051D01*
X572298Y67036D01*
X572696Y67012D01*
X573093Y66978D01*
X573490Y66934D01*
X573885Y66880D01*
X574279Y66817D01*
X574671Y66744D01*
X575062Y66661D01*
X575450Y66569D01*
X575836Y66467D01*
X576219Y66356D01*
X576599Y66236D01*
X576976Y66106D01*
X577350Y65967D01*
X577721Y65819D01*
X578088Y65661D01*
X578450Y65495D01*
X578809Y65320D01*
X579163Y65137D01*
X579513Y64944D01*
X579857Y64743D01*
X580197Y64534D01*
X580531Y64316D01*
X580860Y64091D01*
X581184Y63857D01*
X581501Y63615D01*
X581813Y63366D01*
X582118Y63109D01*
X582417Y62845D01*
X582709Y62573D01*
X582995Y62295D01*
X583273Y62009D01*
X583545Y61717D01*
X583809Y61418D01*
X584066Y61113D01*
X584315Y60801D01*
X584557Y60484D01*
X584791Y60160D01*
X585016Y59831D01*
X585234Y59497D01*
X585443Y59157D01*
X585644Y58813D01*
X585837Y58463D01*
X586020Y58109D01*
X586195Y57750D01*
X586361Y57388D01*
X586519Y57021D01*
X586667Y56650D01*
X586806Y56276D01*
X586936Y55899D01*
X587056Y55519D01*
X587167Y55136D01*
X587269Y54750D01*
X587361Y54362D01*
X587444Y53971D01*
X587517Y53579D01*
X587580Y53185D01*
X587634Y52790D01*
X587678Y52393D01*
X587712Y51996D01*
X587736Y51598D01*
X587751Y51199D01*
X587756Y50800D01*
X587751Y50401D01*
X587736Y50002D01*
X587712Y49604D01*
X587678Y49207D01*
X587634Y48810D01*
X587580Y48415D01*
X587517Y48021D01*
X587444Y47629D01*
X587361Y47238D01*
X587269Y46850D01*
X587167Y46464D01*
X587056Y46081D01*
X586936Y45701D01*
X586806Y45324D01*
X586667Y44950D01*
X586519Y44579D01*
X586361Y44212D01*
X586195Y43850D01*
X586020Y43491D01*
X585837Y43137D01*
X585644Y42787D01*
X585443Y42443D01*
X585234Y42103D01*
X585016Y41769D01*
X584791Y41440D01*
X584557Y41116D01*
X584315Y40799D01*
X584066Y40487D01*
X583809Y40182D01*
X583545Y39883D01*
X583273Y39591D01*
X582995Y39305D01*
X582709Y39027D01*
X582417Y38755D01*
X582118Y38491D01*
X581813Y38234D01*
X581501Y37985D01*
X581184Y37743D01*
X580860Y37509D01*
X580531Y37284D01*
X580197Y37066D01*
X579857Y36857D01*
X579513Y36656D01*
X579163Y36463D01*
X578809Y36280D01*
X578450Y36105D01*
X578088Y35939D01*
X577721Y35781D01*
X577350Y35633D01*
X576976Y35494D01*
X576599Y35364D01*
X576219Y35244D01*
X575836Y35133D01*
X575450Y35031D01*
X575062Y34939D01*
X574671Y34856D01*
X574279Y34783D01*
X573885Y34720D01*
X573490Y34666D01*
X573093Y34622D01*
X572696Y34588D01*
X572298Y34564D01*
X571899Y34549D01*
X571500Y34544D01*
X571101Y34549D01*
X570702Y34564D01*
X570304Y34588D01*
X569907Y34622D01*
X569510Y34666D01*
X569115Y34720D01*
X568721Y34783D01*
X568329Y34856D01*
X567938Y34939D01*
X567550Y35031D01*
X567164Y35133D01*
X566781Y35244D01*
X566401Y35364D01*
X566024Y35494D01*
X565650Y35633D01*
X565279Y35781D01*
X564912Y35939D01*
X564550Y36105D01*
X564191Y36280D01*
X563837Y36463D01*
X563487Y36656D01*
X563143Y36857D01*
X562803Y37066D01*
X562469Y37284D01*
X562140Y37509D01*
X561816Y37743D01*
X561499Y37985D01*
X561187Y38234D01*
X560882Y38491D01*
X560583Y38755D01*
X560291Y39027D01*
X560005Y39305D01*
X559727Y39591D01*
X559455Y39883D01*
X559191Y40182D01*
X558934Y40487D01*
X558685Y40799D01*
X558443Y41116D01*
X558209Y41440D01*
X557984Y41769D01*
X557766Y42103D01*
X557557Y42443D01*
X557356Y42787D01*
X557163Y43137D01*
X556980Y43491D01*
X556805Y43850D01*
X556639Y44212D01*
X556481Y44579D01*
X556333Y44950D01*
X556194Y45324D01*
X556064Y45701D01*
X555944Y46081D01*
X555833Y46464D01*
X555731Y46850D01*
X555639Y47238D01*
X555556Y47629D01*
X555483Y48021D01*
X555420Y48415D01*
X555366Y48810D01*
X555322Y49207D01*
X555288Y49604D01*
X555264Y50002D01*
X555249Y50401D01*
X555244Y50800D01*
X428244Y50800D02*
X428249Y51199D01*
X428264Y51598D01*
X428288Y51996D01*
X428322Y52393D01*
X428366Y52790D01*
X428420Y53185D01*
X428483Y53579D01*
X428556Y53971D01*
X428639Y54362D01*
X428731Y54750D01*
X428833Y55136D01*
X428944Y55519D01*
X429064Y55899D01*
X429194Y56276D01*
X429333Y56650D01*
X429481Y57021D01*
X429639Y57388D01*
X429805Y57750D01*
X429980Y58109D01*
X430163Y58463D01*
X430356Y58813D01*
X430557Y59157D01*
X430766Y59497D01*
X430984Y59831D01*
X431209Y60160D01*
X431443Y60484D01*
X431685Y60801D01*
X431934Y61113D01*
X432191Y61418D01*
X432455Y61717D01*
X432727Y62009D01*
X433005Y62295D01*
X433291Y62573D01*
X433583Y62845D01*
X433882Y63109D01*
X434187Y63366D01*
X434499Y63615D01*
X434816Y63857D01*
X435140Y64091D01*
X435469Y64316D01*
X435803Y64534D01*
X436143Y64743D01*
X436487Y64944D01*
X436837Y65137D01*
X437191Y65320D01*
X437550Y65495D01*
X437912Y65661D01*
X438279Y65819D01*
X438650Y65967D01*
X439024Y66106D01*
X439401Y66236D01*
X439781Y66356D01*
X440164Y66467D01*
X440550Y66569D01*
X440938Y66661D01*
X441329Y66744D01*
X441721Y66817D01*
X442115Y66880D01*
X442510Y66934D01*
X442907Y66978D01*
X443304Y67012D01*
X443702Y67036D01*
X444101Y67051D01*
X444500Y67056D01*
X444899Y67051D01*
X445298Y67036D01*
X445696Y67012D01*
X446093Y66978D01*
X446490Y66934D01*
X446885Y66880D01*
X447279Y66817D01*
X447671Y66744D01*
X448062Y66661D01*
X448450Y66569D01*
X448836Y66467D01*
X449219Y66356D01*
X449599Y66236D01*
X449976Y66106D01*
X450350Y65967D01*
X450721Y65819D01*
X451088Y65661D01*
X451450Y65495D01*
X451809Y65320D01*
X452163Y65137D01*
X452513Y64944D01*
X452857Y64743D01*
X453197Y64534D01*
X453531Y64316D01*
X453860Y64091D01*
X454184Y63857D01*
X454501Y63615D01*
X454813Y63366D01*
X455118Y63109D01*
X455417Y62845D01*
X455709Y62573D01*
X455995Y62295D01*
X456273Y62009D01*
X456545Y61717D01*
X456809Y61418D01*
X457066Y61113D01*
X457315Y60801D01*
X457557Y60484D01*
X457791Y60160D01*
X458016Y59831D01*
X458234Y59497D01*
X458443Y59157D01*
X458644Y58813D01*
X458837Y58463D01*
X459020Y58109D01*
X459195Y57750D01*
X459361Y57388D01*
X459519Y57021D01*
X459667Y56650D01*
X459806Y56276D01*
X459936Y55899D01*
X460056Y55519D01*
X460167Y55136D01*
X460269Y54750D01*
X460361Y54362D01*
X460444Y53971D01*
X460517Y53579D01*
X460580Y53185D01*
X460634Y52790D01*
X460678Y52393D01*
X460712Y51996D01*
X460736Y51598D01*
X460751Y51199D01*
X460756Y50800D01*
X460751Y50401D01*
X460736Y50002D01*
X460712Y49604D01*
X460678Y49207D01*
X460634Y48810D01*
X460580Y48415D01*
X460517Y48021D01*
X460444Y47629D01*
X460361Y47238D01*
X460269Y46850D01*
X460167Y46464D01*
X460056Y46081D01*
X459936Y45701D01*
X459806Y45324D01*
X459667Y44950D01*
X459519Y44579D01*
X459361Y44212D01*
X459195Y43850D01*
X459020Y43491D01*
X458837Y43137D01*
X458644Y42787D01*
X458443Y42443D01*
X458234Y42103D01*
X458016Y41769D01*
X457791Y41440D01*
X457557Y41116D01*
X457315Y40799D01*
X457066Y40487D01*
X456809Y40182D01*
X456545Y39883D01*
X456273Y39591D01*
X455995Y39305D01*
X455709Y39027D01*
X455417Y38755D01*
X455118Y38491D01*
X454813Y38234D01*
X454501Y37985D01*
X454184Y37743D01*
X453860Y37509D01*
X453531Y37284D01*
X453197Y37066D01*
X452857Y36857D01*
X452513Y36656D01*
X452163Y36463D01*
X451809Y36280D01*
X451450Y36105D01*
X451088Y35939D01*
X450721Y35781D01*
X450350Y35633D01*
X449976Y35494D01*
X449599Y35364D01*
X449219Y35244D01*
X448836Y35133D01*
X448450Y35031D01*
X448062Y34939D01*
X447671Y34856D01*
X447279Y34783D01*
X446885Y34720D01*
X446490Y34666D01*
X446093Y34622D01*
X445696Y34588D01*
X445298Y34564D01*
X444899Y34549D01*
X444500Y34544D01*
X444101Y34549D01*
X443702Y34564D01*
X443304Y34588D01*
X442907Y34622D01*
X442510Y34666D01*
X442115Y34720D01*
X441721Y34783D01*
X441329Y34856D01*
X440938Y34939D01*
X440550Y35031D01*
X440164Y35133D01*
X439781Y35244D01*
X439401Y35364D01*
X439024Y35494D01*
X438650Y35633D01*
X438279Y35781D01*
X437912Y35939D01*
X437550Y36105D01*
X437191Y36280D01*
X436837Y36463D01*
X436487Y36656D01*
X436143Y36857D01*
X435803Y37066D01*
X435469Y37284D01*
X435140Y37509D01*
X434816Y37743D01*
X434499Y37985D01*
X434187Y38234D01*
X433882Y38491D01*
X433583Y38755D01*
X433291Y39027D01*
X433005Y39305D01*
X432727Y39591D01*
X432455Y39883D01*
X432191Y40182D01*
X431934Y40487D01*
X431685Y40799D01*
X431443Y41116D01*
X431209Y41440D01*
X430984Y41769D01*
X430766Y42103D01*
X430557Y42443D01*
X430356Y42787D01*
X430163Y43137D01*
X429980Y43491D01*
X429805Y43850D01*
X429639Y44212D01*
X429481Y44579D01*
X429333Y44950D01*
X429194Y45324D01*
X429064Y45701D01*
X428944Y46081D01*
X428833Y46464D01*
X428731Y46850D01*
X428639Y47238D01*
X428556Y47629D01*
X428483Y48021D01*
X428420Y48415D01*
X428366Y48810D01*
X428322Y49207D01*
X428288Y49604D01*
X428264Y50002D01*
X428249Y50401D01*
X428244Y50800D01*
D15*
X430250Y1050D02*
X585750Y1050D01*
X430250Y1050D02*
X430250Y150910D01*
X585750Y150910D02*
X585750Y1050D01*
X585750Y150910D02*
X430250Y150910D01*
X426720Y15240D02*
X429260Y10160D01*
X426720Y15240D02*
X426021Y16364D01*
X425350Y17505D01*
X424706Y18662D01*
X424091Y19835D01*
X423505Y21022D01*
X422948Y22223D01*
X422420Y23437D01*
X421923Y24664D01*
X421455Y25902D01*
X421017Y27152D01*
X420611Y28412D01*
X420235Y29681D01*
X419890Y30959D01*
X419576Y32246D01*
X419294Y33539D01*
X419044Y34839D01*
X418825Y36145D01*
X418639Y37456D01*
X418484Y38770D01*
X418362Y40089D01*
X418271Y41409D01*
X418213Y42732D01*
X418187Y44056D01*
X418194Y45380D01*
X418233Y46703D01*
X418304Y48025D01*
X418407Y49345D01*
X418543Y50662D01*
X418710Y51975D01*
X418910Y53284D01*
X419141Y54587D01*
X419405Y55885D01*
X419699Y57175D01*
X420026Y58458D01*
X420383Y59733D01*
X420772Y60999D01*
X421191Y62255D01*
X421640Y63500D01*
X421691Y63606D01*
X421738Y63714D01*
X421782Y63823D01*
X421822Y63934D01*
X421858Y64045D01*
X421891Y64158D01*
X421920Y64272D01*
X421945Y64387D01*
X421966Y64503D01*
X421984Y64619D01*
X421997Y64736D01*
X422007Y64853D01*
X422013Y64970D01*
X422015Y65088D01*
X422013Y65206D01*
X422007Y65323D01*
X421997Y65440D01*
X421984Y65557D01*
X421966Y65673D01*
X421945Y65789D01*
X421920Y65904D01*
X421891Y66018D01*
X421858Y66131D01*
X421822Y66242D01*
X421782Y66353D01*
X421738Y66462D01*
X421691Y66570D01*
X421640Y66676D01*
X421586Y66780D01*
X421528Y66882D01*
X421467Y66983D01*
X421403Y67081D01*
X421335Y67177D01*
X421264Y67271D01*
X421191Y67363D01*
X421114Y67452D01*
X421034Y67538D01*
X420951Y67622D01*
X420866Y67703D01*
X420778Y67781D01*
X420688Y67856D01*
X420595Y67928D01*
X420500Y67997D01*
X420402Y68063D01*
X420303Y68125D01*
X420201Y68184D01*
X420098Y68240D01*
X419992Y68293D01*
X419886Y68341D01*
X419777Y68387D01*
X419667Y68428D01*
X419556Y68466D01*
X419443Y68501D01*
X419330Y68531D01*
X419215Y68558D01*
X419100Y68581D01*
X586740Y10160D02*
X589280Y15240D01*
X589979Y16364D01*
X590650Y17505D01*
X591294Y18662D01*
X591909Y19835D01*
X592495Y21022D01*
X593052Y22223D01*
X593580Y23437D01*
X594077Y24664D01*
X594545Y25902D01*
X594983Y27152D01*
X595389Y28412D01*
X595765Y29681D01*
X596110Y30959D01*
X596424Y32246D01*
X596706Y33539D01*
X596956Y34839D01*
X597175Y36145D01*
X597361Y37456D01*
X597516Y38770D01*
X597638Y40089D01*
X597729Y41409D01*
X597787Y42732D01*
X597813Y44056D01*
X597806Y45380D01*
X597767Y46703D01*
X597696Y48025D01*
X597593Y49345D01*
X597457Y50662D01*
X597290Y51975D01*
X597090Y53284D01*
X596859Y54587D01*
X596595Y55885D01*
X596301Y57175D01*
X595974Y58458D01*
X595617Y59733D01*
X595228Y60999D01*
X594809Y62255D01*
X594360Y63500D01*
X594309Y63606D01*
X594262Y63714D01*
X594218Y63823D01*
X594178Y63934D01*
X594142Y64045D01*
X594109Y64158D01*
X594080Y64272D01*
X594055Y64387D01*
X594034Y64503D01*
X594016Y64619D01*
X594003Y64736D01*
X593993Y64853D01*
X593987Y64970D01*
X593985Y65088D01*
X593987Y65206D01*
X593993Y65323D01*
X594003Y65440D01*
X594016Y65557D01*
X594034Y65673D01*
X594055Y65789D01*
X594080Y65904D01*
X594109Y66018D01*
X594142Y66131D01*
X594178Y66242D01*
X594218Y66353D01*
X594262Y66462D01*
X594309Y66570D01*
X594360Y66676D01*
X594414Y66780D01*
X594472Y66882D01*
X594533Y66983D01*
X594597Y67081D01*
X594665Y67177D01*
X594736Y67271D01*
X594809Y67363D01*
X594886Y67452D01*
X594966Y67538D01*
X595049Y67622D01*
X595134Y67703D01*
X595222Y67781D01*
X595312Y67856D01*
X595405Y67928D01*
X595500Y67997D01*
X595598Y68063D01*
X595697Y68125D01*
X595799Y68184D01*
X595902Y68240D01*
X596008Y68293D01*
X596114Y68341D01*
X596223Y68387D01*
X596333Y68428D01*
X596444Y68466D01*
X596557Y68501D01*
X596670Y68531D01*
X596785Y68558D01*
X596900Y68581D01*
D14*
X440097Y170942D02*
X432308Y159258D01*
X440097Y159258D02*
X432308Y170942D01*
X444387Y168346D02*
X447633Y170942D01*
X447633Y159258D01*
X450878Y159258D02*
X444387Y159258D01*
D12*
X576600Y650900D02*
X741600Y650900D01*
X576600Y650900D02*
X576600Y578900D01*
X741600Y578900D01*
X741600Y650900D01*
D11*
X665641Y655681D02*
X665641Y662398D01*
X665641Y655681D02*
X665639Y655595D01*
X665633Y655509D01*
X665624Y655423D01*
X665610Y655338D01*
X665593Y655254D01*
X665572Y655170D01*
X665547Y655088D01*
X665519Y655007D01*
X665487Y654927D01*
X665451Y654848D01*
X665412Y654772D01*
X665369Y654697D01*
X665324Y654624D01*
X665274Y654553D01*
X665222Y654485D01*
X665167Y654418D01*
X665109Y654355D01*
X665048Y654294D01*
X664985Y654236D01*
X664918Y654181D01*
X664850Y654128D01*
X664779Y654079D01*
X664706Y654034D01*
X664631Y653991D01*
X664555Y653952D01*
X664476Y653916D01*
X664396Y653884D01*
X664315Y653856D01*
X664232Y653831D01*
X664149Y653810D01*
X664065Y653793D01*
X663980Y653779D01*
X663894Y653770D01*
X663808Y653764D01*
X663722Y653762D01*
X662762Y653762D01*
X670238Y660479D02*
X672637Y662398D01*
X672637Y653762D01*
X670238Y653762D02*
X675036Y653762D01*
M02*
