M48
;GenerationSoftware,Autodesk,EAGLE,9.6.2*%
;CreationDate,2022-10-10T09:40:24Z*%
FMAT,2
ICI,OFF
METRIC,TZ,000.000
T5C0.889
T4C1.020
T3C1.575
T2C3.251
T1C3.300
%
G90
M71
T1
X58660Y61490
X68660Y61490
X63660Y61490
T2
X57150Y5080
X44450Y5080
T3
X42697Y8509
X58903Y8509
T4
X15240Y5080
X30480Y5080
X33020Y5080
X3810Y50150
X3810Y4430
X6350Y50150
X3810Y47610
X6350Y47610
X3810Y45070
X6350Y45070
X3810Y42530
X6350Y42530
X3810Y39990
X6350Y39990
X3810Y37450
X6350Y37450
X3810Y34910
X6350Y34910
X3810Y32370
X6350Y32370
X3810Y29830
X6350Y29830
X3810Y27290
X6350Y27290
X3810Y24750
X6350Y24750
X3810Y22210
X6350Y22210
X3810Y19670
X6350Y19670
X3810Y17130
X6350Y17130
X3810Y14590
X6350Y14590
X3810Y12050
X6350Y12050
X3810Y9510
X6350Y9510
X3810Y6970
X6350Y6970
X6350Y4430
X64770Y50150
X64770Y4430
X67310Y50150
X64770Y47610
X67310Y47610
X64770Y45070
X67310Y45070
X64770Y42530
X67310Y42530
X64770Y39990
X67310Y39990
X64770Y37450
X67310Y37450
X64770Y34910
X67310Y34910
X64770Y32370
X67310Y32370
X64770Y29830
X67310Y29830
X64770Y27290
X67310Y27290
X64770Y24750
X67310Y24750
X64770Y22210
X67310Y22210
X64770Y19670
X20320Y5080
X64770Y17130
X67310Y17130
X64770Y14590
X67310Y14590
X64770Y12050
X67310Y12050
X64770Y9510
X67310Y9510
X64770Y6970
X67310Y6970
X67310Y4430
X67310Y19670
X22860Y5080
X25400Y5080
X27940Y5080
X17780Y5080
T5
X49276Y9398
X48260Y7620
X47244Y9398
X53340Y9398
X52324Y7620
X51308Y9398
X50292Y7620
X54356Y7620
M30