G04 EAGLE Gerber RS-274X export*
G75*
%MOMM*%
%FSLAX34Y34*%
%LPD*%
%INSilk bottom*%
%IPPOS*%
%AMOC8*
5,1,8,0,0,1.08239X$1,22.5*%
G01*
%ADD10C,0.000000*%
%ADD11C,0.152400*%
%ADD12C,0.101600*%


D10*
X0Y321000D02*
X0Y50000D01*
X15Y48792D01*
X58Y47584D01*
X131Y46378D01*
X233Y45174D01*
X365Y43973D01*
X525Y42776D01*
X714Y41582D01*
X931Y40394D01*
X1178Y39211D01*
X1453Y38034D01*
X1756Y36865D01*
X2088Y35703D01*
X2447Y34549D01*
X2834Y33405D01*
X3249Y32270D01*
X3691Y31145D01*
X4160Y30032D01*
X4656Y28930D01*
X5179Y27840D01*
X5727Y26764D01*
X6302Y25701D01*
X6902Y24652D01*
X7527Y23618D01*
X8176Y22599D01*
X8851Y21597D01*
X9549Y20611D01*
X10271Y19642D01*
X11016Y18691D01*
X11784Y17758D01*
X12574Y16844D01*
X13387Y15949D01*
X14220Y15074D01*
X15074Y14220D01*
X15949Y13387D01*
X16844Y12574D01*
X17758Y11784D01*
X18691Y11016D01*
X19642Y10271D01*
X20611Y9549D01*
X21597Y8851D01*
X22599Y8176D01*
X23618Y7527D01*
X24652Y6902D01*
X25701Y6302D01*
X26764Y5727D01*
X27840Y5179D01*
X28930Y4656D01*
X30032Y4160D01*
X31145Y3691D01*
X32270Y3249D01*
X33405Y2834D01*
X34549Y2447D01*
X35703Y2088D01*
X36865Y1756D01*
X38034Y1453D01*
X39211Y1178D01*
X40394Y931D01*
X41582Y714D01*
X42776Y525D01*
X43973Y365D01*
X45174Y233D01*
X46378Y131D01*
X47584Y58D01*
X48792Y15D01*
X50000Y0D01*
X550000Y0D01*
X551208Y15D01*
X552416Y58D01*
X553622Y131D01*
X554826Y233D01*
X556027Y365D01*
X557224Y525D01*
X558418Y714D01*
X559606Y931D01*
X560789Y1178D01*
X561966Y1453D01*
X563135Y1756D01*
X564297Y2088D01*
X565451Y2447D01*
X566595Y2834D01*
X567730Y3249D01*
X568855Y3691D01*
X569968Y4160D01*
X571070Y4656D01*
X572160Y5179D01*
X573236Y5727D01*
X574299Y6302D01*
X575348Y6902D01*
X576382Y7527D01*
X577401Y8176D01*
X578403Y8851D01*
X579389Y9549D01*
X580358Y10271D01*
X581309Y11016D01*
X582242Y11784D01*
X583156Y12574D01*
X584051Y13387D01*
X584926Y14220D01*
X585780Y15074D01*
X586613Y15949D01*
X587426Y16844D01*
X588216Y17758D01*
X588984Y18691D01*
X589729Y19642D01*
X590451Y20611D01*
X591149Y21597D01*
X591824Y22599D01*
X592473Y23618D01*
X593098Y24652D01*
X593698Y25701D01*
X594273Y26764D01*
X594821Y27840D01*
X595344Y28930D01*
X595840Y30032D01*
X596309Y31145D01*
X596751Y32270D01*
X597166Y33405D01*
X597553Y34549D01*
X597912Y35703D01*
X598244Y36865D01*
X598547Y38034D01*
X598822Y39211D01*
X599069Y40394D01*
X599286Y41582D01*
X599475Y42776D01*
X599635Y43973D01*
X599767Y45174D01*
X599869Y46378D01*
X599942Y47584D01*
X599985Y48792D01*
X600000Y50000D01*
X600000Y321000D01*
X599985Y322208D01*
X599942Y323416D01*
X599869Y324622D01*
X599767Y325826D01*
X599635Y327027D01*
X599475Y328224D01*
X599286Y329418D01*
X599069Y330606D01*
X598822Y331789D01*
X598547Y332966D01*
X598244Y334135D01*
X597912Y335297D01*
X597553Y336451D01*
X597166Y337595D01*
X596751Y338730D01*
X596309Y339855D01*
X595840Y340968D01*
X595344Y342070D01*
X594821Y343160D01*
X594273Y344236D01*
X593698Y345299D01*
X593098Y346348D01*
X592473Y347382D01*
X591824Y348401D01*
X591149Y349403D01*
X590451Y350389D01*
X589729Y351358D01*
X588984Y352309D01*
X588216Y353242D01*
X587426Y354156D01*
X586613Y355051D01*
X585780Y355926D01*
X584926Y356780D01*
X584051Y357613D01*
X583156Y358426D01*
X582242Y359216D01*
X581309Y359984D01*
X580358Y360729D01*
X579389Y361451D01*
X578403Y362149D01*
X577401Y362824D01*
X576382Y363473D01*
X575348Y364098D01*
X574299Y364698D01*
X573236Y365273D01*
X572160Y365821D01*
X571070Y366344D01*
X569968Y366840D01*
X568855Y367309D01*
X567730Y367751D01*
X566595Y368166D01*
X565451Y368553D01*
X564297Y368912D01*
X563135Y369244D01*
X561966Y369547D01*
X560789Y369822D01*
X559606Y370069D01*
X558418Y370286D01*
X557224Y370475D01*
X556027Y370635D01*
X554826Y370767D01*
X553622Y370869D01*
X552416Y370942D01*
X551208Y370985D01*
X550000Y371000D01*
X50000Y371000D01*
X48792Y370985D01*
X47584Y370942D01*
X46378Y370869D01*
X45174Y370767D01*
X43973Y370635D01*
X42776Y370475D01*
X41582Y370286D01*
X40394Y370069D01*
X39211Y369822D01*
X38034Y369547D01*
X36865Y369244D01*
X35703Y368912D01*
X34549Y368553D01*
X33405Y368166D01*
X32270Y367751D01*
X31145Y367309D01*
X30032Y366840D01*
X28930Y366344D01*
X27840Y365821D01*
X26764Y365273D01*
X25701Y364698D01*
X24652Y364098D01*
X23618Y363473D01*
X22599Y362824D01*
X21597Y362149D01*
X20611Y361451D01*
X19642Y360729D01*
X18691Y359984D01*
X17758Y359216D01*
X16844Y358426D01*
X15949Y357613D01*
X15074Y356780D01*
X14220Y355926D01*
X13387Y355051D01*
X12574Y354156D01*
X11784Y353242D01*
X11016Y352309D01*
X10271Y351358D01*
X9549Y350389D01*
X8851Y349403D01*
X8176Y348401D01*
X7527Y347382D01*
X6902Y346348D01*
X6302Y345299D01*
X5727Y344236D01*
X5179Y343160D01*
X4656Y342070D01*
X4160Y340968D01*
X3691Y339855D01*
X3249Y338730D01*
X2834Y337595D01*
X2447Y336451D01*
X2088Y335297D01*
X1756Y334135D01*
X1453Y332966D01*
X1178Y331789D01*
X931Y330606D01*
X714Y329418D01*
X525Y328224D01*
X365Y327027D01*
X233Y325826D01*
X131Y324622D01*
X58Y323416D01*
X15Y322208D01*
X0Y321000D01*
D11*
X39971Y46043D02*
X46688Y46043D01*
X39971Y46043D02*
X39885Y46041D01*
X39799Y46035D01*
X39713Y46026D01*
X39628Y46012D01*
X39544Y45995D01*
X39460Y45974D01*
X39378Y45949D01*
X39297Y45921D01*
X39217Y45889D01*
X39138Y45853D01*
X39062Y45814D01*
X38987Y45771D01*
X38914Y45726D01*
X38843Y45677D01*
X38775Y45624D01*
X38708Y45569D01*
X38645Y45511D01*
X38584Y45450D01*
X38526Y45387D01*
X38471Y45320D01*
X38418Y45252D01*
X38369Y45181D01*
X38324Y45108D01*
X38281Y45033D01*
X38242Y44957D01*
X38206Y44878D01*
X38174Y44798D01*
X38146Y44717D01*
X38121Y44635D01*
X38100Y44551D01*
X38083Y44467D01*
X38069Y44382D01*
X38060Y44296D01*
X38054Y44210D01*
X38052Y44124D01*
X38052Y43164D01*
X44769Y50640D02*
X46688Y53039D01*
X38052Y53039D01*
X38052Y50640D02*
X38052Y55438D01*
X556731Y236341D02*
X563448Y236341D01*
X556731Y236341D02*
X556645Y236339D01*
X556559Y236333D01*
X556473Y236324D01*
X556388Y236310D01*
X556304Y236293D01*
X556220Y236272D01*
X556138Y236247D01*
X556057Y236219D01*
X555977Y236187D01*
X555898Y236151D01*
X555822Y236112D01*
X555747Y236069D01*
X555674Y236024D01*
X555603Y235975D01*
X555535Y235922D01*
X555468Y235867D01*
X555405Y235809D01*
X555344Y235748D01*
X555286Y235685D01*
X555231Y235618D01*
X555178Y235550D01*
X555129Y235479D01*
X555084Y235406D01*
X555041Y235331D01*
X555002Y235255D01*
X554966Y235176D01*
X554934Y235096D01*
X554906Y235015D01*
X554881Y234933D01*
X554860Y234849D01*
X554843Y234765D01*
X554829Y234680D01*
X554820Y234594D01*
X554814Y234508D01*
X554812Y234422D01*
X554812Y233462D01*
X563448Y243577D02*
X563446Y243669D01*
X563440Y243760D01*
X563431Y243851D01*
X563417Y243942D01*
X563400Y244032D01*
X563378Y244121D01*
X563353Y244209D01*
X563325Y244296D01*
X563292Y244382D01*
X563256Y244466D01*
X563217Y244549D01*
X563174Y244630D01*
X563127Y244709D01*
X563078Y244786D01*
X563025Y244861D01*
X562969Y244933D01*
X562910Y245003D01*
X562848Y245071D01*
X562783Y245136D01*
X562715Y245198D01*
X562645Y245257D01*
X562573Y245313D01*
X562498Y245366D01*
X562421Y245415D01*
X562342Y245462D01*
X562261Y245505D01*
X562178Y245544D01*
X562094Y245580D01*
X562008Y245613D01*
X561921Y245641D01*
X561833Y245666D01*
X561744Y245688D01*
X561654Y245705D01*
X561563Y245719D01*
X561472Y245728D01*
X561381Y245734D01*
X561289Y245736D01*
X563448Y243577D02*
X563446Y243474D01*
X563440Y243372D01*
X563431Y243270D01*
X563418Y243168D01*
X563401Y243067D01*
X563380Y242966D01*
X563356Y242867D01*
X563327Y242768D01*
X563296Y242671D01*
X563260Y242574D01*
X563222Y242479D01*
X563179Y242386D01*
X563133Y242294D01*
X563084Y242204D01*
X563032Y242116D01*
X562976Y242029D01*
X562917Y241945D01*
X562856Y241864D01*
X562791Y241784D01*
X562723Y241707D01*
X562652Y241632D01*
X562579Y241561D01*
X562503Y241492D01*
X562425Y241425D01*
X562344Y241362D01*
X562261Y241302D01*
X562176Y241245D01*
X562089Y241191D01*
X561999Y241140D01*
X561908Y241093D01*
X561816Y241049D01*
X561721Y241008D01*
X561626Y240971D01*
X561529Y240938D01*
X559610Y245016D02*
X559676Y245083D01*
X559745Y245147D01*
X559816Y245208D01*
X559890Y245266D01*
X559966Y245321D01*
X560044Y245373D01*
X560124Y245422D01*
X560206Y245468D01*
X560290Y245510D01*
X560376Y245549D01*
X560463Y245584D01*
X560551Y245615D01*
X560641Y245643D01*
X560731Y245668D01*
X560823Y245689D01*
X560915Y245706D01*
X561008Y245719D01*
X561101Y245728D01*
X561195Y245734D01*
X561289Y245736D01*
X559610Y245016D02*
X554812Y240938D01*
X554812Y245736D01*
D10*
X220244Y316700D02*
X220249Y317099D01*
X220264Y317498D01*
X220288Y317896D01*
X220322Y318293D01*
X220366Y318690D01*
X220420Y319085D01*
X220483Y319479D01*
X220556Y319871D01*
X220639Y320262D01*
X220731Y320650D01*
X220833Y321036D01*
X220944Y321419D01*
X221064Y321799D01*
X221194Y322176D01*
X221333Y322550D01*
X221481Y322921D01*
X221639Y323288D01*
X221805Y323650D01*
X221980Y324009D01*
X222163Y324363D01*
X222356Y324713D01*
X222557Y325057D01*
X222766Y325397D01*
X222984Y325731D01*
X223209Y326060D01*
X223443Y326384D01*
X223685Y326701D01*
X223934Y327013D01*
X224191Y327318D01*
X224455Y327617D01*
X224727Y327909D01*
X225005Y328195D01*
X225291Y328473D01*
X225583Y328745D01*
X225882Y329009D01*
X226187Y329266D01*
X226499Y329515D01*
X226816Y329757D01*
X227140Y329991D01*
X227469Y330216D01*
X227803Y330434D01*
X228143Y330643D01*
X228487Y330844D01*
X228837Y331037D01*
X229191Y331220D01*
X229550Y331395D01*
X229912Y331561D01*
X230279Y331719D01*
X230650Y331867D01*
X231024Y332006D01*
X231401Y332136D01*
X231781Y332256D01*
X232164Y332367D01*
X232550Y332469D01*
X232938Y332561D01*
X233329Y332644D01*
X233721Y332717D01*
X234115Y332780D01*
X234510Y332834D01*
X234907Y332878D01*
X235304Y332912D01*
X235702Y332936D01*
X236101Y332951D01*
X236500Y332956D01*
X236899Y332951D01*
X237298Y332936D01*
X237696Y332912D01*
X238093Y332878D01*
X238490Y332834D01*
X238885Y332780D01*
X239279Y332717D01*
X239671Y332644D01*
X240062Y332561D01*
X240450Y332469D01*
X240836Y332367D01*
X241219Y332256D01*
X241599Y332136D01*
X241976Y332006D01*
X242350Y331867D01*
X242721Y331719D01*
X243088Y331561D01*
X243450Y331395D01*
X243809Y331220D01*
X244163Y331037D01*
X244513Y330844D01*
X244857Y330643D01*
X245197Y330434D01*
X245531Y330216D01*
X245860Y329991D01*
X246184Y329757D01*
X246501Y329515D01*
X246813Y329266D01*
X247118Y329009D01*
X247417Y328745D01*
X247709Y328473D01*
X247995Y328195D01*
X248273Y327909D01*
X248545Y327617D01*
X248809Y327318D01*
X249066Y327013D01*
X249315Y326701D01*
X249557Y326384D01*
X249791Y326060D01*
X250016Y325731D01*
X250234Y325397D01*
X250443Y325057D01*
X250644Y324713D01*
X250837Y324363D01*
X251020Y324009D01*
X251195Y323650D01*
X251361Y323288D01*
X251519Y322921D01*
X251667Y322550D01*
X251806Y322176D01*
X251936Y321799D01*
X252056Y321419D01*
X252167Y321036D01*
X252269Y320650D01*
X252361Y320262D01*
X252444Y319871D01*
X252517Y319479D01*
X252580Y319085D01*
X252634Y318690D01*
X252678Y318293D01*
X252712Y317896D01*
X252736Y317498D01*
X252751Y317099D01*
X252756Y316700D01*
X252751Y316301D01*
X252736Y315902D01*
X252712Y315504D01*
X252678Y315107D01*
X252634Y314710D01*
X252580Y314315D01*
X252517Y313921D01*
X252444Y313529D01*
X252361Y313138D01*
X252269Y312750D01*
X252167Y312364D01*
X252056Y311981D01*
X251936Y311601D01*
X251806Y311224D01*
X251667Y310850D01*
X251519Y310479D01*
X251361Y310112D01*
X251195Y309750D01*
X251020Y309391D01*
X250837Y309037D01*
X250644Y308687D01*
X250443Y308343D01*
X250234Y308003D01*
X250016Y307669D01*
X249791Y307340D01*
X249557Y307016D01*
X249315Y306699D01*
X249066Y306387D01*
X248809Y306082D01*
X248545Y305783D01*
X248273Y305491D01*
X247995Y305205D01*
X247709Y304927D01*
X247417Y304655D01*
X247118Y304391D01*
X246813Y304134D01*
X246501Y303885D01*
X246184Y303643D01*
X245860Y303409D01*
X245531Y303184D01*
X245197Y302966D01*
X244857Y302757D01*
X244513Y302556D01*
X244163Y302363D01*
X243809Y302180D01*
X243450Y302005D01*
X243088Y301839D01*
X242721Y301681D01*
X242350Y301533D01*
X241976Y301394D01*
X241599Y301264D01*
X241219Y301144D01*
X240836Y301033D01*
X240450Y300931D01*
X240062Y300839D01*
X239671Y300756D01*
X239279Y300683D01*
X238885Y300620D01*
X238490Y300566D01*
X238093Y300522D01*
X237696Y300488D01*
X237298Y300464D01*
X236899Y300449D01*
X236500Y300444D01*
X236101Y300449D01*
X235702Y300464D01*
X235304Y300488D01*
X234907Y300522D01*
X234510Y300566D01*
X234115Y300620D01*
X233721Y300683D01*
X233329Y300756D01*
X232938Y300839D01*
X232550Y300931D01*
X232164Y301033D01*
X231781Y301144D01*
X231401Y301264D01*
X231024Y301394D01*
X230650Y301533D01*
X230279Y301681D01*
X229912Y301839D01*
X229550Y302005D01*
X229191Y302180D01*
X228837Y302363D01*
X228487Y302556D01*
X228143Y302757D01*
X227803Y302966D01*
X227469Y303184D01*
X227140Y303409D01*
X226816Y303643D01*
X226499Y303885D01*
X226187Y304134D01*
X225882Y304391D01*
X225583Y304655D01*
X225291Y304927D01*
X225005Y305205D01*
X224727Y305491D01*
X224455Y305783D01*
X224191Y306082D01*
X223934Y306387D01*
X223685Y306699D01*
X223443Y307016D01*
X223209Y307340D01*
X222984Y307669D01*
X222766Y308003D01*
X222557Y308343D01*
X222356Y308687D01*
X222163Y309037D01*
X221980Y309391D01*
X221805Y309750D01*
X221639Y310112D01*
X221481Y310479D01*
X221333Y310850D01*
X221194Y311224D01*
X221064Y311601D01*
X220944Y311981D01*
X220833Y312364D01*
X220731Y312750D01*
X220639Y313138D01*
X220556Y313529D01*
X220483Y313921D01*
X220420Y314315D01*
X220366Y314710D01*
X220322Y315107D01*
X220288Y315504D01*
X220264Y315902D01*
X220249Y316301D01*
X220244Y316700D01*
X347244Y316700D02*
X347249Y317099D01*
X347264Y317498D01*
X347288Y317896D01*
X347322Y318293D01*
X347366Y318690D01*
X347420Y319085D01*
X347483Y319479D01*
X347556Y319871D01*
X347639Y320262D01*
X347731Y320650D01*
X347833Y321036D01*
X347944Y321419D01*
X348064Y321799D01*
X348194Y322176D01*
X348333Y322550D01*
X348481Y322921D01*
X348639Y323288D01*
X348805Y323650D01*
X348980Y324009D01*
X349163Y324363D01*
X349356Y324713D01*
X349557Y325057D01*
X349766Y325397D01*
X349984Y325731D01*
X350209Y326060D01*
X350443Y326384D01*
X350685Y326701D01*
X350934Y327013D01*
X351191Y327318D01*
X351455Y327617D01*
X351727Y327909D01*
X352005Y328195D01*
X352291Y328473D01*
X352583Y328745D01*
X352882Y329009D01*
X353187Y329266D01*
X353499Y329515D01*
X353816Y329757D01*
X354140Y329991D01*
X354469Y330216D01*
X354803Y330434D01*
X355143Y330643D01*
X355487Y330844D01*
X355837Y331037D01*
X356191Y331220D01*
X356550Y331395D01*
X356912Y331561D01*
X357279Y331719D01*
X357650Y331867D01*
X358024Y332006D01*
X358401Y332136D01*
X358781Y332256D01*
X359164Y332367D01*
X359550Y332469D01*
X359938Y332561D01*
X360329Y332644D01*
X360721Y332717D01*
X361115Y332780D01*
X361510Y332834D01*
X361907Y332878D01*
X362304Y332912D01*
X362702Y332936D01*
X363101Y332951D01*
X363500Y332956D01*
X363899Y332951D01*
X364298Y332936D01*
X364696Y332912D01*
X365093Y332878D01*
X365490Y332834D01*
X365885Y332780D01*
X366279Y332717D01*
X366671Y332644D01*
X367062Y332561D01*
X367450Y332469D01*
X367836Y332367D01*
X368219Y332256D01*
X368599Y332136D01*
X368976Y332006D01*
X369350Y331867D01*
X369721Y331719D01*
X370088Y331561D01*
X370450Y331395D01*
X370809Y331220D01*
X371163Y331037D01*
X371513Y330844D01*
X371857Y330643D01*
X372197Y330434D01*
X372531Y330216D01*
X372860Y329991D01*
X373184Y329757D01*
X373501Y329515D01*
X373813Y329266D01*
X374118Y329009D01*
X374417Y328745D01*
X374709Y328473D01*
X374995Y328195D01*
X375273Y327909D01*
X375545Y327617D01*
X375809Y327318D01*
X376066Y327013D01*
X376315Y326701D01*
X376557Y326384D01*
X376791Y326060D01*
X377016Y325731D01*
X377234Y325397D01*
X377443Y325057D01*
X377644Y324713D01*
X377837Y324363D01*
X378020Y324009D01*
X378195Y323650D01*
X378361Y323288D01*
X378519Y322921D01*
X378667Y322550D01*
X378806Y322176D01*
X378936Y321799D01*
X379056Y321419D01*
X379167Y321036D01*
X379269Y320650D01*
X379361Y320262D01*
X379444Y319871D01*
X379517Y319479D01*
X379580Y319085D01*
X379634Y318690D01*
X379678Y318293D01*
X379712Y317896D01*
X379736Y317498D01*
X379751Y317099D01*
X379756Y316700D01*
X379751Y316301D01*
X379736Y315902D01*
X379712Y315504D01*
X379678Y315107D01*
X379634Y314710D01*
X379580Y314315D01*
X379517Y313921D01*
X379444Y313529D01*
X379361Y313138D01*
X379269Y312750D01*
X379167Y312364D01*
X379056Y311981D01*
X378936Y311601D01*
X378806Y311224D01*
X378667Y310850D01*
X378519Y310479D01*
X378361Y310112D01*
X378195Y309750D01*
X378020Y309391D01*
X377837Y309037D01*
X377644Y308687D01*
X377443Y308343D01*
X377234Y308003D01*
X377016Y307669D01*
X376791Y307340D01*
X376557Y307016D01*
X376315Y306699D01*
X376066Y306387D01*
X375809Y306082D01*
X375545Y305783D01*
X375273Y305491D01*
X374995Y305205D01*
X374709Y304927D01*
X374417Y304655D01*
X374118Y304391D01*
X373813Y304134D01*
X373501Y303885D01*
X373184Y303643D01*
X372860Y303409D01*
X372531Y303184D01*
X372197Y302966D01*
X371857Y302757D01*
X371513Y302556D01*
X371163Y302363D01*
X370809Y302180D01*
X370450Y302005D01*
X370088Y301839D01*
X369721Y301681D01*
X369350Y301533D01*
X368976Y301394D01*
X368599Y301264D01*
X368219Y301144D01*
X367836Y301033D01*
X367450Y300931D01*
X367062Y300839D01*
X366671Y300756D01*
X366279Y300683D01*
X365885Y300620D01*
X365490Y300566D01*
X365093Y300522D01*
X364696Y300488D01*
X364298Y300464D01*
X363899Y300449D01*
X363500Y300444D01*
X363101Y300449D01*
X362702Y300464D01*
X362304Y300488D01*
X361907Y300522D01*
X361510Y300566D01*
X361115Y300620D01*
X360721Y300683D01*
X360329Y300756D01*
X359938Y300839D01*
X359550Y300931D01*
X359164Y301033D01*
X358781Y301144D01*
X358401Y301264D01*
X358024Y301394D01*
X357650Y301533D01*
X357279Y301681D01*
X356912Y301839D01*
X356550Y302005D01*
X356191Y302180D01*
X355837Y302363D01*
X355487Y302556D01*
X355143Y302757D01*
X354803Y302966D01*
X354469Y303184D01*
X354140Y303409D01*
X353816Y303643D01*
X353499Y303885D01*
X353187Y304134D01*
X352882Y304391D01*
X352583Y304655D01*
X352291Y304927D01*
X352005Y305205D01*
X351727Y305491D01*
X351455Y305783D01*
X351191Y306082D01*
X350934Y306387D01*
X350685Y306699D01*
X350443Y307016D01*
X350209Y307340D01*
X349984Y307669D01*
X349766Y308003D01*
X349557Y308343D01*
X349356Y308687D01*
X349163Y309037D01*
X348980Y309391D01*
X348805Y309750D01*
X348639Y310112D01*
X348481Y310479D01*
X348333Y310850D01*
X348194Y311224D01*
X348064Y311601D01*
X347944Y311981D01*
X347833Y312364D01*
X347731Y312750D01*
X347639Y313138D01*
X347556Y313529D01*
X347483Y313921D01*
X347420Y314315D01*
X347366Y314710D01*
X347322Y315107D01*
X347288Y315504D01*
X347264Y315902D01*
X347249Y316301D01*
X347244Y316700D01*
D12*
X305692Y321758D02*
X297903Y333442D01*
X305692Y333442D02*
X297903Y321758D01*
X293613Y330846D02*
X290367Y333442D01*
X290367Y321758D01*
X287122Y321758D02*
X293613Y321758D01*
M02*
