M48
;GenerationSoftware,Autodesk,EAGLE,9.6.2*%
;CreationDate,2022-10-10T09:31:08Z*%
FMAT,2
ICI,OFF
METRIC,TZ,000.000
T4C0.889
T3C1.020
T2C1.575
T1C3.251
%
G90
M71
T1
X23650Y31670
X36350Y31670
T2
X38103Y28241
X21897Y28241
T3
X6350Y8350
X6350Y5810
X53500Y10620
X53500Y13160
X53500Y15700
X53500Y18240
X53500Y8080
X53500Y5540
X53500Y20780
X53500Y23320
T4
X26444Y29130
X27460Y27352
X28476Y29130
X29492Y27352
X30508Y29130
X31524Y27352
X32540Y29130
X33556Y27352
M30